{
.appVersion = "1013";
DisplayStrings = (
"/texture/complexity/weight/optical_size/rhythm      /spacing/width/height/inclination/curvature  /contrast/modulation/edging/free_forms      \012ro\012\012/o.contrast.003/o.contrast.002/o.contrast.001  /n.rhythm.001    r/r.002    /n.optical_size.001",
/free_forms,
t/free_forms/curvature,
" /modulation/curvature/optical_size/height/inclination/texture/complexity/spacing/edging/spacing.001/contrast/rhythm/free_forms/width/width/rhythm/height/height.001/spacing/width.001/optical_size t/weight ttt",
/edging
);
date = "2017-03-15 12:27:36 +0000";
designer = "Manuel von Gebhardi";
familyName = "Variable Icons";
fontMaster = (
{
ascender = 550;
capHeight = 550;
custom = Regular;
customValue = 1;
descender = -50;
id = "87BE50FD-B083-4EB3-9928-F89871FBC1E0";
userData = {
GSCornerRadius = 15;
angle = 20;
height = 6;
width = 30;
};
weight = Light;
weightValue = 0;
widthValue = 1;
xHeight = 500;
},
{
ascender = 550;
capHeight = 550;
custom = Bold;
customValue = 1;
descender = -50;
id = "9D15E9AA-FCC6-4A1A-804C-B0422A1CAE65";
userData = {
GSCornerRadius = 30;
angle = 0;
height = 50;
width = 50;
};
weight = Bold;
weightValue = 1000;
widthValue = 1;
xHeight = 500;
}
);
glyphs = (
{
export = 0;
glyphname = n;
lastChange = "2017-04-25 15:25:44 +0000";
layers = (
{
background = {
paths = (
{
closed = 0;
nodes = (
"586 184 LINE",
"490 -19 LINE",
"439 2 LINE",
"519 436 LINE",
"363 515 LINE",
"89 0 LINE"
);
},
{
closed = 0;
nodes = (
"89 0 LINE",
"169 492 LINE",
"113 510 LINE",
"3 322 LINE"
);
}
);
};
layerId = "87BE50FD-B083-4EB3-9928-F89871FBC1E0";
paths = (
{
closed = 0;
nodes = (
"479 2 LINE",
"479 2 LINE",
"479 2 LINE",
"479 436 LINE",
"324 515 LINE",
"129 415 LINE"
);
},
{
closed = 0;
nodes = (
"129 0 LINE",
"129 500 LINE",
"129 500 LINE",
"129 500 LINE"
);
}
);
width = 600;
},
{
layerId = "9D15E9AA-FCC6-4A1A-804C-B0422A1CAE65";
paths = (
{
closed = 0;
nodes = (
"586 184 LINE",
"490 -19 LINE",
"439 2 LINE",
"519 436 LINE",
"363 515 LINE",
"89 0 LINE"
);
},
{
closed = 0;
nodes = (
"89 0 LINE",
"169 492 LINE",
"113 510 LINE",
"3 322 LINE"
);
}
);
width = 600;
},
{
associatedMasterId = "87BE50FD-B083-4EB3-9928-F89871FBC1E0";
background = {
paths = (
{
closed = 0;
nodes = (
"479 2 LINE",
"479 2 LINE",
"479 2 LINE",
"479 436 LINE",
"324 515 LINE",
"129 415 LINE"
);
},
{
closed = 0;
nodes = (
"129 0 LINE",
"129 500 LINE",
"129 500 LINE",
"129 500 LINE"
);
}
);
};
layerId = "465DAEEC-F517-4D2D-B6C7-5E99749133F2";
name = "{500}";
paths = (
{
closed = 0;
nodes = (
"540 26 LINE",
"465 -6 LINE",
"459 2 LINE",
"499 436 LINE",
"344 515 LINE",
"125 208 LINE"
);
},
{
closed = 0;
nodes = (
"109 0 LINE",
"149 496 LINE",
"139 506 LINE",
"64 467 LINE"
);
}
);
width = 600;
},
{
associatedMasterId = "87BE50FD-B083-4EB3-9928-F89871FBC1E0";
background = {
paths = (
{
closed = 0;
nodes = (
"540 16 LINE",
"465 -6 LINE",
"459 2 LINE",
"499 436 LINE",
"344 515 LINE",
"125 208 LINE"
);
},
{
closed = 0;
nodes = (
"109 0 LINE",
"149 496 LINE",
"139 506 LINE",
"64 477 LINE"
);
}
);
};
layerId = "CA7C9607-53C7-4A81-9505-ADEE3EBA7ADB";
name = "{250}";
paths = (
{
closed = 0;
nodes = (
"550 9 LINE",
"472 -2 LINE",
"469 2 LINE",
"489 436 LINE",
"334 515 LINE",
"131 313 LINE"
);
},
{
closed = 0;
nodes = (
"119 0 LINE",
"139 498 LINE",
"134 503 LINE",
"57 489 LINE"
);
}
);
width = 600;
},
{
associatedMasterId = "87BE50FD-B083-4EB3-9928-F89871FBC1E0";
background = {
paths = (
{
closed = 0;
nodes = (
"479 2 LINE",
"479 2 LINE",
"479 2 LINE",
"479 436 LINE",
"324 515 LINE",
"129 415 LINE"
);
},
{
closed = 0;
nodes = (
"129 0 LINE",
"129 500 LINE",
"129 500 LINE",
"129 500 LINE"
);
}
);
};
layerId = "F005281F-1E4C-44E8-82AE-AC73C55BA644";
name = "{500}";
paths = (
{
closed = 0;
nodes = (
"540 26 LINE",
"465 -6 LINE",
"459 2 LINE",
"499 436 LINE",
"344 515 LINE",
"125 208 LINE"
);
},
{
closed = 0;
nodes = (
"109 0 LINE",
"149 496 LINE",
"139 506 LINE",
"64 467 LINE"
);
}
);
width = 600;
},
{
associatedMasterId = "87BE50FD-B083-4EB3-9928-F89871FBC1E0";
background = {
paths = (
{
closed = 0;
nodes = (
"540 16 LINE",
"465 -6 LINE",
"459 2 LINE",
"499 436 LINE",
"344 515 LINE",
"125 208 LINE"
);
},
{
closed = 0;
nodes = (
"109 0 LINE",
"149 496 LINE",
"139 506 LINE",
"64 477 LINE"
);
}
);
};
layerId = "E3D39190-A3CF-414C-852F-CC6248B4E5D1";
name = "{250}";
paths = (
{
closed = 0;
nodes = (
"550 9 LINE",
"472 -2 LINE",
"469 2 LINE",
"489 436 LINE",
"334 515 LINE",
"131 313 LINE"
);
},
{
closed = 0;
nodes = (
"119 0 LINE",
"139 498 LINE",
"134 503 LINE",
"57 489 LINE"
);
}
);
width = 600;
}
);
unicode = 006E;
},
{
export = 0;
glyphname = o;
lastChange = "2017-04-25 15:25:44 +0000";
layers = (
{
layerId = "87BE50FD-B083-4EB3-9928-F89871FBC1E0";
paths = (
{
closed = 1;
nodes = (
"448 141 OFFCURVE",
"520 213 OFFCURVE",
"520 303 CURVE SMOOTH",
"520 392 OFFCURVE",
"448 464 OFFCURVE",
"359 464 CURVE SMOOTH",
"269 464 OFFCURVE",
"197 392 OFFCURVE",
"197 303 CURVE SMOOTH",
"197 213 OFFCURVE",
"269 141 OFFCURVE",
"359 141 CURVE SMOOTH"
);
}
);
width = 600;
},
{
layerId = "9D15E9AA-FCC6-4A1A-804C-B0422A1CAE65";
paths = (
{
closed = 1;
nodes = (
"644 -312 OFFCURVE",
"793 -163 OFFCURVE",
"793 21 CURVE SMOOTH",
"793 205 OFFCURVE",
"644 354 OFFCURVE",
"460 354 CURVE SMOOTH",
"276 354 OFFCURVE",
"127 205 OFFCURVE",
"127 21 CURVE SMOOTH",
"127 -163 OFFCURVE",
"276 -312 OFFCURVE",
"460 -312 CURVE SMOOTH"
);
}
);
width = 600;
}
);
unicode = 006F;
},
{
export = 0;
glyphname = r;
lastChange = "2017-04-25 15:25:44 +0000";
layers = (
{
background = {
paths = (
{
closed = 1;
nodes = (
"369 500 LINE",
"253 355 LINE",
"253 500 LINE",
"91 500 LINE",
"91 0 LINE",
"253 0 LINE",
"253 132 LINE",
"548 500 LINE"
);
}
);
};
layerId = "87BE50FD-B083-4EB3-9928-F89871FBC1E0";
paths = (
{
closed = 1;
nodes = (
"369 500 LINE SMOOTH",
"369 500 OFFCURVE",
"369 500 OFFCURVE",
"369 500 CURVE SMOOTH",
"330 452 OFFCURVE",
"292 403 OFFCURVE",
"253 355 CURVE SMOOTH",
"253 355 OFFCURVE",
"253 355 OFFCURVE",
"253 355 CURVE SMOOTH",
"253 500 LINE SMOOTH",
"253 500 OFFCURVE",
"253 500 OFFCURVE",
"253 500 CURVE SMOOTH",
"91 500 LINE SMOOTH",
"91 500 OFFCURVE",
"91 500 OFFCURVE",
"91 500 CURVE SMOOTH",
"91 0 LINE SMOOTH",
"91 0 OFFCURVE",
"91 0 OFFCURVE",
"91 0 CURVE SMOOTH",
"253 0 LINE SMOOTH",
"253 0 OFFCURVE",
"253 0 OFFCURVE",
"253 0 CURVE SMOOTH",
"253 132 LINE SMOOTH",
"253 132 OFFCURVE",
"253 132 OFFCURVE",
"253 132 CURVE SMOOTH",
"548 500 LINE SMOOTH",
"548 500 OFFCURVE",
"548 500 OFFCURVE",
"548 500 CURVE SMOOTH"
);
}
);
width = 600;
},
{
background = {
paths = (
{
closed = 1;
nodes = (
"369 500 LINE SMOOTH",
"369 500 OFFCURVE",
"369 500 OFFCURVE",
"369 500 CURVE SMOOTH",
"330 452 OFFCURVE",
"292 403 OFFCURVE",
"253 355 CURVE SMOOTH",
"253 355 OFFCURVE",
"253 355 OFFCURVE",
"253 355 CURVE SMOOTH",
"253 500 LINE SMOOTH",
"253 500 OFFCURVE",
"253 500 OFFCURVE",
"253 500 CURVE SMOOTH",
"91 500 LINE SMOOTH",
"91 500 OFFCURVE",
"91 500 OFFCURVE",
"91 500 CURVE SMOOTH",
"91 0 LINE SMOOTH",
"91 0 OFFCURVE",
"91 0 OFFCURVE",
"91 0 CURVE SMOOTH",
"253 0 LINE SMOOTH",
"253 0 OFFCURVE",
"253 0 OFFCURVE",
"253 0 CURVE SMOOTH",
"253 132 LINE SMOOTH",
"253 132 OFFCURVE",
"253 132 OFFCURVE",
"253 132 CURVE SMOOTH",
"548 500 LINE SMOOTH",
"548 500 OFFCURVE",
"548 500 OFFCURVE",
"548 500 CURVE SMOOTH"
);
}
);
};
layerId = "9D15E9AA-FCC6-4A1A-804C-B0422A1CAE65";
paths = (
{
closed = 1;
nodes = (
"482 500 LINE",
"413 500 LINE",
"392 500 LINE SMOOTH",
"357 500 OFFCURVE",
"375 507 OFFCURVE",
"355 482 CURVE SMOOTH",
"351 478 OFFCURVE",
"348 473 OFFCURVE",
"343 467 CURVE SMOOTH",
"321 438 OFFCURVE",
"309 420 OFFCURVE",
"256 322 CURVE SMOOTH",
"256 322 OFFCURVE",
"242 325 OFFCURVE",
"242 325 CURVE SMOOTH",
"251 452 LINE",
"253 470 LINE SMOOTH",
"259 519 OFFCURVE",
"272 500 OFFCURVE",
"223 500 CURVE SMOOTH",
"198 500 LINE",
"138 500 LINE",
"121 500 LINE SMOOTH",
"62 500 OFFCURVE",
"91 519 OFFCURVE",
"91 470 CURVE SMOOTH",
"91 456 LINE",
"91 50 LINE",
"91 30 LINE SMOOTH",
"91 -19 OFFCURVE",
"72 0 OFFCURVE",
"121 0 CURVE SMOOTH",
"137 0 LINE",
"204 0 LINE",
"223 0 LINE SMOOTH",
"282 0 OFFCURVE",
"253 -19 OFFCURVE",
"253 30 CURVE SMOOTH",
"253 51 LINE",
"253 111 LINE SMOOTH",
"253 126 OFFCURVE",
"256 136 OFFCURVE",
"266 148 CURVE SMOOTH",
"507 448 LINE",
"519 463 LINE SMOOTH",
"559 513 OFFCURVE",
"576 500 OFFCURVE",
"501 500 CURVE SMOOTH"
);
}
);
width = 600;
},
{
associatedMasterId = "9D15E9AA-FCC6-4A1A-804C-B0422A1CAE65";
background = {
paths = (
{
closed = 1;
nodes = (
"91 0 LINE",
"253 0 LINE",
"253 387 LINE",
"253 500 LINE",
"91 500 LINE"
);
},
{
closed = 1;
nodes = (
"103 168 LINE",
"204 71 LINE",
"548 500 LINE",
"369 500 LINE"
);
}
);
};
layerId = "AE1D8926-5567-49DA-BD70-2B3F58F2E15A";
name = "{200}";
paths = (
{
closed = 1;
nodes = (
"392 500 LINE SMOOTH",
"377 500 OFFCURVE",
"365 495 OFFCURVE",
"355 482 CURVE SMOOTH",
"333 455 OFFCURVE",
"312 428 OFFCURVE",
"290 401 CURVE SMOOTH",
"273 379 OFFCURVE",
"253 386 OFFCURVE",
"253 414 CURVE SMOOTH",
"253 470 LINE SMOOTH",
"253 489 OFFCURVE",
"242 500 OFFCURVE",
"223 500 CURVE SMOOTH",
"121 500 LINE SMOOTH",
"102 500 OFFCURVE",
"91 489 OFFCURVE",
"91 470 CURVE SMOOTH",
"91 30 LINE SMOOTH",
"91 11 OFFCURVE",
"102 0 OFFCURVE",
"121 0 CURVE SMOOTH",
"223 0 LINE SMOOTH",
"242 0 OFFCURVE",
"253 11 OFFCURVE",
"253 30 CURVE SMOOTH",
"253 111 LINE SMOOTH",
"253 126 OFFCURVE",
"257 136 OFFCURVE",
"266 148 CURVE SMOOTH",
"519 463 LINE SMOOTH",
"535 483 OFFCURVE",
"526 500 OFFCURVE",
"501 500 CURVE SMOOTH"
);
}
);
width = 600;
},
{
associatedMasterId = "87BE50FD-B083-4EB3-9928-F89871FBC1E0";
background = {
paths = (
{
closed = 1;
nodes = (
"369 500 LINE",
"253 355 LINE",
"253 500 LINE",
"91 500 LINE",
"91 0 LINE",
"253 0 LINE",
"253 132 LINE",
"548 500 LINE"
);
}
);
};
layerId = "82B170E6-8F2A-4546-96F3-C0960BA15893";
name = "{600}";
paths = (
{
closed = 1;
nodes = (
"369 500 LINE SMOOTH",
"369 500 OFFCURVE",
"369 500 OFFCURVE",
"369 500 CURVE SMOOTH",
"227 316 OFFCURVE",
"225 240 OFFCURVE",
"190 266 CURVE SMOOTH",
"157 290 OFFCURVE",
"253 350 OFFCURVE",
"253 384 CURVE SMOOTH",
"253 500 LINE SMOOTH",
"253 500 OFFCURVE",
"253 500 OFFCURVE",
"253 500 CURVE SMOOTH",
"131 500 LINE SMOOTH",
"131 500 OFFCURVE",
"131 500 OFFCURVE",
"131 500 CURVE SMOOTH",
"131 0 LINE SMOOTH",
"131 0 OFFCURVE",
"131 0 OFFCURVE",
"131 0 CURVE SMOOTH",
"253 0 LINE SMOOTH",
"253 0 OFFCURVE",
"250 25 OFFCURVE",
"251 56 CURVE SMOOTH",
"253 132 LINE SMOOTH",
"253 132 OFFCURVE",
"253 132 OFFCURVE",
"253 132 CURVE SMOOTH",
"548 500 LINE SMOOTH",
"548 500 OFFCURVE",
"548 500 OFFCURVE",
"548 500 CURVE SMOOTH"
);
}
);
width = 600;
},
{
associatedMasterId = "9D15E9AA-FCC6-4A1A-804C-B0422A1CAE65";
background = {
paths = (
{
closed = 1;
nodes = (
"91 0 LINE",
"253 0 LINE",
"253 387 LINE",
"253 500 LINE",
"91 500 LINE"
);
},
{
closed = 1;
nodes = (
"103 168 LINE",
"204 71 LINE",
"548 500 LINE",
"369 500 LINE"
);
}
);
};
layerId = "992F4DE6-EE43-42D6-8183-17E37D522DA6";
name = "{400}";
paths = (
{
closed = 1;
nodes = (
"422 500 LINE SMOOTH",
"377 500 OFFCURVE",
"365 496 OFFCURVE",
"340 464 CURVE SMOOTH",
"282 392 OFFCURVE",
"224 320 OFFCURVE",
"166 248 CURVE SMOOTH",
"149 226 OFFCURVE",
"253 339 OFFCURVE",
"253 414 CURVE SMOOTH",
"253 440 LINE SMOOTH",
"253 489 OFFCURVE",
"242 500 OFFCURVE",
"193 500 CURVE SMOOTH",
"151 500 LINE SMOOTH",
"102 500 OFFCURVE",
"91 489 OFFCURVE",
"91 440 CURVE SMOOTH",
"91 60 LINE SMOOTH",
"91 11 OFFCURVE",
"102 0 OFFCURVE",
"151 0 CURVE SMOOTH",
"193 0 LINE SMOOTH",
"242 0 OFFCURVE",
"253 11 OFFCURVE",
"253 60 CURVE SMOOTH",
"253 81 LINE SMOOTH",
"253 126 OFFCURVE",
"257 136 OFFCURVE",
"278 163 CURVE SMOOTH",
"504 445 LINE SMOOTH",
"530 477 OFFCURVE",
"516 500 OFFCURVE",
"471 500 CURVE SMOOTH"
);
}
);
width = 600;
},
{
associatedMasterId = "9D15E9AA-FCC6-4A1A-804C-B0422A1CAE65";
background = {
paths = (
{
closed = 1;
nodes = (
"91 0 LINE",
"253 0 LINE",
"253 387 LINE",
"253 500 LINE",
"91 500 LINE"
);
},
{
closed = 1;
nodes = (
"103 168 LINE",
"204 71 LINE",
"548 500 LINE",
"369 500 LINE"
);
}
);
};
layerId = "9FEE8779-88F9-40A3-A17A-10434C70C0AD";
name = "{800}";
paths = (
{
closed = 1;
nodes = (
"392 500 LINE SMOOTH",
"357 500 OFFCURVE",
"375 507 OFFCURVE",
"355 482 CURVE SMOOTH",
"333 455 OFFCURVE",
"298 409 OFFCURVE",
"245 292 CURVE SMOOTH",
"245 292 OFFCURVE",
"231 295 OFFCURVE",
"231 295 CURVE SMOOTH",
"253 470 LINE SMOOTH",
"259 519 OFFCURVE",
"272 500 OFFCURVE",
"223 500 CURVE SMOOTH",
"121 500 LINE SMOOTH",
"62 500 OFFCURVE",
"91 519 OFFCURVE",
"91 470 CURVE SMOOTH",
"91 30 LINE SMOOTH",
"91 -19 OFFCURVE",
"72 0 OFFCURVE",
"121 0 CURVE SMOOTH",
"223 0 LINE SMOOTH",
"282 0 OFFCURVE",
"253 -19 OFFCURVE",
"253 30 CURVE SMOOTH",
"253 111 LINE SMOOTH",
"253 126 OFFCURVE",
"257 136 OFFCURVE",
"266 148 CURVE SMOOTH",
"519 463 LINE SMOOTH",
"559 513 OFFCURVE",
"576 500 OFFCURVE",
"501 500 CURVE SMOOTH"
);
}
);
width = 600;
},
{
associatedMasterId = "9D15E9AA-FCC6-4A1A-804C-B0422A1CAE65";
background = {
paths = (
{
closed = 1;
nodes = (
"91 0 LINE",
"253 0 LINE",
"253 387 LINE",
"253 500 LINE",
"91 500 LINE"
);
},
{
closed = 1;
nodes = (
"103 168 LINE",
"204 71 LINE",
"548 500 LINE",
"369 500 LINE"
);
}
);
};
layerId = "DA5BB255-EDFF-4C7B-B4DA-961583FB3501";
name = "{900}";
paths = (
{
closed = 1;
nodes = (
"483 500 LINE",
"410 500 LINE",
"392 506 LINE SMOOTH",
"357 518 OFFCURVE",
"361 509 OFFCURVE",
"351 484 CURVE SMOOTH",
"349 480 OFFCURVE",
"348 473 OFFCURVE",
"344 468 CURVE SMOOTH",
"322 439 OFFCURVE",
"290 391 OFFCURVE",
"245 292 CURVE SMOOTH",
"245 292 OFFCURVE",
"231 295 OFFCURVE",
"231 295 CURVE SMOOTH",
"246 451 LINE",
"253 470 LINE SMOOTH",
"270 516 OFFCURVE",
"269 522 OFFCURVE",
"223 506 CURVE SMOOTH",
"206 500 LINE",
"141 500 LINE",
"121 506 LINE SMOOTH",
"73 520 OFFCURVE",
"70 517 OFFCURVE",
"85 470 CURVE SMOOTH",
"91 451 LINE",
"91 50 LINE",
"85 30 LINE SMOOTH",
"71 -18 OFFCURVE",
"74 -20 OFFCURVE",
"121 -5 CURVE SMOOTH",
"137 0 LINE",
"203 0 LINE",
"223 -4 LINE SMOOTH",
"282 -16 OFFCURVE",
"284 -14 OFFCURVE",
"263 30 CURVE SMOOTH",
"253 51 LINE",
"253 111 LINE SMOOTH",
"253 126 OFFCURVE",
"257 136 OFFCURVE",
"266 148 CURVE SMOOTH",
"508 450 LINE",
"523 463 LINE SMOOTH",
"571 505 OFFCURVE",
"573 525 OFFCURVE",
"501 505 CURVE SMOOTH"
);
}
);
width = 600;
},
{
associatedMasterId = "9D15E9AA-FCC6-4A1A-804C-B0422A1CAE65";
background = {
paths = (
{
closed = 1;
nodes = (
"91 0 LINE",
"253 0 LINE",
"253 387 LINE",
"253 500 LINE",
"91 500 LINE"
);
},
{
closed = 1;
nodes = (
"103 168 LINE",
"204 71 LINE",
"548 500 LINE",
"369 500 LINE"
);
}
);
};
layerId = "C3EE3DDC-B910-4A74-8762-731A09A5C61A";
name = "{801}";
paths = (
{
closed = 1;
nodes = (
"482 500 LINE",
"413 500 LINE",
"392 500 LINE SMOOTH",
"357 500 OFFCURVE",
"375 507 OFFCURVE",
"355 482 CURVE SMOOTH",
"351 478 OFFCURVE",
"348 473 OFFCURVE",
"343 467 CURVE SMOOTH",
"321 438 OFFCURVE",
"289 390 OFFCURVE",
"245 292 CURVE SMOOTH",
"245 292 OFFCURVE",
"231 295 OFFCURVE",
"231 295 CURVE SMOOTH",
"251 452 LINE",
"253 470 LINE SMOOTH",
"259 519 OFFCURVE",
"272 500 OFFCURVE",
"223 500 CURVE SMOOTH",
"198 500 LINE",
"138 500 LINE",
"121 500 LINE SMOOTH",
"62 500 OFFCURVE",
"91 519 OFFCURVE",
"91 470 CURVE SMOOTH",
"91 456 LINE",
"91 50 LINE",
"91 30 LINE SMOOTH",
"91 -19 OFFCURVE",
"72 0 OFFCURVE",
"121 0 CURVE SMOOTH",
"137 0 LINE",
"204 0 LINE",
"223 0 LINE SMOOTH",
"282 0 OFFCURVE",
"253 -19 OFFCURVE",
"253 30 CURVE SMOOTH",
"253 51 LINE",
"253 111 LINE SMOOTH",
"253 126 OFFCURVE",
"257 136 OFFCURVE",
"266 148 CURVE SMOOTH",
"507 448 LINE",
"519 463 LINE SMOOTH",
"559 513 OFFCURVE",
"576 500 OFFCURVE",
"501 500 CURVE SMOOTH"
);
}
);
width = 600;
}
);
unicode = 0072;
},
{
export = 0;
glyphname = o.contrast.001;
lastChange = "2017-04-25 15:25:50 +0000";
layers = (
{
background = {
paths = (
{
closed = 1;
nodes = (
"57 100 OFFCURVE",
"160 -10 OFFCURVE",
"301 -10 CURVE SMOOTH",
"442 -10 OFFCURVE",
"544 100 OFFCURVE",
"544 252 CURVE SMOOTH",
"544 401 OFFCURVE",
"442 510 OFFCURVE",
"301 510 CURVE",
"160 510 OFFCURVE",
"57 401 OFFCURVE",
"57 252 CURVE SMOOTH"
);
},
{
closed = 1;
nodes = (
"216 74 OFFCURVE",
"155 148 OFFCURVE",
"155 250 CURVE SMOOTH",
"155 350 OFFCURVE",
"216 422 OFFCURVE",
"299 422 CURVE SMOOTH",
"382 422 OFFCURVE",
"442 350 OFFCURVE",
"442 250 CURVE SMOOTH",
"442 148 OFFCURVE",
"382 74 OFFCURVE",
"299 74 CURVE SMOOTH"
);
}
);
};
layerId = "87BE50FD-B083-4EB3-9928-F89871FBC1E0";
paths = (
{
closed = 1;
nodes = (
"57 100 OFFCURVE",
"160 -10 OFFCURVE",
"301 -10 CURVE SMOOTH",
"442 -10 OFFCURVE",
"544 100 OFFCURVE",
"544 252 CURVE SMOOTH",
"544 401 OFFCURVE",
"442 510 OFFCURVE",
"301 510 CURVE",
"160 510 OFFCURVE",
"57 401 OFFCURVE",
"57 252 CURVE SMOOTH"
);
},
{
closed = 1;
nodes = (
"216 14 OFFCURVE",
"155 113 OFFCURVE",
"155 250 CURVE SMOOTH",
"155 391 OFFCURVE",
"216 492 OFFCURVE",
"299 492 CURVE SMOOTH",
"382 492 OFFCURVE",
"442 391 OFFCURVE",
"442 250 CURVE SMOOTH",
"442 113 OFFCURVE",
"382 14 OFFCURVE",
"299 14 CURVE SMOOTH"
);
}
);
width = 600;
},
{
background = {
paths = (
{
closed = 1;
nodes = (
"57 100 OFFCURVE",
"160 -10 OFFCURVE",
"301 -10 CURVE SMOOTH",
"442 -10 OFFCURVE",
"544 100 OFFCURVE",
"544 252 CURVE SMOOTH",
"544 401 OFFCURVE",
"442 510 OFFCURVE",
"301 510 CURVE",
"160 510 OFFCURVE",
"57 401 OFFCURVE",
"57 252 CURVE SMOOTH"
);
},
{
closed = 1;
nodes = (
"216 14 OFFCURVE",
"155 113 OFFCURVE",
"155 250 CURVE SMOOTH",
"155 391 OFFCURVE",
"216 492 OFFCURVE",
"299 492 CURVE SMOOTH",
"382 492 OFFCURVE",
"442 391 OFFCURVE",
"442 250 CURVE SMOOTH",
"442 113 OFFCURVE",
"382 14 OFFCURVE",
"299 14 CURVE SMOOTH"
);
}
);
};
layerId = "9D15E9AA-FCC6-4A1A-804C-B0422A1CAE65";
paths = (
{
closed = 1;
nodes = (
"57 100 OFFCURVE",
"160 -10 OFFCURVE",
"301 -10 CURVE SMOOTH",
"442 -10 OFFCURVE",
"544 100 OFFCURVE",
"544 252 CURVE SMOOTH",
"544 401 OFFCURVE",
"442 510 OFFCURVE",
"301 510 CURVE",
"160 510 OFFCURVE",
"57 401 OFFCURVE",
"57 252 CURVE SMOOTH"
);
},
{
closed = 1;
nodes = (
"216 74 OFFCURVE",
"155 148 OFFCURVE",
"155 250 CURVE SMOOTH",
"155 350 OFFCURVE",
"216 422 OFFCURVE",
"299 422 CURVE SMOOTH",
"382 422 OFFCURVE",
"442 350 OFFCURVE",
"442 250 CURVE SMOOTH",
"442 148 OFFCURVE",
"382 74 OFFCURVE",
"299 74 CURVE SMOOTH"
);
}
);
width = 600;
}
);
},
{
export = 0;
glyphname = n.001;
lastChange = "2017-04-25 15:25:50 +0000";
layers = (
{
background = {
paths = (
{
closed = 0;
nodes = (
"586 184 LINE",
"490 -19 LINE",
"439 2 LINE",
"519 436 LINE",
"363 515 LINE",
"89 0 LINE"
);
},
{
closed = 0;
nodes = (
"89 0 LINE",
"169 492 LINE",
"113 510 LINE",
"3 322 LINE"
);
}
);
};
layerId = "87BE50FD-B083-4EB3-9928-F89871FBC1E0";
paths = (
{
closed = 1;
nodes = (
"454 2 LINE",
"504 2 LINE",
"504 2 LINE",
"504 2 LINE",
"504 424 LINE",
"324 516 LINE",
"118 410 LINE",
"140 366 LINE",
"324 460 LINE",
"454 394 LINE",
"454 2 LINE",
"454 2 LINE"
);
},
{
closed = 1;
nodes = (
"154 500 LINE",
"154 500 LINE",
"154 500 LINE",
"104 500 LINE",
"104 500 LINE",
"104 500 LINE",
"104 0 LINE",
"154 0 LINE"
);
}
);
width = 600;
},
{
layerId = "9D15E9AA-FCC6-4A1A-804C-B0422A1CAE65";
paths = (
{
closed = 1;
nodes = (
"609 193 LINE",
"569 215 LINE",
"498 37 LINE",
"447 47 LINE",
"547 449 LINE",
"402 518 LINE",
"67 12 LINE",
"111 -12 LINE",
"424 452 LINE",
"491 421 LINE",
"391 17 LINE",
"522 -21 LINE"
);
},
{
closed = 1;
nodes = (
"227 481 LINE",
"122 512 LINE",
"11 335 LINE",
"55 309 LINE",
"144 452 LINE",
"171 447 LINE",
"64 4 LINE",
"114 -4 LINE"
);
}
);
width = 600;
},
{
associatedMasterId = "87BE50FD-B083-4EB3-9928-F89871FBC1E0";
background = {
paths = (
{
closed = 0;
nodes = (
"479 2 LINE",
"479 2 LINE",
"479 2 LINE",
"479 436 LINE",
"324 515 LINE",
"129 415 LINE"
);
},
{
closed = 0;
nodes = (
"129 0 LINE",
"129 500 LINE",
"129 500 LINE",
"129 500 LINE"
);
}
);
};
layerId = "465DAEEC-F517-4D2D-B6C7-5E99749133F2";
name = "{500}";
paths = (
{
closed = 1;
nodes = (
"550 23 LINE",
"530 70 LINE",
"474 45 LINE",
"486 29 LINE",
"525 421 LINE",
"335 518 LINE",
"104 223 LINE",
"145 193 LINE",
"352 454 LINE",
"472 393 LINE",
"434 15 LINE",
"457 -18 LINE"
);
},
{
closed = 1;
nodes = (
"175 485 LINE",
"143 516 LINE",
"53 469 LINE",
"76 425 LINE",
"134 456 LINE",
"123 467 LINE",
"83 2 LINE",
"134 -1 LINE"
);
}
);
width = 600;
},
{
associatedMasterId = "87BE50FD-B083-4EB3-9928-F89871FBC1E0";
background = {
paths = (
{
closed = 0;
nodes = (
"540 16 LINE",
"465 -6 LINE",
"459 2 LINE",
"499 436 LINE",
"344 515 LINE",
"125 208 LINE"
);
},
{
closed = 0;
nodes = (
"109 0 LINE",
"149 496 LINE",
"139 506 LINE",
"64 477 LINE"
);
}
);
};
layerId = "CA7C9607-53C7-4A81-9505-ADEE3EBA7ADB";
name = "{250}";
paths = (
{
closed = 1;
nodes = (
"553 4 LINE",
"547 53 LINE",
"483 44 LINE",
"495 31 LINE",
"514 431 LINE",
"329 525 LINE",
"113 331 LINE",
"149 296 LINE",
"339 465 LINE",
"463 401 LINE",
"443 13 LINE",
"462 -8 LINE"
);
},
{
closed = 1;
nodes = (
"164 490 LINE",
"140 510 LINE",
"52 494 LINE",
"61 445 LINE",
"127 456 LINE",
"114 467 LINE",
"94 1 LINE",
"144 -2 LINE"
);
}
);
width = 600;
},
{
associatedMasterId = "87BE50FD-B083-4EB3-9928-F89871FBC1E0";
background = {
paths = (
{
closed = 0;
nodes = (
"479 2 LINE",
"479 2 LINE",
"479 2 LINE",
"479 436 LINE",
"324 515 LINE",
"129 415 LINE"
);
},
{
closed = 0;
nodes = (
"129 0 LINE",
"129 500 LINE",
"129 500 LINE",
"129 500 LINE"
);
}
);
};
layerId = "537D85DB-BB76-4DF0-9398-9317A808B765";
name = "{500}";
paths = (
{
closed = 1;
nodes = (
"550 23 LINE",
"530 70 LINE",
"474 45 LINE",
"486 29 LINE",
"525 421 LINE",
"335 518 LINE",
"104 223 LINE",
"145 193 LINE",
"352 454 LINE",
"472 393 LINE",
"434 15 LINE",
"457 -18 LINE"
);
},
{
closed = 1;
nodes = (
"175 485 LINE",
"143 516 LINE",
"53 469 LINE",
"76 425 LINE",
"134 456 LINE",
"123 467 LINE",
"83 2 LINE",
"134 -1 LINE"
);
}
);
width = 600;
},
{
associatedMasterId = "87BE50FD-B083-4EB3-9928-F89871FBC1E0";
background = {
paths = (
{
closed = 0;
nodes = (
"540 16 LINE",
"465 -6 LINE",
"459 2 LINE",
"499 436 LINE",
"344 515 LINE",
"125 208 LINE"
);
},
{
closed = 0;
nodes = (
"109 0 LINE",
"149 496 LINE",
"139 506 LINE",
"64 477 LINE"
);
}
);
};
layerId = "2596AD55-79B6-4A0A-B88F-4F259DE0F5F6";
name = "{250}";
paths = (
{
closed = 1;
nodes = (
"553 4 LINE",
"547 53 LINE",
"483 44 LINE",
"495 31 LINE",
"514 431 LINE",
"329 525 LINE",
"113 331 LINE",
"149 296 LINE",
"339 465 LINE",
"463 401 LINE",
"443 13 LINE",
"462 -8 LINE"
);
},
{
closed = 1;
nodes = (
"164 490 LINE",
"140 510 LINE",
"52 494 LINE",
"61 445 LINE",
"127 456 LINE",
"114 467 LINE",
"94 1 LINE",
"144 -2 LINE"
);
}
);
width = 600;
}
);
},
{
export = 0;
glyphname = n.rhythm.001;
lastChange = "2017-04-25 15:25:50 +0000";
layers = (
{
layerId = "87BE50FD-B083-4EB3-9928-F89871FBC1E0";
paths = (
{
closed = 1;
nodes = (
"70 0 LINE",
"130 0 LINE",
"130 500 LINE",
"70 500 LINE"
);
},
{
closed = 1;
nodes = (
"270 0 LINE",
"330 0 LINE",
"330 500 LINE",
"270 500 LINE"
);
},
{
closed = 1;
nodes = (
"470 0 LINE",
"530 0 LINE",
"530 500 LINE",
"470 500 LINE"
);
}
);
width = 600;
},
{
layerId = "9D15E9AA-FCC6-4A1A-804C-B0422A1CAE65";
paths = (
{
closed = 1;
nodes = (
"50 0 LINE",
"110 0 LINE",
"110 500 LINE",
"50 500 LINE"
);
},
{
closed = 1;
nodes = (
"340 0 LINE",
"400 0 LINE",
"400 500 LINE",
"340 500 LINE"
);
},
{
closed = 1;
nodes = (
"450 0 LINE",
"510 0 LINE",
"510 500 LINE",
"450 500 LINE"
);
}
);
width = 601;
}
);
},
{
export = 0;
glyphname = o.contrast.002;
lastChange = "2017-04-25 15:25:50 +0000";
layers = (
{
background = {
paths = (
{
closed = 1;
nodes = (
"57 100 OFFCURVE",
"160 -10 OFFCURVE",
"301 -10 CURVE SMOOTH",
"442 -10 OFFCURVE",
"544 100 OFFCURVE",
"544 252 CURVE SMOOTH",
"544 401 OFFCURVE",
"442 510 OFFCURVE",
"301 510 CURVE",
"160 510 OFFCURVE",
"57 401 OFFCURVE",
"57 252 CURVE SMOOTH"
);
},
{
closed = 1;
nodes = (
"264 164 OFFCURVE",
"237 200 OFFCURVE",
"237 250 CURVE SMOOTH",
"237 303 OFFCURVE",
"264 342 OFFCURVE",
"301 342 CURVE SMOOTH",
"338 342 OFFCURVE",
"364 303 OFFCURVE",
"364 250 CURVE SMOOTH",
"364 200 OFFCURVE",
"338 164 OFFCURVE",
"301 164 CURVE SMOOTH"
);
}
);
};
layerId = "87BE50FD-B083-4EB3-9928-F89871FBC1E0";
paths = (
{
closed = 1;
nodes = (
"57 100 OFFCURVE",
"160 -10 OFFCURVE",
"301 -10 CURVE SMOOTH",
"442 -10 OFFCURVE",
"544 100 OFFCURVE",
"544 252 CURVE SMOOTH",
"544 401 OFFCURVE",
"442 510 OFFCURVE",
"301 510 CURVE",
"160 510 OFFCURVE",
"57 401 OFFCURVE",
"57 252 CURVE SMOOTH"
);
},
{
closed = 1;
nodes = (
"261 14 OFFCURVE",
"231 113 OFFCURVE",
"230 250 CURVE SMOOTH",
"231 391 OFFCURVE",
"261 492 OFFCURVE",
"300 492 CURVE SMOOTH",
"340 492 OFFCURVE",
"371 391 OFFCURVE",
"370 250 CURVE SMOOTH",
"371 113 OFFCURVE",
"340 14 OFFCURVE",
"300 14 CURVE SMOOTH"
);
}
);
width = 600;
},
{
layerId = "9D15E9AA-FCC6-4A1A-804C-B0422A1CAE65";
paths = (
{
closed = 1;
nodes = (
"57 100 OFFCURVE",
"160 -10 OFFCURVE",
"301 -10 CURVE SMOOTH",
"442 -10 OFFCURVE",
"544 100 OFFCURVE",
"544 252 CURVE SMOOTH",
"544 401 OFFCURVE",
"442 510 OFFCURVE",
"301 510 CURVE",
"160 510 OFFCURVE",
"57 401 OFFCURVE",
"57 252 CURVE SMOOTH"
);
},
{
closed = 1;
nodes = (
"261 14 OFFCURVE",
"231 113 OFFCURVE",
"230 250 CURVE SMOOTH",
"231 391 OFFCURVE",
"261 492 OFFCURVE",
"300 492 CURVE SMOOTH",
"340 492 OFFCURVE",
"371 391 OFFCURVE",
"370 250 CURVE SMOOTH",
"371 113 OFFCURVE",
"340 14 OFFCURVE",
"300 14 CURVE SMOOTH"
);
}
);
width = 600;
},
{
associatedMasterId = "87BE50FD-B083-4EB3-9928-F89871FBC1E0";
background = {
paths = (
{
closed = 1;
nodes = (
"57 100 OFFCURVE",
"160 -10 OFFCURVE",
"301 -10 CURVE SMOOTH",
"442 -10 OFFCURVE",
"544 100 OFFCURVE",
"544 252 CURVE SMOOTH",
"544 401 OFFCURVE",
"442 510 OFFCURVE",
"301 510 CURVE",
"160 510 OFFCURVE",
"57 401 OFFCURVE",
"57 252 CURVE SMOOTH"
);
},
{
closed = 1;
nodes = (
"264 164 OFFCURVE",
"237 200 OFFCURVE",
"237 250 CURVE SMOOTH",
"237 303 OFFCURVE",
"264 342 OFFCURVE",
"301 342 CURVE SMOOTH",
"338 342 OFFCURVE",
"364 303 OFFCURVE",
"364 250 CURVE SMOOTH",
"364 200 OFFCURVE",
"338 164 OFFCURVE",
"301 164 CURVE SMOOTH"
);
}
);
};
layerId = "B343C26F-F3FD-40FD-8564-468815548331";
name = "{800}";
paths = (
{
closed = 1;
nodes = (
"57 100 OFFCURVE",
"160 -10 OFFCURVE",
"301 -10 CURVE SMOOTH",
"442 -10 OFFCURVE",
"544 100 OFFCURVE",
"544 252 CURVE SMOOTH",
"544 401 OFFCURVE",
"442 510 OFFCURVE",
"301 510 CURVE",
"160 510 OFFCURVE",
"57 401 OFFCURVE",
"57 252 CURVE SMOOTH"
);
},
{
closed = 1;
nodes = (
"257 143 OFFCURVE",
"230 187 OFFCURVE",
"230 249 CURVE SMOOTH",
"230 314 OFFCURVE",
"257 361 OFFCURVE",
"300 361 CURVE SMOOTH",
"343 361 OFFCURVE",
"371 314 OFFCURVE",
"371 249 CURVE SMOOTH",
"371 187 OFFCURVE",
"343 143 OFFCURVE",
"300 143 CURVE SMOOTH"
);
}
);
width = 600;
}
);
},
{
export = 0;
glyphname = r.002;
lastChange = "2017-04-25 15:25:50 +0000";
layers = (
{
background = {
paths = (
{
closed = 1;
nodes = (
"285 500 LINE",
"169 355 LINE",
"169 500 LINE",
"7 500 LINE",
"7 0 LINE",
"169 0 LINE",
"169 132 LINE",
"464 500 LINE"
);
},
{
closed = 1;
nodes = (
"285 500 LINE SMOOTH",
"285 500 OFFCURVE",
"285 500 OFFCURVE",
"285 500 CURVE SMOOTH",
"143 316 OFFCURVE",
"141 241 OFFCURVE",
"106 266 CURVE SMOOTH",
"73 290 OFFCURVE",
"169 350 OFFCURVE",
"169 384 CURVE SMOOTH",
"169 500 LINE SMOOTH",
"169 500 OFFCURVE",
"169 500 OFFCURVE",
"169 500 CURVE SMOOTH",
"57 500 LINE SMOOTH",
"57 500 OFFCURVE",
"57 500 OFFCURVE",
"57 500 CURVE SMOOTH",
"57 110 LINE SMOOTH",
"57 110 OFFCURVE",
"57 110 OFFCURVE",
"57 110 CURVE SMOOTH",
"169 110 LINE SMOOTH",
"169 110 OFFCURVE",
"165 155 OFFCURVE",
"167 186 CURVE SMOOTH",
"169 212 LINE SMOOTH",
"169 212 OFFCURVE",
"169 212 OFFCURVE",
"169 212 CURVE SMOOTH",
"414 500 LINE SMOOTH",
"414 500 OFFCURVE",
"414 500 OFFCURVE",
"414 500 CURVE SMOOTH"
);
}
);
};
layerId = "87BE50FD-B083-4EB3-9928-F89871FBC1E0";
paths = (
{
closed = 1;
nodes = (
"389 500 LINE SMOOTH",
"389 500 OFFCURVE",
"389 500 OFFCURVE",
"389 500 CURVE SMOOTH",
"339 438 OFFCURVE",
"290 376 OFFCURVE",
"240 314 CURVE SMOOTH",
"240 314 OFFCURVE",
"240 314 OFFCURVE",
"240 314 CURVE SMOOTH",
"240 500 LINE SMOOTH",
"240 500 OFFCURVE",
"240 500 OFFCURVE",
"240 500 CURVE SMOOTH",
"96 500 LINE SMOOTH",
"96 500 OFFCURVE",
"96 500 OFFCURVE",
"96 500 CURVE SMOOTH",
"96 0 LINE SMOOTH",
"96 0 OFFCURVE",
"96 0 OFFCURVE",
"96 0 CURVE SMOOTH",
"240 0 LINE SMOOTH",
"240 0 OFFCURVE",
"240 0 OFFCURVE",
"240 0 CURVE SMOOTH",
"240 131 LINE SMOOTH",
"240 131 OFFCURVE",
"240 131 OFFCURVE",
"240 131 CURVE SMOOTH",
"554 500 LINE SMOOTH",
"554 500 OFFCURVE",
"554 500 OFFCURVE",
"554 500 CURVE SMOOTH"
);
}
);
width = 601;
},
{
background = {
paths = (
{
closed = 1;
nodes = (
"285 500 LINE SMOOTH",
"285 500 OFFCURVE",
"285 500 OFFCURVE",
"285 500 CURVE SMOOTH",
"246 452 OFFCURVE",
"208 403 OFFCURVE",
"169 355 CURVE SMOOTH",
"169 355 OFFCURVE",
"169 355 OFFCURVE",
"169 355 CURVE SMOOTH",
"169 500 LINE SMOOTH",
"169 500 OFFCURVE",
"169 500 OFFCURVE",
"169 500 CURVE SMOOTH",
"7 500 LINE SMOOTH",
"7 500 OFFCURVE",
"7 500 OFFCURVE",
"7 500 CURVE SMOOTH",
"7 0 LINE SMOOTH",
"7 0 OFFCURVE",
"7 0 OFFCURVE",
"7 0 CURVE SMOOTH",
"169 0 LINE SMOOTH",
"169 0 OFFCURVE",
"169 0 OFFCURVE",
"169 0 CURVE SMOOTH",
"169 132 LINE SMOOTH",
"169 132 OFFCURVE",
"169 132 OFFCURVE",
"169 132 CURVE SMOOTH",
"464 500 LINE SMOOTH",
"464 500 OFFCURVE",
"464 500 OFFCURVE",
"464 500 CURVE SMOOTH"
);
}
);
};
layerId = "9D15E9AA-FCC6-4A1A-804C-B0422A1CAE65";
paths = (
{
closed = 1;
nodes = (
"482 500 LINE",
"445 500 LINE",
"418 500 LINE SMOOTH",
"373 500 OFFCURVE",
"396 509 OFFCURVE",
"371 477 CURVE SMOOTH",
"365 472 OFFCURVE",
"362 465 OFFCURVE",
"355 458 CURVE SMOOTH",
"327 421 OFFCURVE",
"286 385 OFFCURVE",
"230 259 CURVE SMOOTH",
"230 259 OFFCURVE",
"212 263 OFFCURVE",
"212 263 CURVE SMOOTH",
"237 438 LINE",
"240 462 LINE SMOOTH",
"248 524 OFFCURVE",
"264 500 OFFCURVE",
"201 500 CURVE SMOOTH",
"169 500 LINE",
"157 500 LINE",
"135 500 LINE SMOOTH",
"59 500 OFFCURVE",
"96 524 OFFCURVE",
"96 462 CURVE SMOOTH",
"96 444 LINE",
"96 64 LINE",
"96 38 LINE SMOOTH",
"96 -24 OFFCURVE",
"72 0 OFFCURVE",
"135 0 CURVE SMOOTH",
"155 0 LINE",
"177 0 LINE",
"201 0 LINE SMOOTH",
"277 0 OFFCURVE",
"240 -24 OFFCURVE",
"240 38 CURVE SMOOTH",
"240 65 LINE",
"240 117 LINE SMOOTH",
"240 136 OFFCURVE",
"243 150 OFFCURVE",
"257 164 CURVE SMOOTH",
"514 433 LINE",
"530 453 LINE SMOOTH",
"581 517 OFFCURVE",
"603 500 OFFCURVE",
"507 500 CURVE SMOOTH"
);
}
);
width = 601;
},
{
associatedMasterId = "9D15E9AA-FCC6-4A1A-804C-B0422A1CAE65";
background = {
paths = (
{
closed = 1;
nodes = (
"7 0 LINE",
"169 0 LINE",
"169 387 LINE",
"169 500 LINE",
"7 500 LINE"
);
},
{
closed = 1;
nodes = (
"19 168 LINE",
"120 71 LINE",
"464 500 LINE",
"285 500 LINE"
);
},
{
closed = 1;
nodes = (
"285 500 LINE SMOOTH",
"285 500 OFFCURVE",
"285 500 OFFCURVE",
"285 500 CURVE SMOOTH",
"143 316 OFFCURVE",
"141 241 OFFCURVE",
"106 266 CURVE SMOOTH",
"73 290 OFFCURVE",
"169 350 OFFCURVE",
"169 384 CURVE SMOOTH",
"169 500 LINE SMOOTH",
"169 500 OFFCURVE",
"169 500 OFFCURVE",
"169 500 CURVE SMOOTH",
"57 500 LINE SMOOTH",
"57 500 OFFCURVE",
"57 500 OFFCURVE",
"57 500 CURVE SMOOTH",
"57 110 LINE SMOOTH",
"57 110 OFFCURVE",
"57 110 OFFCURVE",
"57 110 CURVE SMOOTH",
"169 110 LINE SMOOTH",
"169 110 OFFCURVE",
"165 155 OFFCURVE",
"167 186 CURVE SMOOTH",
"169 212 LINE SMOOTH",
"169 212 OFFCURVE",
"169 212 OFFCURVE",
"169 212 CURVE SMOOTH",
"414 500 LINE SMOOTH",
"414 500 OFFCURVE",
"414 500 OFFCURVE",
"414 500 CURVE SMOOTH"
);
}
);
};
layerId = "AE1D8926-5567-49DA-BD70-2B3F58F2E15A";
name = "{200}";
paths = (
{
closed = 1;
nodes = (
"418 500 LINE SMOOTH",
"399 500 OFFCURVE",
"383 494 OFFCURVE",
"371 477 CURVE SMOOTH",
"342 442 OFFCURVE",
"315 408 OFFCURVE",
"306 396 CURVE SMOOTH",
"272 353 OFFCURVE",
"240 379 OFFCURVE",
"240 428 CURVE SMOOTH",
"240 462 LINE SMOOTH",
"240 486 OFFCURVE",
"226 500 OFFCURVE",
"201 500 CURVE SMOOTH",
"135 500 LINE SMOOTH",
"110 500 OFFCURVE",
"96 486 OFFCURVE",
"96 462 CURVE SMOOTH",
"96 38 LINE SMOOTH",
"96 14 OFFCURVE",
"110 0 OFFCURVE",
"135 0 CURVE SMOOTH",
"201 0 LINE SMOOTH",
"226 0 OFFCURVE",
"240 14 OFFCURVE",
"240 38 CURVE SMOOTH",
"240 104 LINE SMOOTH",
"240 123 OFFCURVE",
"243 136 OFFCURVE",
"257 151 CURVE SMOOTH",
"517 453 LINE SMOOTH",
"538 477 OFFCURVE",
"526 500 OFFCURVE",
"494 500 CURVE SMOOTH"
);
}
);
width = 601;
},
{
associatedMasterId = "87BE50FD-B083-4EB3-9928-F89871FBC1E0";
background = {
paths = (
{
closed = 1;
nodes = (
"285 500 LINE",
"169 355 LINE",
"169 500 LINE",
"7 500 LINE",
"7 0 LINE",
"169 0 LINE",
"169 132 LINE",
"464 500 LINE"
);
},
{
closed = 1;
nodes = (
"358 500 LINE",
"329 500 LINE",
"308 500 LINE SMOOTH",
"273 500 OFFCURVE",
"291 507 OFFCURVE",
"271 482 CURVE SMOOTH",
"267 478 OFFCURVE",
"264 473 OFFCURVE",
"259 467 CURVE SMOOTH",
"237 438 OFFCURVE",
"205 410 OFFCURVE",
"161 312 CURVE SMOOTH",
"161 312 OFFCURVE",
"147 315 OFFCURVE",
"147 315 CURVE SMOOTH",
"167 452 LINE",
"169 470 LINE SMOOTH",
"175 519 OFFCURVE",
"188 500 OFFCURVE",
"139 500 CURVE SMOOTH",
"114 500 LINE",
"104 500 LINE",
"87 500 LINE SMOOTH",
"28 500 OFFCURVE",
"57 519 OFFCURVE",
"57 470 CURVE SMOOTH",
"57 456 LINE",
"57 160 LINE",
"57 140 LINE SMOOTH",
"57 91 OFFCURVE",
"38 110 OFFCURVE",
"87 110 CURVE SMOOTH",
"103 110 LINE",
"120 110 LINE",
"139 110 LINE SMOOTH",
"198 110 OFFCURVE",
"169 91 OFFCURVE",
"169 140 CURVE SMOOTH",
"169 161 LINE",
"169 201 LINE SMOOTH",
"169 216 OFFCURVE",
"172 227 OFFCURVE",
"182 238 CURVE SMOOTH",
"383 448 LINE",
"395 463 LINE SMOOTH",
"435 513 OFFCURVE",
"452 500 OFFCURVE",
"377 500 CURVE SMOOTH"
);
}
);
};
layerId = "82B170E6-8F2A-4546-96F3-C0960BA15893";
name = "{600}";
paths = (
{
closed = 1;
nodes = (
"389 500 LINE SMOOTH",
"389 500 OFFCURVE",
"389 500 OFFCURVE",
"389 500 CURVE SMOOTH",
"206 264 OFFCURVE",
"297 99 OFFCURVE",
"159 199 CURVE SMOOTH",
"50 279 OFFCURVE",
"240 307 OFFCURVE",
"240 351 CURVE SMOOTH",
"240 500 LINE SMOOTH",
"240 500 OFFCURVE",
"240 500 OFFCURVE",
"240 500 CURVE SMOOTH",
"96 500 LINE SMOOTH",
"96 500 OFFCURVE",
"96 500 OFFCURVE",
"96 500 CURVE SMOOTH",
"96 0 LINE SMOOTH",
"96 0 OFFCURVE",
"96 0 OFFCURVE",
"96 0 CURVE SMOOTH",
"240 0 LINE SMOOTH",
"240 0 OFFCURVE",
"234 58 OFFCURVE",
"237 97 CURVE SMOOTH",
"240 131 LINE SMOOTH",
"240 131 OFFCURVE",
"240 131 OFFCURVE",
"240 131 CURVE SMOOTH",
"554 500 LINE SMOOTH",
"554 500 OFFCURVE",
"554 500 OFFCURVE",
"554 500 CURVE SMOOTH"
);
}
);
width = 601;
},
{
associatedMasterId = "9D15E9AA-FCC6-4A1A-804C-B0422A1CAE65";
background = {
paths = (
{
closed = 1;
nodes = (
"7 0 LINE",
"169 0 LINE",
"169 387 LINE",
"169 500 LINE",
"7 500 LINE"
);
},
{
closed = 1;
nodes = (
"19 168 LINE",
"120 71 LINE",
"464 500 LINE",
"285 500 LINE"
);
},
{
closed = 1;
nodes = (
"285 500 LINE SMOOTH",
"285 500 OFFCURVE",
"285 500 OFFCURVE",
"285 500 CURVE SMOOTH",
"143 316 OFFCURVE",
"141 241 OFFCURVE",
"106 266 CURVE SMOOTH",
"73 290 OFFCURVE",
"169 350 OFFCURVE",
"169 384 CURVE SMOOTH",
"169 500 LINE SMOOTH",
"169 500 OFFCURVE",
"169 500 OFFCURVE",
"169 500 CURVE SMOOTH",
"57 500 LINE SMOOTH",
"57 500 OFFCURVE",
"57 500 OFFCURVE",
"57 500 CURVE SMOOTH",
"57 110 LINE SMOOTH",
"57 110 OFFCURVE",
"57 110 OFFCURVE",
"57 110 CURVE SMOOTH",
"169 110 LINE SMOOTH",
"169 110 OFFCURVE",
"165 155 OFFCURVE",
"167 186 CURVE SMOOTH",
"169 212 LINE SMOOTH",
"169 212 OFFCURVE",
"169 212 OFFCURVE",
"169 212 CURVE SMOOTH",
"414 500 LINE SMOOTH",
"414 500 OFFCURVE",
"414 500 OFFCURVE",
"414 500 CURVE SMOOTH"
);
}
);
};
layerId = "992F4DE6-EE43-42D6-8183-17E37D522DA6";
name = "{400}";
paths = (
{
closed = 1;
nodes = (
"433 500 LINE SMOOTH",
"399 500 OFFCURVE",
"372 479 OFFCURVE",
"352 454 CURVE SMOOTH",
"277 362 OFFCURVE",
"226 196 OFFCURVE",
"118 113 CURVE",
"137 181 OFFCURVE",
"240 293 OFFCURVE",
"240 390 CURVE SMOOTH",
"240 423 LINE SMOOTH",
"240 456 OFFCURVE",
"226 500 OFFCURVE",
"172 500 CURVE SMOOTH",
"164 500 LINE SMOOTH",
"110 500 OFFCURVE",
"96 456 OFFCURVE",
"96 423 CURVE SMOOTH",
"96 77 LINE SMOOTH",
"96 44 OFFCURVE",
"110 0 OFFCURVE",
"164 0 CURVE SMOOTH",
"172 0 LINE SMOOTH",
"226 0 OFFCURVE",
"240 44 OFFCURVE",
"240 77 CURVE SMOOTH",
"240 78 LINE SMOOTH",
"240 136 OFFCURVE",
"244 137 OFFCURVE",
"272 171 CURVE SMOOTH",
"485 429 LINE SMOOTH",
"506 455 OFFCURVE",
"500 500 OFFCURVE",
"434 500 CURVE SMOOTH"
);
}
);
width = 601;
},
{
associatedMasterId = "9D15E9AA-FCC6-4A1A-804C-B0422A1CAE65";
background = {
paths = (
{
closed = 1;
nodes = (
"7 0 LINE",
"169 0 LINE",
"169 387 LINE",
"169 500 LINE",
"7 500 LINE"
);
},
{
closed = 1;
nodes = (
"19 168 LINE",
"120 71 LINE",
"464 500 LINE",
"285 500 LINE"
);
},
{
closed = 1;
nodes = (
"285 500 LINE SMOOTH",
"285 500 OFFCURVE",
"285 500 OFFCURVE",
"285 500 CURVE SMOOTH",
"143 316 OFFCURVE",
"141 241 OFFCURVE",
"106 266 CURVE SMOOTH",
"73 290 OFFCURVE",
"169 350 OFFCURVE",
"169 384 CURVE SMOOTH",
"169 500 LINE SMOOTH",
"169 500 OFFCURVE",
"169 500 OFFCURVE",
"169 500 CURVE SMOOTH",
"57 500 LINE SMOOTH",
"57 500 OFFCURVE",
"57 500 OFFCURVE",
"57 500 CURVE SMOOTH",
"57 110 LINE SMOOTH",
"57 110 OFFCURVE",
"57 110 OFFCURVE",
"57 110 CURVE SMOOTH",
"169 110 LINE SMOOTH",
"169 110 OFFCURVE",
"165 155 OFFCURVE",
"167 186 CURVE SMOOTH",
"169 212 LINE SMOOTH",
"169 212 OFFCURVE",
"169 212 OFFCURVE",
"169 212 CURVE SMOOTH",
"414 500 LINE SMOOTH",
"414 500 OFFCURVE",
"414 500 OFFCURVE",
"414 500 CURVE SMOOTH"
);
}
);
};
layerId = "9FEE8779-88F9-40A3-A17A-10434C70C0AD";
name = "{800}";
paths = (
{
closed = 1;
nodes = (
"418 500 LINE SMOOTH",
"373 500 OFFCURVE",
"389 512 OFFCURVE",
"371 477 CURVE SMOOTH",
"353 442 OFFCURVE",
"332 383 OFFCURVE",
"264 233 CURVE SMOOTH",
"264 233 OFFCURVE",
"163 237 OFFCURVE",
"163 237 CURVE SMOOTH",
"240 462 LINE SMOOTH",
"260 522 OFFCURVE",
"264 500 OFFCURVE",
"201 500 CURVE SMOOTH",
"135 500 LINE SMOOTH",
"59 500 OFFCURVE",
"95 524 OFFCURVE",
"95 462 CURVE SMOOTH",
"96 38 LINE SMOOTH",
"96 -24 OFFCURVE",
"72 0 OFFCURVE",
"135 0 CURVE SMOOTH",
"201 0 LINE SMOOTH",
"277 0 OFFCURVE",
"240 -24 OFFCURVE",
"240 38 CURVE SMOOTH",
"240 104 LINE SMOOTH",
"240 123 OFFCURVE",
"243 136 OFFCURVE",
"257 151 CURVE SMOOTH",
"517 453 LINE SMOOTH",
"570 514 OFFCURVE",
"590 500 OFFCURVE",
"494 500 CURVE SMOOTH"
);
}
);
width = 601;
},
{
associatedMasterId = "9D15E9AA-FCC6-4A1A-804C-B0422A1CAE65";
background = {
paths = (
{
closed = 1;
nodes = (
"7 0 LINE",
"169 0 LINE",
"169 387 LINE",
"169 500 LINE",
"7 500 LINE"
);
},
{
closed = 1;
nodes = (
"19 168 LINE",
"120 71 LINE",
"464 500 LINE",
"285 500 LINE"
);
},
{
closed = 1;
nodes = (
"285 500 LINE SMOOTH",
"285 500 OFFCURVE",
"285 500 OFFCURVE",
"285 500 CURVE SMOOTH",
"143 316 OFFCURVE",
"141 241 OFFCURVE",
"106 266 CURVE SMOOTH",
"73 290 OFFCURVE",
"169 350 OFFCURVE",
"169 384 CURVE SMOOTH",
"169 500 LINE SMOOTH",
"169 500 OFFCURVE",
"169 500 OFFCURVE",
"169 500 CURVE SMOOTH",
"57 500 LINE SMOOTH",
"57 500 OFFCURVE",
"57 500 OFFCURVE",
"57 500 CURVE SMOOTH",
"57 110 LINE SMOOTH",
"57 110 OFFCURVE",
"57 110 OFFCURVE",
"57 110 CURVE SMOOTH",
"169 110 LINE SMOOTH",
"169 110 OFFCURVE",
"165 155 OFFCURVE",
"167 186 CURVE SMOOTH",
"169 212 LINE SMOOTH",
"169 212 OFFCURVE",
"169 212 OFFCURVE",
"169 212 CURVE SMOOTH",
"414 500 LINE SMOOTH",
"414 500 OFFCURVE",
"414 500 OFFCURVE",
"414 500 CURVE SMOOTH"
);
}
);
};
layerId = "DA5BB255-EDFF-4C7B-B4DA-961583FB3501";
name = "{900}";
paths = (
{
closed = 1;
nodes = (
"448 486 LINE",
"431 486 LINE",
"408 494 LINE SMOOTH",
"300 532 OFFCURVE",
"343 525 OFFCURVE",
"351 466 CURVE SMOOTH",
"352 461 OFFCURVE",
"347 452 OFFCURVE",
"343 445 CURVE SMOOTH",
"323 410 OFFCURVE",
"300 360 OFFCURVE",
"242 233 CURVE SMOOTH",
"242 233 OFFCURVE",
"173 237 OFFCURVE",
"173 237 CURVE SMOOTH",
"231 423 LINE",
"240 448 LINE SMOOTH",
"269 529 OFFCURVE",
"322 540 OFFCURVE",
"201 494 CURVE SMOOTH",
"180 486 LINE",
"160 486 LINE",
"135 494 LINE SMOOTH",
"1 537 OFFCURVE",
"65 532 OFFCURVE",
"89 448 CURVE SMOOTH",
"96 423 LINE",
"96 75 LINE",
"89 50 LINE SMOOTH",
"66 -32 OFFCURVE",
"10 -32 OFFCURVE",
"135 5 CURVE SMOOTH",
"155 11 LINE",
"176 11 LINE",
"201 6 LINE SMOOTH",
"335 -21 OFFCURVE",
"291 -30 OFFCURVE",
"253 50 CURVE SMOOTH",
"240 77 LINE",
"240 77 LINE SMOOTH",
"240 134 OFFCURVE",
"244 136 OFFCURVE",
"257 151 CURVE SMOOTH",
"480 422 LINE",
"499 439 LINE SMOOTH",
"588 518 OFFCURVE",
"609 535 OFFCURVE",
"471 493 CURVE SMOOTH"
);
}
);
width = 601;
},
{
associatedMasterId = "9D15E9AA-FCC6-4A1A-804C-B0422A1CAE65";
background = {
paths = (
{
closed = 1;
nodes = (
"7 0 LINE",
"169 0 LINE",
"169 387 LINE",
"169 500 LINE",
"7 500 LINE"
);
},
{
closed = 1;
nodes = (
"19 168 LINE",
"120 71 LINE",
"464 500 LINE",
"285 500 LINE"
);
},
{
closed = 1;
nodes = (
"285 500 LINE SMOOTH",
"285 500 OFFCURVE",
"285 500 OFFCURVE",
"285 500 CURVE SMOOTH",
"143 316 OFFCURVE",
"141 241 OFFCURVE",
"106 266 CURVE SMOOTH",
"73 290 OFFCURVE",
"169 350 OFFCURVE",
"169 384 CURVE SMOOTH",
"169 500 LINE SMOOTH",
"169 500 OFFCURVE",
"169 500 OFFCURVE",
"169 500 CURVE SMOOTH",
"57 500 LINE SMOOTH",
"57 500 OFFCURVE",
"57 500 OFFCURVE",
"57 500 CURVE SMOOTH",
"57 110 LINE SMOOTH",
"57 110 OFFCURVE",
"57 110 OFFCURVE",
"57 110 CURVE SMOOTH",
"169 110 LINE SMOOTH",
"169 110 OFFCURVE",
"165 155 OFFCURVE",
"167 186 CURVE SMOOTH",
"169 212 LINE SMOOTH",
"169 212 OFFCURVE",
"169 212 OFFCURVE",
"169 212 CURVE SMOOTH",
"414 500 LINE SMOOTH",
"414 500 OFFCURVE",
"414 500 OFFCURVE",
"414 500 CURVE SMOOTH"
);
}
);
};
layerId = "C3EE3DDC-B910-4A74-8762-731A09A5C61A";
name = "{801}";
paths = (
{
closed = 1;
nodes = (
"469 500 LINE",
"445 500 LINE",
"418 500 LINE SMOOTH",
"373 500 OFFCURVE",
"389 515 OFFCURVE",
"371 477 CURVE SMOOTH",
"368 472 OFFCURVE",
"364 463 OFFCURVE",
"355 444 CURVE SMOOTH",
"342 417 OFFCURVE",
"312 359 OFFCURVE",
"268 233 CURVE SMOOTH",
"268 233 OFFCURVE",
"160 237 OFFCURVE",
"160 237 CURVE SMOOTH",
"231 438 LINE",
"240 462 LINE SMOOTH",
"262 519 OFFCURVE",
"264 500 OFFCURVE",
"201 500 CURVE SMOOTH",
"169 500 LINE",
"157 500 LINE",
"135 500 LINE SMOOTH",
"59 500 OFFCURVE",
"96 524 OFFCURVE",
"96 462 CURVE SMOOTH",
"96 444 LINE",
"96 64 LINE",
"96 38 LINE SMOOTH",
"96 -24 OFFCURVE",
"72 0 OFFCURVE",
"135 0 CURVE SMOOTH",
"155 0 LINE",
"177 0 LINE",
"201 0 LINE SMOOTH",
"277 0 OFFCURVE",
"240 -24 OFFCURVE",
"240 38 CURVE SMOOTH",
"240 65 LINE",
"240 91 LINE SMOOTH",
"240 110 OFFCURVE",
"244 137 OFFCURVE",
"257 151 CURVE SMOOTH",
"501 433 LINE",
"517 453 LINE SMOOTH",
"568 517 OFFCURVE",
"590 500 OFFCURVE",
"494 500 CURVE SMOOTH"
);
}
);
width = 601;
}
);
},
{
export = 0;
glyphname = o.contrast.003;
lastChange = "2017-04-25 15:25:50 +0000";
layers = (
{
background = {
paths = (
{
closed = 1;
nodes = (
"57 100 OFFCURVE",
"160 -10 OFFCURVE",
"301 -10 CURVE SMOOTH",
"442 -10 OFFCURVE",
"544 100 OFFCURVE",
"544 252 CURVE SMOOTH",
"544 401 OFFCURVE",
"442 510 OFFCURVE",
"301 510 CURVE",
"160 510 OFFCURVE",
"57 401 OFFCURVE",
"57 252 CURVE SMOOTH"
);
},
{
closed = 1;
nodes = (
"264 164 OFFCURVE",
"237 200 OFFCURVE",
"237 250 CURVE SMOOTH",
"237 303 OFFCURVE",
"264 342 OFFCURVE",
"301 342 CURVE SMOOTH",
"338 342 OFFCURVE",
"364 303 OFFCURVE",
"364 250 CURVE SMOOTH",
"364 200 OFFCURVE",
"338 164 OFFCURVE",
"301 164 CURVE SMOOTH"
);
}
);
};
layerId = "87BE50FD-B083-4EB3-9928-F89871FBC1E0";
paths = (
{
closed = 1;
nodes = (
"57 100 OFFCURVE",
"160 -10 OFFCURVE",
"301 -10 CURVE SMOOTH",
"442 -10 OFFCURVE",
"544 100 OFFCURVE",
"544 252 CURVE SMOOTH",
"544 401 OFFCURVE",
"442 510 OFFCURVE",
"301 510 CURVE",
"160 510 OFFCURVE",
"57 401 OFFCURVE",
"57 252 CURVE SMOOTH"
);
},
{
closed = 1;
nodes = (
"261 9 OFFCURVE",
"231 110 OFFCURVE",
"230 250 CURVE SMOOTH",
"231 391 OFFCURVE",
"261 492 OFFCURVE",
"300 492 CURVE SMOOTH",
"340 492 OFFCURVE",
"371 391 OFFCURVE",
"370 250 CURVE SMOOTH",
"371 110 OFFCURVE",
"340 9 OFFCURVE",
"300 9 CURVE SMOOTH"
);
}
);
width = 600;
},
{
layerId = "9D15E9AA-FCC6-4A1A-804C-B0422A1CAE65";
paths = (
{
closed = 1;
nodes = (
"57 100 OFFCURVE",
"160 -10 OFFCURVE",
"301 -10 CURVE SMOOTH",
"442 -10 OFFCURVE",
"544 100 OFFCURVE",
"544 252 CURVE SMOOTH",
"544 401 OFFCURVE",
"442 510 OFFCURVE",
"301 510 CURVE",
"160 510 OFFCURVE",
"57 401 OFFCURVE",
"57 252 CURVE SMOOTH"
);
},
{
closed = 1;
nodes = (
"261 9 OFFCURVE",
"231 110 OFFCURVE",
"230 250 CURVE SMOOTH",
"231 391 OFFCURVE",
"261 492 OFFCURVE",
"300 492 CURVE SMOOTH",
"340 492 OFFCURVE",
"371 391 OFFCURVE",
"370 250 CURVE SMOOTH",
"371 110 OFFCURVE",
"340 9 OFFCURVE",
"300 9 CURVE SMOOTH"
);
}
);
width = 600;
},
{
associatedMasterId = "87BE50FD-B083-4EB3-9928-F89871FBC1E0";
background = {
paths = (
{
closed = 1;
nodes = (
"57 100 OFFCURVE",
"160 -10 OFFCURVE",
"301 -10 CURVE SMOOTH",
"442 -10 OFFCURVE",
"544 100 OFFCURVE",
"544 252 CURVE SMOOTH",
"544 401 OFFCURVE",
"442 510 OFFCURVE",
"301 510 CURVE",
"160 510 OFFCURVE",
"57 401 OFFCURVE",
"57 252 CURVE SMOOTH"
);
},
{
closed = 1;
nodes = (
"264 164 OFFCURVE",
"237 200 OFFCURVE",
"237 250 CURVE SMOOTH",
"237 303 OFFCURVE",
"264 342 OFFCURVE",
"301 342 CURVE SMOOTH",
"338 342 OFFCURVE",
"364 303 OFFCURVE",
"364 250 CURVE SMOOTH",
"364 200 OFFCURVE",
"338 164 OFFCURVE",
"301 164 CURVE SMOOTH"
);
}
);
};
layerId = "B343C26F-F3FD-40FD-8564-468815548331";
name = "{50}";
paths = (
{
closed = 1;
nodes = (
"57 100 OFFCURVE",
"160 -10 OFFCURVE",
"301 -10 CURVE SMOOTH",
"442 -10 OFFCURVE",
"544 100 OFFCURVE",
"544 252 CURVE SMOOTH",
"544 401 OFFCURVE",
"442 510 OFFCURVE",
"301 510 CURVE",
"160 510 OFFCURVE",
"57 401 OFFCURVE",
"57 252 CURVE SMOOTH"
);
},
{
closed = 1;
nodes = (
"239 10 OFFCURVE",
"200 108 OFFCURVE",
"200 249 CURVE SMOOTH",
"200 389 OFFCURVE",
"239 491 OFFCURVE",
"300 491 CURVE SMOOTH",
"361 491 OFFCURVE",
"401 389 OFFCURVE",
"401 249 CURVE SMOOTH",
"401 108 OFFCURVE",
"361 10 OFFCURVE",
"300 10 CURVE SMOOTH"
);
}
);
width = 600;
},
{
associatedMasterId = "87BE50FD-B083-4EB3-9928-F89871FBC1E0";
background = {
paths = (
{
closed = 1;
nodes = (
"57 100 OFFCURVE",
"160 -10 OFFCURVE",
"301 -10 CURVE SMOOTH",
"442 -10 OFFCURVE",
"544 100 OFFCURVE",
"544 252 CURVE SMOOTH",
"544 401 OFFCURVE",
"442 510 OFFCURVE",
"301 510 CURVE",
"160 510 OFFCURVE",
"57 401 OFFCURVE",
"57 252 CURVE SMOOTH"
);
},
{
closed = 1;
nodes = (
"264 164 OFFCURVE",
"237 200 OFFCURVE",
"237 250 CURVE SMOOTH",
"237 303 OFFCURVE",
"264 342 OFFCURVE",
"301 342 CURVE SMOOTH",
"338 342 OFFCURVE",
"364 303 OFFCURVE",
"364 250 CURVE SMOOTH",
"364 200 OFFCURVE",
"338 164 OFFCURVE",
"301 164 CURVE SMOOTH"
);
}
);
};
layerId = "6715D2F3-D9D8-4813-8981-0ED88044EFFB";
name = "{500}";
paths = (
{
closed = 1;
nodes = (
"57 100 OFFCURVE",
"160 -10 OFFCURVE",
"301 -10 CURVE SMOOTH",
"442 -10 OFFCURVE",
"544 100 OFFCURVE",
"544 252 CURVE SMOOTH",
"544 401 OFFCURVE",
"442 510 OFFCURVE",
"301 510 CURVE",
"160 510 OFFCURVE",
"57 401 OFFCURVE",
"57 252 CURVE SMOOTH"
);
},
{
closed = 1;
nodes = (
"239 113 OFFCURVE",
"200 169 OFFCURVE",
"200 249 CURVE SMOOTH",
"200 331 OFFCURVE",
"239 391 OFFCURVE",
"300 391 CURVE SMOOTH",
"361 391 OFFCURVE",
"401 331 OFFCURVE",
"401 249 CURVE SMOOTH",
"401 169 OFFCURVE",
"361 113 OFFCURVE",
"300 113 CURVE SMOOTH"
);
}
);
width = 600;
}
);
},
{
export = 0;
glyphname = n.003;
lastChange = "2017-04-25 15:25:50 +0000";
layers = (
{
background = {
paths = (
{
closed = 0;
nodes = (
"586 184 LINE",
"490 -19 LINE",
"439 2 LINE",
"519 436 LINE",
"363 515 LINE",
"89 0 LINE"
);
},
{
closed = 0;
nodes = (
"89 0 LINE",
"169 492 LINE",
"113 510 LINE",
"3 322 LINE"
);
}
);
};
layerId = "87BE50FD-B083-4EB3-9928-F89871FBC1E0";
paths = (
{
closed = 1;
nodes = (
"409 2 LINE",
"519 2 LINE",
"519 2 LINE",
"519 2 LINE",
"519 424 LINE",
"354 516 LINE",
"118 410 LINE",
"140 366 LINE",
"343 450 LINE",
"409 411 LINE",
"409 2 LINE",
"409 2 LINE"
);
},
{
closed = 1;
nodes = (
"199 500 LINE",
"199 500 LINE",
"199 500 LINE",
"89 500 LINE",
"89 500 LINE",
"89 500 LINE",
"89 0 LINE",
"199 0 LINE"
);
}
);
width = 600;
},
{
layerId = "9D15E9AA-FCC6-4A1A-804C-B0422A1CAE65";
paths = (
{
closed = 1;
nodes = (
"609 193 LINE",
"569 215 LINE",
"503 105 LINE",
"449 130 LINE",
"550 428 LINE",
"402 518 LINE",
"126 63 LINE",
"131 -12 LINE",
"367 369 LINE",
"455 309 LINE",
"361 17 LINE",
"492 -21 LINE"
);
},
{
closed = 1;
nodes = (
"243 471 LINE",
"132 512 LINE",
"21 335 LINE",
"65 309 LINE",
"108 374 LINE",
"156 353 LINE",
"84 4 LINE",
"131 -12 LINE"
);
}
);
width = 600;
},
{
associatedMasterId = "87BE50FD-B083-4EB3-9928-F89871FBC1E0";
background = {
paths = (
{
closed = 0;
nodes = (
"479 2 LINE",
"479 2 LINE",
"479 2 LINE",
"479 436 LINE",
"324 515 LINE",
"129 415 LINE"
);
},
{
closed = 0;
nodes = (
"129 0 LINE",
"129 500 LINE",
"129 500 LINE",
"129 500 LINE"
);
}
);
};
layerId = "465DAEEC-F517-4D2D-B6C7-5E99749133F2";
name = "{500}";
paths = (
{
closed = 1;
nodes = (
"550 23 LINE",
"540 60 LINE",
"474 45 LINE",
"486 29 LINE",
"525 421 LINE",
"335 518 LINE",
"104 223 LINE",
"151 193 LINE",
"338 434 LINE",
"452 375 LINE",
"414 15 LINE",
"437 -18 LINE"
);
},
{
closed = 1;
nodes = (
"195 485 LINE",
"163 516 LINE",
"53 469 LINE",
"66 435 LINE",
"134 456 LINE",
"123 467 LINE",
"83 2 LINE",
"154 -1 LINE"
);
}
);
width = 600;
},
{
associatedMasterId = "87BE50FD-B083-4EB3-9928-F89871FBC1E0";
background = {
paths = (
{
closed = 0;
nodes = (
"540 16 LINE",
"465 -6 LINE",
"459 2 LINE",
"499 436 LINE",
"344 515 LINE",
"125 208 LINE"
);
},
{
closed = 0;
nodes = (
"109 0 LINE",
"149 496 LINE",
"139 506 LINE",
"64 477 LINE"
);
}
);
};
layerId = "CA7C9607-53C7-4A81-9505-ADEE3EBA7ADB";
name = "{250}";
paths = (
{
closed = 1;
nodes = (
"533 4 LINE",
"537 13 LINE",
"483 184 LINE",
"495 31 LINE",
"514 431 LINE",
"349 525 LINE",
"113 331 LINE",
"149 296 LINE",
"339 455 LINE",
"423 398 LINE",
"403 3 LINE",
"412 -8 LINE"
);
},
{
closed = 1;
nodes = (
"204 500 LINE",
"193 510 LINE",
"72 494 LINE",
"71 485 LINE",
"127 296 LINE",
"114 467 LINE",
"94 -1 LINE",
"184 -1 LINE"
);
}
);
width = 600;
},
{
associatedMasterId = "87BE50FD-B083-4EB3-9928-F89871FBC1E0";
background = {
paths = (
{
closed = 0;
nodes = (
"479 2 LINE",
"479 2 LINE",
"479 2 LINE",
"479 436 LINE",
"324 515 LINE",
"129 415 LINE"
);
},
{
closed = 0;
nodes = (
"129 0 LINE",
"129 500 LINE",
"129 500 LINE",
"129 500 LINE"
);
}
);
};
layerId = "B20C9CF6-0B07-49B6-A35C-87EBFD5DFB9B";
name = "{500}";
paths = (
{
closed = 1;
nodes = (
"550 23 LINE",
"540 60 LINE",
"474 45 LINE",
"486 29 LINE",
"525 421 LINE",
"335 518 LINE",
"104 223 LINE",
"151 193 LINE",
"338 434 LINE",
"452 375 LINE",
"414 15 LINE",
"437 -18 LINE"
);
},
{
closed = 1;
nodes = (
"195 485 LINE",
"163 516 LINE",
"53 469 LINE",
"66 435 LINE",
"134 456 LINE",
"123 467 LINE",
"83 2 LINE",
"154 -1 LINE"
);
}
);
width = 600;
},
{
associatedMasterId = "87BE50FD-B083-4EB3-9928-F89871FBC1E0";
background = {
paths = (
{
closed = 0;
nodes = (
"540 16 LINE",
"465 -6 LINE",
"459 2 LINE",
"499 436 LINE",
"344 515 LINE",
"125 208 LINE"
);
},
{
closed = 0;
nodes = (
"109 0 LINE",
"149 496 LINE",
"139 506 LINE",
"64 477 LINE"
);
}
);
};
layerId = "AEA497FA-F10D-4ED7-AEEF-374F57D44213";
name = "{250}";
paths = (
{
closed = 1;
nodes = (
"533 4 LINE",
"537 13 LINE",
"483 184 LINE",
"495 31 LINE",
"514 431 LINE",
"349 525 LINE",
"113 331 LINE",
"149 296 LINE",
"339 455 LINE",
"423 398 LINE",
"403 3 LINE",
"412 -8 LINE"
);
},
{
closed = 1;
nodes = (
"204 500 LINE",
"193 510 LINE",
"72 494 LINE",
"71 485 LINE",
"127 296 LINE",
"114 467 LINE",
"94 -1 LINE",
"184 -1 LINE"
);
}
);
width = 600;
}
);
},
{
export = 0;
glyphname = n.optical_size.001;
lastChange = "2017-04-25 15:25:50 +0000";
layers = (
{
background = {
paths = (
{
closed = 1;
nodes = (
"278 508 OFFCURVE",
"218 449 OFFCURVE",
"191 398 CURVE",
"191 405 LINE",
"191 415 OFFCURVE",
"190 493 OFFCURVE",
"191 501 CURVE",
"189 506 LINE",
"139 486 OFFCURVE",
"79 469 OFFCURVE",
"20 461 CURVE",
"20 448 LINE",
"28 448 OFFCURVE",
"87 457 OFFCURVE",
"168 482 CURVE",
"101 426 OFFCURVE",
"101 351 OFFCURVE",
"101 336 CURVE SMOOTH",
"101 145 LINE SMOOTH",
"101 110 OFFCURVE",
"102 45 OFFCURVE",
"101 16 CURVE",
"93 15 OFFCURVE",
"36 11 OFFCURVE",
"22 11 CURVE",
"22 -3 LINE",
"69 -1 OFFCURVE",
"100 0 OFFCURVE",
"145 0 CURVE SMOOTH",
"190 0 OFFCURVE",
"221 -1 OFFCURVE",
"269 -3 CURVE",
"269 11 LINE",
"255 11 OFFCURVE",
"200 15 OFFCURVE",
"121 18 CURVE",
"190 45 OFFCURVE",
"190 110 OFFCURVE",
"190 145 CURVE SMOOTH",
"190 375 LINE SMOOTH",
"190 393 OFFCURVE",
"261 492 OFFCURVE",
"351 492 CURVE SMOOTH",
"409 492 OFFCURVE",
"413 453 OFFCURVE",
"413 251 CURVE SMOOTH",
"413 145 LINE SMOOTH",
"413 110 OFFCURVE",
"413 46 OFFCURVE",
"412 18 CURVE",
"404 15 OFFCURVE",
"349 11 OFFCURVE",
"335 11 CURVE",
"335 -3 LINE",
"382 -1 OFFCURVE",
"412 0 OFFCURVE",
"457 0 CURVE SMOOTH",
"503 0 OFFCURVE",
"534 -1 OFFCURVE",
"581 -3 CURVE",
"581 11 LINE",
"567 11 OFFCURVE",
"512 15 OFFCURVE",
"434 16 CURVE",
"503 46 OFFCURVE",
"503 110 OFFCURVE",
"503 145 CURVE SMOOTH",
"503 262 LINE SMOOTH",
"503 430 OFFCURVE",
"478 508 OFFCURVE",
"365 508 CURVE SMOOTH"
);
}
);
};
layerId = "87BE50FD-B083-4EB3-9928-F89871FBC1E0";
paths = (
{
closed = 1;
nodes = (
"276 508 OFFCURVE",
"219 443 OFFCURVE",
"188 398 CURVE",
"188 405 LINE",
"188 415 OFFCURVE",
"187 493 OFFCURVE",
"188 501 CURVE",
"186 506 LINE",
"136 486 OFFCURVE",
"77 469 OFFCURVE",
"20 461 CURVE",
"20 457 LINE",
"28 457 OFFCURVE",
"84 466 OFFCURVE",
"165 489 CURVE",
"98 431 OFFCURVE",
"98 352 OFFCURVE",
"98 336 CURVE SMOOTH",
"98 145 LINE SMOOTH",
"98 107 OFFCURVE",
"98 37 OFFCURVE",
"98 6 CURVE",
"90 5 OFFCURVE",
"35 1 OFFCURVE",
"22 1 CURVE",
"22 -3 LINE",
"67 -1 OFFCURVE",
"97 0 OFFCURVE",
"142 0 CURVE SMOOTH",
"187 0 OFFCURVE",
"219 -1 OFFCURVE",
"269 -3 CURVE",
"269 1 LINE",
"254 1 OFFCURVE",
"197 5 OFFCURVE",
"118 8 CURVE",
"187 37 OFFCURVE",
"187 107 OFFCURVE",
"187 145 CURVE SMOOTH",
"187 378 LINE SMOOTH",
"187 396 OFFCURVE",
"259 500 OFFCURVE",
"351 500 CURVE SMOOTH",
"412 500 OFFCURVE",
"416 459 OFFCURVE",
"416 251 CURVE SMOOTH",
"416 145 LINE SMOOTH",
"416 107 OFFCURVE",
"416 38 OFFCURVE",
"415 8 CURVE",
"407 5 OFFCURVE",
"349 1 OFFCURVE",
"335 1 CURVE",
"335 -3 LINE",
"385 -1 OFFCURVE",
"415 0 OFFCURVE",
"460 0 CURVE SMOOTH",
"506 0 OFFCURVE",
"535 -1 OFFCURVE",
"581 -3 CURVE",
"581 1 LINE",
"567 1 OFFCURVE",
"515 5 OFFCURVE",
"437 6 CURVE",
"506 38 OFFCURVE",
"506 107 OFFCURVE",
"506 145 CURVE SMOOTH",
"506 262 LINE SMOOTH",
"506 430 OFFCURVE",
"480 508 OFFCURVE",
"365 508 CURVE SMOOTH"
);
}
);
width = 601;
},
{
background = {
paths = (
{
closed = 1;
nodes = (
"277 508 OFFCURVE",
"219 449 OFFCURVE",
"190 398 CURVE",
"190 405 LINE",
"190 415 OFFCURVE",
"189 493 OFFCURVE",
"190 501 CURVE",
"188 506 LINE",
"138 486 OFFCURVE",
"78 469 OFFCURVE",
"19 461 CURVE",
"19 466 LINE",
"27 406 OFFCURVE",
"86 414 OFFCURVE",
"177 434 CURVE",
"100 403 OFFCURVE",
"100 351 OFFCURVE",
"100 336 CURVE SMOOTH",
"100 145 LINE SMOOTH",
"100 120 OFFCURVE",
"101 85 OFFCURVE",
"100 56 CURVE",
"92 55 OFFCURVE",
"35 51 OFFCURVE",
"21 51 CURVE",
"21 -3 LINE",
"68 -1 OFFCURVE",
"99 0 OFFCURVE",
"144 0 CURVE SMOOTH",
"189 0 OFFCURVE",
"210 -1 OFFCURVE",
"258 -3 CURVE",
"258 1 LINE",
"244 51 OFFCURVE",
"199 55 OFFCURVE",
"110 58 CURVE",
"189 65 OFFCURVE",
"189 100 OFFCURVE",
"189 145 CURVE SMOOTH",
"189 389 LINE SMOOTH",
"189 392 OFFCURVE",
"272 435 OFFCURVE",
"329 435 CURVE SMOOTH",
"390 435 OFFCURVE",
"412 405 OFFCURVE",
"412 251 CURVE SMOOTH",
"412 145 LINE SMOOTH",
"412 110 OFFCURVE",
"412 86 OFFCURVE",
"411 58 CURVE",
"403 55 OFFCURVE",
"358 51 OFFCURVE",
"344 51 CURVE",
"344 -3 LINE",
"391 -1 OFFCURVE",
"411 0 OFFCURVE",
"456 0 CURVE SMOOTH",
"502 0 OFFCURVE",
"533 -1 OFFCURVE",
"580 -3 CURVE",
"580 1 LINE",
"566 51 OFFCURVE",
"511 55 OFFCURVE",
"423 56 CURVE",
"502 66 OFFCURVE",
"502 88 OFFCURVE",
"502 145 CURVE SMOOTH",
"502 262 LINE SMOOTH",
"502 430 OFFCURVE",
"477 508 OFFCURVE",
"364 508 CURVE SMOOTH"
);
}
);
};
layerId = "9D15E9AA-FCC6-4A1A-804C-B0422A1CAE65";
paths = (
{
closed = 1;
nodes = (
"276 508 OFFCURVE",
"219 443 OFFCURVE",
"188 398 CURVE",
"188 405 LINE",
"188 415 OFFCURVE",
"187 493 OFFCURVE",
"188 501 CURVE",
"186 506 LINE",
"136 486 OFFCURVE",
"77 469 OFFCURVE",
"20 461 CURVE",
"20 457 LINE",
"28 457 OFFCURVE",
"84 466 OFFCURVE",
"165 489 CURVE",
"98 431 OFFCURVE",
"98 352 OFFCURVE",
"98 336 CURVE SMOOTH",
"98 145 LINE SMOOTH",
"98 107 OFFCURVE",
"98 37 OFFCURVE",
"98 6 CURVE",
"90 5 OFFCURVE",
"35 1 OFFCURVE",
"22 1 CURVE",
"22 -3 LINE",
"67 -1 OFFCURVE",
"97 0 OFFCURVE",
"142 0 CURVE SMOOTH",
"187 0 OFFCURVE",
"219 -1 OFFCURVE",
"269 -3 CURVE",
"269 1 LINE",
"254 1 OFFCURVE",
"197 5 OFFCURVE",
"118 8 CURVE",
"187 37 OFFCURVE",
"187 107 OFFCURVE",
"187 145 CURVE SMOOTH",
"187 378 LINE SMOOTH",
"187 396 OFFCURVE",
"259 500 OFFCURVE",
"351 500 CURVE SMOOTH",
"412 500 OFFCURVE",
"416 459 OFFCURVE",
"416 251 CURVE SMOOTH",
"416 145 LINE SMOOTH",
"416 107 OFFCURVE",
"416 38 OFFCURVE",
"415 8 CURVE",
"407 5 OFFCURVE",
"349 1 OFFCURVE",
"335 1 CURVE",
"335 -3 LINE",
"385 -1 OFFCURVE",
"415 0 OFFCURVE",
"460 0 CURVE SMOOTH",
"506 0 OFFCURVE",
"535 -1 OFFCURVE",
"581 -3 CURVE",
"581 1 LINE",
"567 1 OFFCURVE",
"515 5 OFFCURVE",
"437 6 CURVE",
"506 38 OFFCURVE",
"506 107 OFFCURVE",
"506 145 CURVE SMOOTH",
"506 262 LINE SMOOTH",
"506 430 OFFCURVE",
"480 508 OFFCURVE",
"365 508 CURVE SMOOTH"
);
}
);
width = 601;
},
{
associatedMasterId = "87BE50FD-B083-4EB3-9928-F89871FBC1E0";
background = {
paths = (
{
closed = 1;
nodes = (
"278 508 OFFCURVE",
"218 449 OFFCURVE",
"191 398 CURVE",
"191 405 LINE",
"191 415 OFFCURVE",
"190 493 OFFCURVE",
"191 501 CURVE",
"189 506 LINE",
"139 486 OFFCURVE",
"79 469 OFFCURVE",
"20 461 CURVE",
"20 448 LINE",
"28 448 OFFCURVE",
"87 457 OFFCURVE",
"168 482 CURVE",
"101 426 OFFCURVE",
"101 351 OFFCURVE",
"101 336 CURVE SMOOTH",
"101 145 LINE SMOOTH",
"101 110 OFFCURVE",
"102 45 OFFCURVE",
"101 16 CURVE",
"93 15 OFFCURVE",
"36 11 OFFCURVE",
"22 11 CURVE",
"22 -3 LINE",
"69 -1 OFFCURVE",
"100 0 OFFCURVE",
"145 0 CURVE SMOOTH",
"190 0 OFFCURVE",
"221 -1 OFFCURVE",
"269 -3 CURVE",
"269 11 LINE",
"255 11 OFFCURVE",
"200 15 OFFCURVE",
"121 18 CURVE",
"190 45 OFFCURVE",
"190 110 OFFCURVE",
"190 145 CURVE SMOOTH",
"190 375 LINE SMOOTH",
"190 393 OFFCURVE",
"261 492 OFFCURVE",
"351 492 CURVE SMOOTH",
"409 492 OFFCURVE",
"413 453 OFFCURVE",
"413 251 CURVE SMOOTH",
"413 145 LINE SMOOTH",
"413 110 OFFCURVE",
"413 46 OFFCURVE",
"412 18 CURVE",
"404 15 OFFCURVE",
"349 11 OFFCURVE",
"335 11 CURVE",
"335 -3 LINE",
"382 -1 OFFCURVE",
"412 0 OFFCURVE",
"457 0 CURVE SMOOTH",
"503 0 OFFCURVE",
"534 -1 OFFCURVE",
"581 -3 CURVE",
"581 11 LINE",
"567 11 OFFCURVE",
"512 15 OFFCURVE",
"434 16 CURVE",
"503 46 OFFCURVE",
"503 110 OFFCURVE",
"503 145 CURVE SMOOTH",
"503 262 LINE SMOOTH",
"503 430 OFFCURVE",
"478 508 OFFCURVE",
"365 508 CURVE SMOOTH"
);
}
);
};
layerId = "FCBC8ADA-3951-4F4A-B82A-D7A37E457EA5";
name = "{800}";
paths = (
{
closed = 1;
nodes = (
"276 508 OFFCURVE",
"216 449 OFFCURVE",
"187 398 CURVE",
"187 405 LINE",
"187 415 OFFCURVE",
"186 493 OFFCURVE",
"187 501 CURVE",
"185 506 LINE",
"135 486 OFFCURVE",
"77 469 OFFCURVE",
"19 461 CURVE",
"19 394 LINE",
"27 394 OFFCURVE",
"83 402 OFFCURVE",
"174 422 CURVE",
"97 391 OFFCURVE",
"97 339 OFFCURVE",
"97 324 CURVE SMOOTH",
"97 155 LINE SMOOTH",
"97 130 OFFCURVE",
"98 95 OFFCURVE",
"97 66 CURVE",
"89 65 OFFCURVE",
"34 61 OFFCURVE",
"21 61 CURVE",
"21 -3 LINE",
"68 -1 OFFCURVE",
"99 0 OFFCURVE",
"144 0 CURVE SMOOTH",
"189 0 OFFCURVE",
"210 -1 OFFCURVE",
"258 -3 CURVE",
"258 61 LINE",
"244 61 OFFCURVE",
"196 65 OFFCURVE",
"107 68 CURVE",
"186 75 OFFCURVE",
"186 110 OFFCURVE",
"186 155 CURVE SMOOTH",
"186 389 LINE SMOOTH",
"186 392 OFFCURVE",
"271 432 OFFCURVE",
"329 432 CURVE SMOOTH",
"392 432 OFFCURVE",
"415 405 OFFCURVE",
"415 251 CURVE SMOOTH",
"415 155 LINE SMOOTH",
"415 120 OFFCURVE",
"415 96 OFFCURVE",
"414 68 CURVE",
"406 65 OFFCURVE",
"359 61 OFFCURVE",
"344 61 CURVE",
"344 -3 LINE",
"391 -1 OFFCURVE",
"411 0 OFFCURVE",
"456 0 CURVE SMOOTH",
"502 0 OFFCURVE",
"533 -1 OFFCURVE",
"580 -3 CURVE",
"580 61 LINE",
"566 61 OFFCURVE",
"514 65 OFFCURVE",
"426 66 CURVE",
"505 76 OFFCURVE",
"505 108 OFFCURVE",
"505 155 CURVE SMOOTH",
"505 262 LINE SMOOTH",
"505 430 OFFCURVE",
"479 508 OFFCURVE",
"364 508 CURVE SMOOTH"
);
}
);
width = 601;
}
);
},
{
export = 0;
glyphname = n.weight;
lastChange = "2017-04-25 15:25:50 +0000";
layers = (
{
layerId = "87BE50FD-B083-4EB3-9928-F89871FBC1E0";
paths = (
{
closed = 1;
nodes = (
"276 508 OFFCURVE",
"172 449 OFFCURVE",
"137 421 CURVE",
"131 416 LINE",
"131 425 LINE",
"130 504 LINE",
"116 505 LINE",
"105 447 OFFCURVE",
"117 447 OFFCURVE",
"19 445 CURVE",
"19 431 LINE",
"116 431 OFFCURVE",
"116 431 OFFCURVE",
"116 386 CURVE SMOOTH",
"116 67 LINE SMOOTH",
"116 14 OFFCURVE",
"116 14 OFFCURVE",
"21 13 CURVE",
"21 0 LINE",
"268 0 LINE",
"268 13 LINE",
"130 13 OFFCURVE",
"130 13 OFFCURVE",
"130 67 CURVE SMOOTH",
"130 400 LINE",
"180 440 OFFCURVE",
"276 496 OFFCURVE",
"352 496 CURVE SMOOTH",
"453 496 OFFCURVE",
"472 436 OFFCURVE",
"472 261 CURVE SMOOTH",
"472 67 LINE SMOOTH",
"472 14 OFFCURVE",
"472 14 OFFCURVE",
"334 13 CURVE",
"334 0 LINE",
"581 0 LINE",
"581 13 LINE",
"486 13 OFFCURVE",
"486 13 OFFCURVE",
"486 67 CURVE SMOOTH",
"486 262 LINE SMOOTH",
"486 439 OFFCURVE",
"465 508 OFFCURVE",
"353 508 CURVE SMOOTH"
);
}
);
width = 600;
},
{
layerId = "9D15E9AA-FCC6-4A1A-804C-B0422A1CAE65";
paths = (
{
closed = 1;
nodes = (
"346 518 OFFCURVE",
"293 468 OFFCURVE",
"270 431 CURVE",
"260 419 LINE",
"261 432 LINE",
"272 498 LINE",
"253 518 LINE",
"201 496 OFFCURVE",
"90 463 OFFCURVE",
"-14 456 CURVE",
"-15 420 LINE",
"37 410 OFFCURVE",
"39 400 OFFCURVE",
"39 302 CURVE SMOOTH",
"39 148 LINE SMOOTH",
"39 49 OFFCURVE",
"35 43 OFFCURVE",
"-15 38 CURVE",
"-15 0 LINE",
"295 0 LINE",
"295 38 LINE",
"262 43 OFFCURVE",
"260 49 OFFCURVE",
"260 148 CURVE SMOOTH",
"260 359 LINE SMOOTH",
"260 382 OFFCURVE",
"288 424 OFFCURVE",
"312 424 CURVE SMOOTH",
"342 424 OFFCURVE",
"350 368 OFFCURVE",
"350 310 CURVE SMOOTH",
"350 148 LINE SMOOTH",
"350 49 OFFCURVE",
"348 42 OFFCURVE",
"320 38 CURVE",
"320 0 LINE",
"614 0 LINE",
"614 38 LINE",
"565 43 OFFCURVE",
"561 49 OFFCURVE",
"561 148 CURVE SMOOTH",
"561 244 LINE SMOOTH",
"561 427 OFFCURVE",
"531 518 OFFCURVE",
"403 518 CURVE SMOOTH"
);
}
);
width = 601;
},
{
associatedMasterId = "87BE50FD-B083-4EB3-9928-F89871FBC1E0";
layerId = "6EFF8356-A6B6-4B2D-9146-C9168228E46D";
name = "{300}";
paths = (
{
closed = 1;
nodes = (
"287 508 OFFCURVE",
"195 449 OFFCURVE",
"167 423 CURVE",
"161 416 LINE",
"161 425 LINE",
"168 491 LINE",
"156 510 LINE",
"117 486 OFFCURVE",
"68 469 OFFCURVE",
"19 461 CURVE",
"19 431 LINE",
"106 431 OFFCURVE",
"106 431 OFFCURVE",
"106 346 CURVE SMOOTH",
"106 135 LINE SMOOTH",
"106 32 OFFCURVE",
"106 32 OFFCURVE",
"21 31 CURVE",
"21 -3 LINE",
"268 -3 LINE",
"268 31 LINE",
"160 31 OFFCURVE",
"160 31 OFFCURVE",
"160 135 CURVE SMOOTH",
"160 377 LINE SMOOTH",
"160 391 OFFCURVE",
"259 464 OFFCURVE",
"322 464 CURVE SMOOTH",
"417 464 OFFCURVE",
"442 412 OFFCURVE",
"442 251 CURVE SMOOTH",
"442 135 LINE SMOOTH",
"442 32 OFFCURVE",
"442 32 OFFCURVE",
"334 31 CURVE",
"334 -3 LINE",
"581 -3 LINE",
"581 31 LINE",
"496 31 OFFCURVE",
"496 31 OFFCURVE",
"496 135 CURVE SMOOTH",
"496 262 LINE SMOOTH",
"496 430 OFFCURVE",
"473 508 OFFCURVE",
"353 508 CURVE SMOOTH"
);
}
);
width = 600;
},
{
associatedMasterId = "87BE50FD-B083-4EB3-9928-F89871FBC1E0";
layerId = "E5F54B1C-06C6-4F6B-A03B-71BA272C9803";
name = "{700}";
paths = (
{
closed = 1;
nodes = (
"330 518 OFFCURVE",
"254 468 OFFCURVE",
"221 431 CURVE",
"211 419 LINE",
"212 432 LINE",
"223 498 LINE",
"204 518 LINE",
"160 496 OFFCURVE",
"65 463 OFFCURVE",
"-24 456 CURVE",
"-25 420 LINE",
"57 410 OFFCURVE",
"60 400 OFFCURVE",
"60 302 CURVE SMOOTH",
"60 168 LINE SMOOTH",
"60 49 OFFCURVE",
"54 43 OFFCURVE",
"-25 38 CURVE",
"-25 0 LINE",
"286 0 LINE",
"286 38 LINE",
"216 43 OFFCURVE",
"211 49 OFFCURVE",
"211 168 CURVE SMOOTH",
"211 359 LINE SMOOTH",
"211 382 OFFCURVE",
"266 424 OFFCURVE",
"313 424 CURVE SMOOTH",
"374 424 OFFCURVE",
"391 344 OFFCURVE",
"391 260 CURVE SMOOTH",
"391 168 LINE SMOOTH",
"391 49 OFFCURVE",
"387 42 OFFCURVE",
"321 38 CURVE",
"321 0 LINE",
"625 0 LINE",
"625 38 LINE",
"549 43 OFFCURVE",
"542 49 OFFCURVE",
"542 168 CURVE SMOOTH",
"542 244 LINE SMOOTH",
"542 427 OFFCURVE",
"516 518 OFFCURVE",
"384 518 CURVE SMOOTH"
);
}
);
width = 601;
},
{
associatedMasterId = "87BE50FD-B083-4EB3-9928-F89871FBC1E0";
layerId = "3AD4E2A0-85BE-4060-A5A7-584BDA42A21A";
name = "{300}";
paths = (
{
closed = 1;
nodes = (
"287 508 OFFCURVE",
"195 449 OFFCURVE",
"167 423 CURVE",
"161 416 LINE",
"161 425 LINE",
"168 491 LINE",
"156 510 LINE",
"117 486 OFFCURVE",
"68 469 OFFCURVE",
"19 461 CURVE",
"19 431 LINE",
"106 431 OFFCURVE",
"106 431 OFFCURVE",
"106 346 CURVE SMOOTH",
"106 135 LINE SMOOTH",
"106 32 OFFCURVE",
"106 32 OFFCURVE",
"21 31 CURVE",
"21 -3 LINE",
"268 -3 LINE",
"268 31 LINE",
"160 31 OFFCURVE",
"160 31 OFFCURVE",
"160 135 CURVE SMOOTH",
"160 377 LINE SMOOTH",
"160 391 OFFCURVE",
"259 464 OFFCURVE",
"322 464 CURVE SMOOTH",
"417 464 OFFCURVE",
"442 412 OFFCURVE",
"442 251 CURVE SMOOTH",
"442 135 LINE SMOOTH",
"442 32 OFFCURVE",
"442 32 OFFCURVE",
"334 31 CURVE",
"334 -3 LINE",
"581 -3 LINE",
"581 31 LINE",
"496 31 OFFCURVE",
"496 31 OFFCURVE",
"496 135 CURVE SMOOTH",
"496 262 LINE SMOOTH",
"496 430 OFFCURVE",
"473 508 OFFCURVE",
"353 508 CURVE SMOOTH"
);
}
);
width = 600;
},
{
associatedMasterId = "87BE50FD-B083-4EB3-9928-F89871FBC1E0";
layerId = "E845C760-F4CD-4C2A-8A46-0E3751F96161";
name = "{700}";
paths = (
{
closed = 1;
nodes = (
"329 518 OFFCURVE",
"253 468 OFFCURVE",
"220 431 CURVE",
"210 419 LINE",
"211 432 LINE",
"222 498 LINE",
"203 518 LINE",
"159 496 OFFCURVE",
"64 463 OFFCURVE",
"-24 456 CURVE",
"-25 420 LINE",
"56 410 OFFCURVE",
"59 400 OFFCURVE",
"59 302 CURVE SMOOTH",
"59 168 LINE SMOOTH",
"59 49 OFFCURVE",
"53 43 OFFCURVE",
"-25 38 CURVE",
"-25 0 LINE",
"285 0 LINE",
"285 38 LINE",
"215 43 OFFCURVE",
"210 49 OFFCURVE",
"210 168 CURVE SMOOTH",
"210 359 LINE SMOOTH",
"210 382 OFFCURVE",
"265 424 OFFCURVE",
"312 424 CURVE SMOOTH",
"373 424 OFFCURVE",
"390 344 OFFCURVE",
"390 260 CURVE SMOOTH",
"390 168 LINE SMOOTH",
"390 49 OFFCURVE",
"386 42 OFFCURVE",
"320 38 CURVE",
"320 0 LINE",
"624 0 LINE",
"624 38 LINE",
"548 43 OFFCURVE",
"541 49 OFFCURVE",
"541 168 CURVE SMOOTH",
"541 244 LINE SMOOTH",
"541 427 OFFCURVE",
"515 518 OFFCURVE",
"383 518 CURVE SMOOTH"
);
}
);
width = 600;
}
);
},
{
glyphname = complexity;
lastChange = "2017-04-22 14:38:12 +0000";
layers = (
{
background = {
paths = (
{
closed = 1;
nodes = (
"351 502 OFFCURVE",
"307 502 OFFCURVE",
"91 493 CURVE",
"148 472 LINE",
"213 478 LINE",
"213 484 OFFCURVE",
"213 451 OFFCURVE",
"213 484 CURVE",
"213 484 LINE",
"173 484 OFFCURVE",
"132 483 OFFCURVE",
"91 493 CURVE",
"91 493 LINE",
"91 417 OFFCURVE",
"91 433 OFFCURVE",
"91 360 CURVE SMOOTH",
"91 134 LINE SMOOTH",
"91 61 OFFCURVE",
"91 18 OFFCURVE",
"91 0 CURVE",
"91 0 LINE",
"91 0 OFFCURVE",
"91 0 OFFCURVE",
"151 0 CURVE",
"212 0 OFFCURVE",
"212 0 OFFCURVE",
"212 0 CURVE",
"212 0 LINE",
"212 17 OFFCURVE",
"212 60 OFFCURVE",
"212 134 CURVE SMOOTH",
"212 407 LINE",
"242 409 OFFCURVE",
"318 412 OFFCURVE",
"362 412 CURVE SMOOTH",
"402 412 OFFCURVE",
"416 400 OFFCURVE",
"416 360 CURVE SMOOTH",
"416 134 LINE SMOOTH",
"416 61 OFFCURVE",
"416 18 OFFCURVE",
"416 0 CURVE",
"416 0 LINE",
"416 0 OFFCURVE",
"416 0 OFFCURVE",
"473 0 CURVE",
"532 0 OFFCURVE",
"532 0 OFFCURVE",
"532 0 CURVE",
"532 0 LINE",
"532 17 OFFCURVE",
"532 60 OFFCURVE",
"532 134 CURVE SMOOTH",
"532 360 LINE SMOOTH",
"532 461 OFFCURVE",
"512 502 OFFCURVE",
"402 502 CURVE SMOOTH"
);
},
{
closed = 1;
nodes = (
"148 467 LINE",
"148 54 LINE",
"148 44 LINE",
"148 54 LINE",
"148 472 LINE"
);
},
{
closed = 1;
nodes = (
"400 470 LINE",
"455 445 OFFCURVE",
"473 431 OFFCURVE",
"473 331 CURVE SMOOTH",
"473 51 LINE",
"473 41 LINE",
"473 51 LINE",
"473 331 LINE SMOOTH",
"473 431 OFFCURVE",
"455 445 OFFCURVE",
"400 470 CURVE"
);
},
{
closed = 1;
nodes = (
"311 85 LINE",
"311 75 LINE",
"311 85 LINE",
"311 369 LINE",
"311 379 LINE",
"311 369 LINE"
);
},
{
closed = 1;
nodes = (
"260 323 OFFCURVE",
"260 323 OFFCURVE",
"260 323 CURVE SMOOTH",
"260 323 OFFCURVE",
"260 323 OFFCURVE",
"260 323 CURVE SMOOTH",
"260 323 OFFCURVE",
"260 323 OFFCURVE",
"260 323 CURVE SMOOTH",
"260 323 OFFCURVE",
"260 323 OFFCURVE",
"260 323 CURVE SMOOTH"
);
},
{
closed = 1;
nodes = (
"260 163 OFFCURVE",
"260 163 OFFCURVE",
"260 163 CURVE SMOOTH",
"260 163 OFFCURVE",
"260 163 OFFCURVE",
"260 163 CURVE SMOOTH",
"260 163 OFFCURVE",
"260 163 OFFCURVE",
"260 163 CURVE SMOOTH",
"260 163 OFFCURVE",
"260 163 OFFCURVE",
"260 163 CURVE SMOOTH"
);
},
{
closed = 1;
nodes = (
"360 323 OFFCURVE",
"360 323 OFFCURVE",
"360 323 CURVE SMOOTH",
"360 323 OFFCURVE",
"360 323 OFFCURVE",
"360 323 CURVE SMOOTH",
"360 323 OFFCURVE",
"360 323 OFFCURVE",
"360 323 CURVE SMOOTH",
"360 323 OFFCURVE",
"360 323 OFFCURVE",
"360 323 CURVE SMOOTH"
);
},
{
closed = 1;
nodes = (
"360 163 OFFCURVE",
"360 163 OFFCURVE",
"360 163 CURVE SMOOTH",
"360 163 OFFCURVE",
"360 163 OFFCURVE",
"360 163 CURVE SMOOTH",
"360 163 OFFCURVE",
"360 163 OFFCURVE",
"360 163 CURVE SMOOTH",
"360 163 OFFCURVE",
"360 163 OFFCURVE",
"360 163 CURVE SMOOTH"
);
},
{
closed = 1;
nodes = (
"91 238 LINE",
"91 205 LINE",
"91 238 LINE",
"91 291 LINE"
);
},
{
closed = 1;
nodes = (
"212 238 LINE",
"212 205 LINE",
"212 238 LINE",
"212 291 LINE"
);
},
{
closed = 1;
nodes = (
"416 238 LINE",
"416 205 LINE",
"416 238 LINE",
"416 291 LINE"
);
},
{
closed = 1;
nodes = (
"532 238 LINE",
"532 205 LINE",
"532 238 LINE",
"532 280 LINE"
);
},
{
closed = 1;
nodes = (
"191 387 LINE",
"424 387 LINE",
"422 387 LINE",
"189 387 LINE"
);
},
{
closed = 1;
nodes = (
"471 197 LINE",
"471 197 LINE",
"423 197 LINE",
"423 197 LINE"
);
},
{
closed = 1;
nodes = (
"531 197 LINE",
"531 197 LINE",
"483 197 LINE",
"483 197 LINE"
);
},
{
closed = 1;
nodes = (
"208 197 LINE",
"208 197 LINE",
"160 197 LINE",
"160 197 LINE"
);
},
{
closed = 1;
nodes = (
"148 197 LINE",
"148 197 LINE",
"100 197 LINE",
"100 197 LINE"
);
}
);
};
layerId = "87BE50FD-B083-4EB3-9928-F89871FBC1E0";
paths = (
{
closed = 1;
nodes = (
"306 512 OFFCURVE",
"168 408 OFFCURVE",
"141 373 CURVE",
"129 378 LINE",
"192 444 LINE",
"199 471 OFFCURVE",
"211 487 OFFCURVE",
"223 505 CURVE",
"210 514 LINE",
"150 468 OFFCURVE",
"110 457 OFFCURVE",
"-1 453 CURVE",
"-1 438 LINE",
"77 423 OFFCURVE",
"81 408 OFFCURVE",
"81 340 CURVE SMOOTH",
"81 134 LINE SMOOTH",
"81 61 OFFCURVE",
"56 31 OFFCURVE",
"26 8 CURVE",
"30 -3 LINE",
"47 0 OFFCURVE",
"75 7 OFFCURVE",
"125 7 CURVE",
"189 7 OFFCURVE",
"231 0 OFFCURVE",
"273 -3 CURVE",
"275 15 LINE",
"193 27 OFFCURVE",
"189 60 OFFCURVE",
"189 134 CURVE SMOOTH",
"189 387 LINE",
"219 410 OFFCURVE",
"280 441 OFFCURVE",
"329 441 CURVE SMOOTH",
"390 441 OFFCURVE",
"404 390 OFFCURVE",
"404 283 CURVE SMOOTH",
"404 134 LINE SMOOTH",
"404 61 OFFCURVE",
"373 28 OFFCURVE",
"349 8 CURVE",
"353 -3 LINE",
"392 0 OFFCURVE",
"399 7 OFFCURVE",
"449 7 CURVE",
"510 7 OFFCURVE",
"550 0 OFFCURVE",
"589 -3 CURVE",
"591 15 LINE",
"515 27 OFFCURVE",
"512 60 OFFCURVE",
"512 134 CURVE SMOOTH",
"512 254 LINE SMOOTH",
"512 433 OFFCURVE",
"491 512 OFFCURVE",
"379 512 CURVE SMOOTH"
);
},
{
closed = 1;
nodes = (
"141 373 LINE",
"141 54 LINE",
"135 47 LINE",
"129 54 LINE",
"129 378 LINE"
);
},
{
closed = 1;
nodes = (
"389 470 LINE",
"450 465 OFFCURVE",
"464 411 OFFCURVE",
"464 311 CURVE SMOOTH",
"464 51 LINE",
"458 44 LINE",
"452 51 LINE",
"452 311 LINE SMOOTH",
"452 411 OFFCURVE",
"439 453 OFFCURVE",
"389 470 CURVE"
);
},
{
closed = 1;
nodes = (
"287 107 LINE",
"295 99 LINE",
"303 107 LINE",
"303 332 LINE",
"295 340 LINE",
"287 332 LINE"
);
},
{
closed = 1;
nodes = (
"251 289 OFFCURVE",
"256 294 OFFCURVE",
"256 301 CURVE SMOOTH",
"256 308 OFFCURVE",
"251 313 OFFCURVE",
"244 313 CURVE SMOOTH",
"237 313 OFFCURVE",
"232 308 OFFCURVE",
"232 301 CURVE SMOOTH",
"232 294 OFFCURVE",
"237 289 OFFCURVE",
"244 289 CURVE SMOOTH"
);
},
{
closed = 1;
nodes = (
"251 149 OFFCURVE",
"256 154 OFFCURVE",
"256 161 CURVE SMOOTH",
"256 168 OFFCURVE",
"251 173 OFFCURVE",
"244 173 CURVE SMOOTH",
"237 173 OFFCURVE",
"232 168 OFFCURVE",
"232 161 CURVE SMOOTH",
"232 154 OFFCURVE",
"237 149 OFFCURVE",
"244 149 CURVE SMOOTH"
);
},
{
closed = 1;
nodes = (
"352 289 OFFCURVE",
"357 294 OFFCURVE",
"357 301 CURVE SMOOTH",
"357 308 OFFCURVE",
"352 313 OFFCURVE",
"345 313 CURVE SMOOTH",
"338 313 OFFCURVE",
"333 308 OFFCURVE",
"333 301 CURVE SMOOTH",
"333 294 OFFCURVE",
"338 289 OFFCURVE",
"345 289 CURVE SMOOTH"
);
},
{
closed = 1;
nodes = (
"352 149 OFFCURVE",
"357 154 OFFCURVE",
"357 161 CURVE SMOOTH",
"357 168 OFFCURVE",
"352 173 OFFCURVE",
"345 173 CURVE SMOOTH",
"338 173 OFFCURVE",
"333 168 OFFCURVE",
"333 161 CURVE SMOOTH",
"333 154 OFFCURVE",
"338 149 OFFCURVE",
"345 149 CURVE SMOOTH"
);
},
{
closed = 1;
nodes = (
"48 238 LINE",
"81 205 LINE",
"113 238 LINE",
"81 271 LINE"
);
},
{
closed = 1;
nodes = (
"156 238 LINE",
"189 205 LINE",
"221 238 LINE",
"189 271 LINE"
);
},
{
closed = 1;
nodes = (
"371 238 LINE",
"404 205 LINE",
"436 238 LINE",
"404 271 LINE"
);
},
{
closed = 1;
nodes = (
"479 238 LINE",
"512 205 LINE",
"544 238 LINE",
"512 271 LINE"
);
},
{
closed = 1;
nodes = (
"186 386 LINE",
"419 388 LINE",
"417 402 LINE",
"184 401 LINE"
);
},
{
closed = 1;
nodes = (
"452 205 LINE",
"452 189 LINE",
"404 189 LINE",
"404 205 LINE"
);
},
{
closed = 1;
nodes = (
"512 205 LINE",
"512 189 LINE",
"464 189 LINE",
"464 205 LINE"
);
},
{
closed = 1;
nodes = (
"189 205 LINE",
"189 189 LINE",
"141 189 LINE",
"141 205 LINE"
);
},
{
closed = 1;
nodes = (
"129 205 LINE",
"129 189 LINE",
"81 189 LINE",
"81 205 LINE"
);
}
);
width = 600;
},
{
associatedMasterId = "87BE50FD-B083-4EB3-9928-F89871FBC1E0";
background = {
paths = (
{
closed = 1;
nodes = (
"351 502 OFFCURVE",
"307 502 OFFCURVE",
"91 493 CURVE",
"148 472 LINE",
"213 478 LINE",
"213 484 OFFCURVE",
"213 451 OFFCURVE",
"213 484 CURVE",
"213 484 LINE",
"173 484 OFFCURVE",
"132 483 OFFCURVE",
"91 493 CURVE",
"91 493 LINE",
"91 417 OFFCURVE",
"91 433 OFFCURVE",
"91 360 CURVE SMOOTH",
"91 134 LINE SMOOTH",
"91 61 OFFCURVE",
"91 18 OFFCURVE",
"91 0 CURVE",
"91 0 LINE",
"91 0 OFFCURVE",
"91 0 OFFCURVE",
"151 0 CURVE",
"212 0 OFFCURVE",
"212 0 OFFCURVE",
"212 0 CURVE",
"212 0 LINE",
"212 17 OFFCURVE",
"212 60 OFFCURVE",
"212 134 CURVE SMOOTH",
"212 407 LINE",
"242 409 OFFCURVE",
"318 412 OFFCURVE",
"362 412 CURVE SMOOTH",
"402 412 OFFCURVE",
"416 400 OFFCURVE",
"416 360 CURVE SMOOTH",
"416 134 LINE SMOOTH",
"416 61 OFFCURVE",
"416 18 OFFCURVE",
"416 0 CURVE",
"416 0 LINE",
"416 0 OFFCURVE",
"416 0 OFFCURVE",
"473 0 CURVE",
"532 0 OFFCURVE",
"532 0 OFFCURVE",
"532 0 CURVE",
"532 0 LINE",
"532 17 OFFCURVE",
"532 60 OFFCURVE",
"532 134 CURVE SMOOTH",
"532 360 LINE SMOOTH",
"532 461 OFFCURVE",
"512 502 OFFCURVE",
"402 502 CURVE SMOOTH"
);
},
{
closed = 1;
nodes = (
"148 467 LINE",
"148 54 LINE",
"148 44 LINE",
"148 54 LINE",
"148 472 LINE"
);
},
{
closed = 1;
nodes = (
"400 470 LINE",
"455 445 OFFCURVE",
"473 431 OFFCURVE",
"473 331 CURVE SMOOTH",
"473 51 LINE",
"473 41 LINE",
"473 51 LINE",
"473 331 LINE SMOOTH",
"473 431 OFFCURVE",
"455 445 OFFCURVE",
"400 470 CURVE"
);
},
{
closed = 1;
nodes = (
"311 85 LINE",
"311 75 LINE",
"311 85 LINE",
"311 369 LINE",
"311 379 LINE",
"311 369 LINE"
);
},
{
closed = 1;
nodes = (
"260 323 OFFCURVE",
"260 323 OFFCURVE",
"260 323 CURVE SMOOTH",
"260 323 OFFCURVE",
"260 323 OFFCURVE",
"260 323 CURVE SMOOTH",
"260 323 OFFCURVE",
"260 323 OFFCURVE",
"260 323 CURVE SMOOTH",
"260 323 OFFCURVE",
"260 323 OFFCURVE",
"260 323 CURVE SMOOTH"
);
},
{
closed = 1;
nodes = (
"260 163 OFFCURVE",
"260 163 OFFCURVE",
"260 163 CURVE SMOOTH",
"260 163 OFFCURVE",
"260 163 OFFCURVE",
"260 163 CURVE SMOOTH",
"260 163 OFFCURVE",
"260 163 OFFCURVE",
"260 163 CURVE SMOOTH",
"260 163 OFFCURVE",
"260 163 OFFCURVE",
"260 163 CURVE SMOOTH"
);
},
{
closed = 1;
nodes = (
"360 323 OFFCURVE",
"360 323 OFFCURVE",
"360 323 CURVE SMOOTH",
"360 323 OFFCURVE",
"360 323 OFFCURVE",
"360 323 CURVE SMOOTH",
"360 323 OFFCURVE",
"360 323 OFFCURVE",
"360 323 CURVE SMOOTH",
"360 323 OFFCURVE",
"360 323 OFFCURVE",
"360 323 CURVE SMOOTH"
);
},
{
closed = 1;
nodes = (
"360 163 OFFCURVE",
"360 163 OFFCURVE",
"360 163 CURVE SMOOTH",
"360 163 OFFCURVE",
"360 163 OFFCURVE",
"360 163 CURVE SMOOTH",
"360 163 OFFCURVE",
"360 163 OFFCURVE",
"360 163 CURVE SMOOTH",
"360 163 OFFCURVE",
"360 163 OFFCURVE",
"360 163 CURVE SMOOTH"
);
},
{
closed = 1;
nodes = (
"91 238 LINE",
"91 205 LINE",
"91 238 LINE",
"91 291 LINE"
);
},
{
closed = 1;
nodes = (
"212 238 LINE",
"212 205 LINE",
"212 238 LINE",
"212 291 LINE"
);
},
{
closed = 1;
nodes = (
"416 238 LINE",
"416 205 LINE",
"416 238 LINE",
"416 291 LINE"
);
},
{
closed = 1;
nodes = (
"532 238 LINE",
"532 205 LINE",
"532 238 LINE",
"532 280 LINE"
);
},
{
closed = 1;
nodes = (
"191 387 LINE",
"424 387 LINE",
"422 387 LINE",
"189 387 LINE"
);
},
{
closed = 1;
nodes = (
"471 197 LINE",
"471 197 LINE",
"423 197 LINE",
"423 197 LINE"
);
},
{
closed = 1;
nodes = (
"531 197 LINE",
"531 197 LINE",
"483 197 LINE",
"483 197 LINE"
);
},
{
closed = 1;
nodes = (
"208 197 LINE",
"208 197 LINE",
"160 197 LINE",
"160 197 LINE"
);
},
{
closed = 1;
nodes = (
"148 197 LINE",
"148 197 LINE",
"100 197 LINE",
"100 197 LINE"
);
}
);
};
layerId = "D5B4BA36-2C98-410C-B4A0-CFE2A89AF8EE";
name = "{100}";
paths = (
{
closed = 1;
nodes = (
"370 500 OFFCURVE",
"286 500 OFFCURVE",
"70 500 CURVE",
"127 479 LINE",
"192 485 LINE",
"192 491 OFFCURVE",
"192 458 OFFCURVE",
"192 491 CURVE",
"192 491 LINE",
"152 491 OFFCURVE",
"111 490 OFFCURVE",
"70 500 CURVE",
"70 500 LINE",
"70 407 OFFCURVE",
"70 423 OFFCURVE",
"70 340 CURVE SMOOTH",
"70 134 LINE SMOOTH",
"70 61 OFFCURVE",
"70 18 OFFCURVE",
"70 0 CURVE",
"70 0 LINE",
"70 0 OFFCURVE",
"70 0 OFFCURVE",
"130 0 CURVE",
"191 0 OFFCURVE",
"191 0 OFFCURVE",
"191 0 CURVE",
"191 0 LINE",
"191 17 OFFCURVE",
"191 60 OFFCURVE",
"191 134 CURVE SMOOTH",
"191 401 LINE",
"191 401 OFFCURVE",
"311 401 OFFCURVE",
"395 400 CURVE SMOOTH",
"395 400 OFFCURVE",
"395 400 OFFCURVE",
"395 400 CURVE SMOOTH",
"395 134 LINE SMOOTH",
"395 61 OFFCURVE",
"395 18 OFFCURVE",
"395 0 CURVE",
"395 0 LINE",
"395 0 OFFCURVE",
"395 0 OFFCURVE",
"452 0 CURVE",
"511 0 OFFCURVE",
"511 0 OFFCURVE",
"511 0 CURVE",
"511 0 LINE",
"511 17 OFFCURVE",
"511 60 OFFCURVE",
"511 134 CURVE SMOOTH",
"511 500 LINE SMOOTH",
"511 500 OFFCURVE",
"511 500 OFFCURVE",
"511 500 CURVE SMOOTH"
);
},
{
closed = 1;
nodes = (
"127 474 LINE",
"127 54 LINE",
"127 44 LINE",
"127 54 LINE",
"127 479 LINE"
);
},
{
closed = 1;
nodes = (
"379 470 LINE",
"434 445 OFFCURVE",
"452 421 OFFCURVE",
"452 311 CURVE SMOOTH",
"452 51 LINE",
"452 41 LINE",
"452 51 LINE",
"452 311 LINE SMOOTH",
"452 421 OFFCURVE",
"434 445 OFFCURVE",
"379 470 CURVE"
);
},
{
closed = 1;
nodes = (
"290 85 LINE",
"290 75 LINE",
"290 85 LINE",
"290 347 LINE",
"290 367 LINE",
"290 347 LINE"
);
},
{
closed = 1;
nodes = (
"239 303 OFFCURVE",
"239 303 OFFCURVE",
"239 303 CURVE SMOOTH",
"239 303 OFFCURVE",
"239 303 OFFCURVE",
"239 303 CURVE SMOOTH",
"239 303 OFFCURVE",
"239 303 OFFCURVE",
"239 303 CURVE SMOOTH",
"239 303 OFFCURVE",
"239 303 OFFCURVE",
"239 303 CURVE SMOOTH"
);
},
{
closed = 1;
nodes = (
"239 163 OFFCURVE",
"239 163 OFFCURVE",
"239 163 CURVE SMOOTH",
"239 163 OFFCURVE",
"239 163 OFFCURVE",
"239 163 CURVE SMOOTH",
"239 163 OFFCURVE",
"239 163 OFFCURVE",
"239 163 CURVE SMOOTH",
"239 163 OFFCURVE",
"239 163 OFFCURVE",
"239 163 CURVE SMOOTH"
);
},
{
closed = 1;
nodes = (
"339 303 OFFCURVE",
"339 303 OFFCURVE",
"339 303 CURVE SMOOTH",
"339 303 OFFCURVE",
"339 303 OFFCURVE",
"339 303 CURVE SMOOTH",
"339 303 OFFCURVE",
"339 303 OFFCURVE",
"339 303 CURVE SMOOTH",
"339 303 OFFCURVE",
"339 303 OFFCURVE",
"339 303 CURVE SMOOTH"
);
},
{
closed = 1;
nodes = (
"339 163 OFFCURVE",
"339 163 OFFCURVE",
"339 163 CURVE SMOOTH",
"339 163 OFFCURVE",
"339 163 OFFCURVE",
"339 163 CURVE SMOOTH",
"339 163 OFFCURVE",
"339 163 OFFCURVE",
"339 163 CURVE SMOOTH",
"339 163 OFFCURVE",
"339 163 OFFCURVE",
"339 163 CURVE SMOOTH"
);
},
{
closed = 1;
nodes = (
"70 238 LINE",
"70 205 LINE",
"70 238 LINE",
"70 271 LINE"
);
},
{
closed = 1;
nodes = (
"191 238 LINE",
"191 205 LINE",
"191 238 LINE",
"191 271 LINE"
);
},
{
closed = 1;
nodes = (
"395 238 LINE",
"395 205 LINE",
"395 238 LINE",
"395 271 LINE"
);
},
{
closed = 1;
nodes = (
"511 238 LINE",
"511 205 LINE",
"511 238 LINE",
"511 280 LINE"
);
},
{
closed = 1;
nodes = (
"170 417 LINE",
"403 417 LINE",
"401 417 LINE",
"168 417 LINE"
);
},
{
closed = 1;
nodes = (
"451 197 LINE",
"451 197 LINE",
"403 197 LINE",
"403 197 LINE"
);
},
{
closed = 1;
nodes = (
"511 197 LINE",
"511 197 LINE",
"463 197 LINE",
"463 197 LINE"
);
},
{
closed = 1;
nodes = (
"188 197 LINE",
"188 197 LINE",
"140 197 LINE",
"140 197 LINE"
);
},
{
closed = 1;
nodes = (
"128 197 LINE",
"128 197 LINE",
"80 197 LINE",
"80 197 LINE"
);
}
);
width = 600;
},
{
associatedMasterId = "87BE50FD-B083-4EB3-9928-F89871FBC1E0";
background = {
paths = (
{
closed = 1;
nodes = (
"275 507 OFFCURVE",
"240 503 OFFCURVE",
"91 489 CURVE",
"148 479 LINE",
"213 485 LINE",
"213 491 OFFCURVE",
"213 458 OFFCURVE",
"213 491 CURVE",
"213 491 LINE",
"173 491 OFFCURVE",
"132 490 OFFCURVE",
"91 489 CURVE",
"91 489 LINE",
"91 397 OFFCURVE",
"91 413 OFFCURVE",
"91 340 CURVE SMOOTH",
"91 134 LINE SMOOTH",
"91 61 OFFCURVE",
"91 18 OFFCURVE",
"91 0 CURVE",
"91 0 LINE",
"91 0 OFFCURVE",
"91 0 OFFCURVE",
"151 0 CURVE",
"212 0 OFFCURVE",
"212 0 OFFCURVE",
"212 0 CURVE",
"212 0 LINE",
"212 17 OFFCURVE",
"212 60 OFFCURVE",
"212 134 CURVE SMOOTH",
"212 423 LINE",
"234 425 OFFCURVE",
"278 430 OFFCURVE",
"315 429 CURVE SMOOTH",
"399 427 OFFCURVE",
"416 367 OFFCURVE",
"416 283 CURVE SMOOTH",
"416 134 LINE SMOOTH",
"416 61 OFFCURVE",
"416 18 OFFCURVE",
"416 0 CURVE",
"416 0 LINE",
"416 0 OFFCURVE",
"416 0 OFFCURVE",
"473 0 CURVE",
"532 0 OFFCURVE",
"532 0 OFFCURVE",
"532 0 CURVE",
"532 0 LINE",
"532 17 OFFCURVE",
"532 60 OFFCURVE",
"532 134 CURVE SMOOTH",
"532 254 LINE SMOOTH",
"532 431 OFFCURVE",
"495 507 OFFCURVE",
"355 507 CURVE SMOOTH"
);
},
{
closed = 1;
nodes = (
"148 474 LINE",
"148 54 LINE",
"148 44 LINE",
"148 54 LINE",
"148 479 LINE"
);
},
{
closed = 1;
nodes = (
"400 465 LINE",
"455 441 OFFCURVE",
"473 408 OFFCURVE",
"473 311 CURVE SMOOTH",
"473 51 LINE",
"473 41 LINE",
"473 51 LINE",
"473 311 LINE SMOOTH",
"473 408 OFFCURVE",
"455 441 OFFCURVE",
"400 465 CURVE"
);
},
{
closed = 1;
nodes = (
"311 85 LINE",
"311 75 LINE",
"311 85 LINE",
"311 361 LINE",
"311 371 LINE",
"311 361 LINE"
);
},
{
closed = 1;
nodes = (
"260 303 OFFCURVE",
"260 303 OFFCURVE",
"260 303 CURVE SMOOTH",
"260 303 OFFCURVE",
"260 303 OFFCURVE",
"260 303 CURVE SMOOTH",
"260 303 OFFCURVE",
"260 303 OFFCURVE",
"260 303 CURVE SMOOTH",
"260 303 OFFCURVE",
"260 303 OFFCURVE",
"260 303 CURVE SMOOTH"
);
},
{
closed = 1;
nodes = (
"260 163 OFFCURVE",
"260 163 OFFCURVE",
"260 163 CURVE SMOOTH",
"260 163 OFFCURVE",
"260 163 OFFCURVE",
"260 163 CURVE SMOOTH",
"260 163 OFFCURVE",
"260 163 OFFCURVE",
"260 163 CURVE SMOOTH",
"260 163 OFFCURVE",
"260 163 OFFCURVE",
"260 163 CURVE SMOOTH"
);
},
{
closed = 1;
nodes = (
"360 303 OFFCURVE",
"360 303 OFFCURVE",
"360 303 CURVE SMOOTH",
"360 303 OFFCURVE",
"360 303 OFFCURVE",
"360 303 CURVE SMOOTH",
"360 303 OFFCURVE",
"360 303 OFFCURVE",
"360 303 CURVE SMOOTH",
"360 303 OFFCURVE",
"360 303 OFFCURVE",
"360 303 CURVE SMOOTH"
);
},
{
closed = 1;
nodes = (
"360 163 OFFCURVE",
"360 163 OFFCURVE",
"360 163 CURVE SMOOTH",
"360 163 OFFCURVE",
"360 163 OFFCURVE",
"360 163 CURVE SMOOTH",
"360 163 OFFCURVE",
"360 163 OFFCURVE",
"360 163 CURVE SMOOTH",
"360 163 OFFCURVE",
"360 163 OFFCURVE",
"360 163 CURVE SMOOTH"
);
},
{
closed = 1;
nodes = (
"91 238 LINE",
"91 205 LINE",
"91 238 LINE",
"91 271 LINE"
);
},
{
closed = 1;
nodes = (
"212 238 LINE",
"212 205 LINE",
"212 238 LINE",
"212 271 LINE"
);
},
{
closed = 1;
nodes = (
"416 238 LINE",
"416 205 LINE",
"416 238 LINE",
"416 271 LINE"
);
},
{
closed = 1;
nodes = (
"532 238 LINE",
"532 205 LINE",
"532 238 LINE",
"532 271 LINE"
);
},
{
closed = 1;
nodes = (
"191 387 LINE",
"424 387 LINE",
"422 387 LINE",
"189 387 LINE"
);
},
{
closed = 1;
nodes = (
"469 197 LINE",
"469 197 LINE",
"421 197 LINE",
"421 197 LINE"
);
},
{
closed = 1;
nodes = (
"529 197 LINE",
"529 197 LINE",
"481 197 LINE",
"481 197 LINE"
);
},
{
closed = 1;
nodes = (
"206 197 LINE",
"206 197 LINE",
"158 197 LINE",
"158 197 LINE"
);
},
{
closed = 1;
nodes = (
"146 197 LINE",
"146 197 LINE",
"98 197 LINE",
"98 197 LINE"
);
}
);
};
layerId = "620FC15D-D452-4C56-9F9A-7F8F5AA203C2";
name = "{150}";
paths = (
{
closed = 1;
nodes = (
"331 502 OFFCURVE",
"287 502 OFFCURVE",
"71 493 CURVE",
"128 472 LINE",
"193 478 LINE",
"193 484 OFFCURVE",
"193 451 OFFCURVE",
"193 484 CURVE",
"193 484 LINE",
"153 484 OFFCURVE",
"112 483 OFFCURVE",
"71 493 CURVE",
"71 493 LINE",
"71 417 OFFCURVE",
"71 433 OFFCURVE",
"71 360 CURVE SMOOTH",
"71 134 LINE SMOOTH",
"71 61 OFFCURVE",
"71 18 OFFCURVE",
"71 0 CURVE",
"71 0 LINE",
"71 0 OFFCURVE",
"71 0 OFFCURVE",
"131 0 CURVE",
"192 0 OFFCURVE",
"192 0 OFFCURVE",
"192 0 CURVE",
"192 0 LINE",
"192 17 OFFCURVE",
"192 60 OFFCURVE",
"192 134 CURVE SMOOTH",
"192 407 LINE",
"222 409 OFFCURVE",
"298 412 OFFCURVE",
"342 412 CURVE SMOOTH",
"382 412 OFFCURVE",
"396 400 OFFCURVE",
"396 360 CURVE SMOOTH",
"396 134 LINE SMOOTH",
"396 61 OFFCURVE",
"396 18 OFFCURVE",
"396 0 CURVE",
"396 0 LINE",
"396 0 OFFCURVE",
"396 0 OFFCURVE",
"453 0 CURVE",
"512 0 OFFCURVE",
"512 0 OFFCURVE",
"512 0 CURVE",
"512 0 LINE",
"512 17 OFFCURVE",
"512 60 OFFCURVE",
"512 134 CURVE SMOOTH",
"512 360 LINE SMOOTH",
"512 461 OFFCURVE",
"492 502 OFFCURVE",
"382 502 CURVE SMOOTH"
);
},
{
closed = 1;
nodes = (
"128 467 LINE",
"128 54 LINE",
"128 44 LINE",
"128 54 LINE",
"128 472 LINE"
);
},
{
closed = 1;
nodes = (
"380 470 LINE",
"435 445 OFFCURVE",
"453 431 OFFCURVE",
"453 331 CURVE SMOOTH",
"453 51 LINE",
"453 41 LINE",
"453 51 LINE",
"453 331 LINE SMOOTH",
"453 431 OFFCURVE",
"435 445 OFFCURVE",
"380 470 CURVE"
);
},
{
closed = 1;
nodes = (
"291 85 LINE",
"291 75 LINE",
"291 85 LINE",
"291 369 LINE",
"291 379 LINE",
"291 369 LINE"
);
},
{
closed = 1;
nodes = (
"240 323 OFFCURVE",
"240 323 OFFCURVE",
"240 323 CURVE SMOOTH",
"240 323 OFFCURVE",
"240 323 OFFCURVE",
"240 323 CURVE SMOOTH",
"240 323 OFFCURVE",
"240 323 OFFCURVE",
"240 323 CURVE SMOOTH",
"240 323 OFFCURVE",
"240 323 OFFCURVE",
"240 323 CURVE SMOOTH"
);
},
{
closed = 1;
nodes = (
"240 163 OFFCURVE",
"240 163 OFFCURVE",
"240 163 CURVE SMOOTH",
"240 163 OFFCURVE",
"240 163 OFFCURVE",
"240 163 CURVE SMOOTH",
"240 163 OFFCURVE",
"240 163 OFFCURVE",
"240 163 CURVE SMOOTH",
"240 163 OFFCURVE",
"240 163 OFFCURVE",
"240 163 CURVE SMOOTH"
);
},
{
closed = 1;
nodes = (
"340 323 OFFCURVE",
"340 323 OFFCURVE",
"340 323 CURVE SMOOTH",
"340 323 OFFCURVE",
"340 323 OFFCURVE",
"340 323 CURVE SMOOTH",
"340 323 OFFCURVE",
"340 323 OFFCURVE",
"340 323 CURVE SMOOTH",
"340 323 OFFCURVE",
"340 323 OFFCURVE",
"340 323 CURVE SMOOTH"
);
},
{
closed = 1;
nodes = (
"340 163 OFFCURVE",
"340 163 OFFCURVE",
"340 163 CURVE SMOOTH",
"340 163 OFFCURVE",
"340 163 OFFCURVE",
"340 163 CURVE SMOOTH",
"340 163 OFFCURVE",
"340 163 OFFCURVE",
"340 163 CURVE SMOOTH",
"340 163 OFFCURVE",
"340 163 OFFCURVE",
"340 163 CURVE SMOOTH"
);
},
{
closed = 1;
nodes = (
"71 238 LINE",
"71 205 LINE",
"71 238 LINE",
"71 291 LINE"
);
},
{
closed = 1;
nodes = (
"192 238 LINE",
"192 205 LINE",
"192 238 LINE",
"192 291 LINE"
);
},
{
closed = 1;
nodes = (
"396 238 LINE",
"396 205 LINE",
"396 238 LINE",
"396 291 LINE"
);
},
{
closed = 1;
nodes = (
"512 238 LINE",
"512 205 LINE",
"512 238 LINE",
"512 280 LINE"
);
},
{
closed = 1;
nodes = (
"171 387 LINE",
"404 387 LINE",
"402 387 LINE",
"169 387 LINE"
);
},
{
closed = 1;
nodes = (
"451 197 LINE",
"451 197 LINE",
"403 197 LINE",
"403 197 LINE"
);
},
{
closed = 1;
nodes = (
"511 197 LINE",
"511 197 LINE",
"463 197 LINE",
"463 197 LINE"
);
},
{
closed = 1;
nodes = (
"188 197 LINE",
"188 197 LINE",
"140 197 LINE",
"140 197 LINE"
);
},
{
closed = 1;
nodes = (
"128 197 LINE",
"128 197 LINE",
"80 197 LINE",
"80 197 LINE"
);
}
);
width = 600;
},
{
associatedMasterId = "87BE50FD-B083-4EB3-9928-F89871FBC1E0";
background = {
paths = (
{
closed = 1;
nodes = (
"330 512 OFFCURVE",
"243 447 OFFCURVE",
"146 378 CURVE",
"146 378 LINE",
"210 422 LINE",
"211 457 OFFCURVE",
"211 482 OFFCURVE",
"212 510 CURVE",
"212 510 LINE",
"173 491 OFFCURVE",
"129 472 OFFCURVE",
"90 453 CURVE",
"90 453 LINE",
"90 433 OFFCURVE",
"90 408 OFFCURVE",
"90 340 CURVE SMOOTH",
"90 134 LINE SMOOTH",
"90 61 OFFCURVE",
"90 18 OFFCURVE",
"90 0 CURVE",
"90 0 LINE",
"90 0 OFFCURVE",
"90 0 OFFCURVE",
"149 0 CURVE",
"209 0 OFFCURVE",
"209 0 OFFCURVE",
"209 0 CURVE",
"209 0 LINE",
"209 17 OFFCURVE",
"209 60 OFFCURVE",
"209 134 CURVE SMOOTH",
"209 387 LINE",
"239 410 OFFCURVE",
"294 441 OFFCURVE",
"343 441 CURVE SMOOTH",
"405 441 OFFCURVE",
"415 390 OFFCURVE",
"415 283 CURVE SMOOTH",
"415 134 LINE SMOOTH",
"415 61 OFFCURVE",
"415 18 OFFCURVE",
"415 0 CURVE",
"415 0 LINE",
"415 0 OFFCURVE",
"415 0 OFFCURVE",
"471 0 CURVE",
"529 0 OFFCURVE",
"529 0 OFFCURVE",
"529 0 CURVE",
"529 0 LINE",
"529 17 OFFCURVE",
"529 60 OFFCURVE",
"529 134 CURVE SMOOTH",
"529 254 LINE SMOOTH",
"529 434 OFFCURVE",
"503 512 OFFCURVE",
"403 512 CURVE SMOOTH"
);
},
{
closed = 1;
nodes = (
"146 373 LINE",
"146 54 LINE",
"146 44 LINE",
"146 54 LINE",
"146 378 LINE"
);
},
{
closed = 1;
nodes = (
"398 470 LINE",
"453 445 OFFCURVE",
"471 411 OFFCURVE",
"471 311 CURVE SMOOTH",
"471 51 LINE",
"471 41 LINE",
"471 51 LINE",
"471 311 LINE SMOOTH",
"471 411 OFFCURVE",
"453 445 OFFCURVE",
"398 470 CURVE"
);
},
{
closed = 1;
nodes = (
"309 85 LINE",
"309 75 LINE",
"309 85 LINE",
"309 368 LINE",
"309 378 LINE",
"309 368 LINE"
);
},
{
closed = 1;
nodes = (
"258 303 OFFCURVE",
"258 303 OFFCURVE",
"258 303 CURVE SMOOTH",
"258 303 OFFCURVE",
"258 303 OFFCURVE",
"258 303 CURVE SMOOTH",
"258 303 OFFCURVE",
"258 303 OFFCURVE",
"258 303 CURVE SMOOTH",
"258 303 OFFCURVE",
"258 303 OFFCURVE",
"258 303 CURVE SMOOTH"
);
},
{
closed = 1;
nodes = (
"258 163 OFFCURVE",
"258 163 OFFCURVE",
"258 163 CURVE SMOOTH",
"258 163 OFFCURVE",
"258 163 OFFCURVE",
"258 163 CURVE SMOOTH",
"258 163 OFFCURVE",
"258 163 OFFCURVE",
"258 163 CURVE SMOOTH",
"258 163 OFFCURVE",
"258 163 OFFCURVE",
"258 163 CURVE SMOOTH"
);
},
{
closed = 1;
nodes = (
"358 303 OFFCURVE",
"358 303 OFFCURVE",
"358 303 CURVE SMOOTH",
"358 303 OFFCURVE",
"358 303 OFFCURVE",
"358 303 CURVE SMOOTH",
"358 303 OFFCURVE",
"358 303 OFFCURVE",
"358 303 CURVE SMOOTH",
"358 303 OFFCURVE",
"358 303 OFFCURVE",
"358 303 CURVE SMOOTH"
);
},
{
closed = 1;
nodes = (
"358 163 OFFCURVE",
"358 163 OFFCURVE",
"358 163 CURVE SMOOTH",
"358 163 OFFCURVE",
"358 163 OFFCURVE",
"358 163 CURVE SMOOTH",
"358 163 OFFCURVE",
"358 163 OFFCURVE",
"358 163 CURVE SMOOTH",
"358 163 OFFCURVE",
"358 163 OFFCURVE",
"358 163 CURVE SMOOTH"
);
},
{
closed = 1;
nodes = (
"90 238 LINE",
"90 205 LINE",
"90 238 LINE",
"90 271 LINE"
);
},
{
closed = 1;
nodes = (
"209 238 LINE",
"209 205 LINE",
"209 238 LINE",
"209 271 LINE"
);
},
{
closed = 1;
nodes = (
"415 238 LINE",
"415 205 LINE",
"415 238 LINE",
"415 271 LINE"
);
},
{
closed = 1;
nodes = (
"529 238 LINE",
"529 205 LINE",
"529 238 LINE",
"529 271 LINE"
);
},
{
closed = 1;
nodes = (
"189 387 LINE",
"422 387 LINE",
"420 387 LINE",
"187 387 LINE"
);
},
{
closed = 1;
nodes = (
"460 197 LINE",
"460 197 LINE",
"412 197 LINE",
"412 197 LINE"
);
},
{
closed = 1;
nodes = (
"520 197 LINE",
"520 197 LINE",
"472 197 LINE",
"472 197 LINE"
);
},
{
closed = 1;
nodes = (
"197 197 LINE",
"197 197 LINE",
"149 197 LINE",
"149 197 LINE"
);
},
{
closed = 1;
nodes = (
"137 197 LINE",
"137 197 LINE",
"89 197 LINE",
"89 197 LINE"
);
}
);
};
layerId = "E61A665F-3074-45E9-9196-42A95341886F";
name = "{200}";
paths = (
{
closed = 1;
nodes = (
"269 511 OFFCURVE",
"231 506 OFFCURVE",
"71 494 CURVE",
"128 479 LINE",
"193 485 LINE",
"193 491 OFFCURVE",
"193 458 OFFCURVE",
"193 491 CURVE",
"193 491 LINE",
"153 491 OFFCURVE",
"112 493 OFFCURVE",
"71 494 CURVE",
"71 494 LINE",
"71 400 OFFCURVE",
"71 413 OFFCURVE",
"71 340 CURVE SMOOTH",
"71 134 LINE SMOOTH",
"71 61 OFFCURVE",
"71 18 OFFCURVE",
"71 0 CURVE",
"71 0 LINE",
"71 0 OFFCURVE",
"71 0 OFFCURVE",
"131 0 CURVE",
"192 0 OFFCURVE",
"192 0 OFFCURVE",
"192 0 CURVE",
"192 0 LINE",
"192 17 OFFCURVE",
"192 60 OFFCURVE",
"192 134 CURVE SMOOTH",
"192 423 LINE",
"218 425 OFFCURVE",
"271 432 OFFCURVE",
"315 431 CURVE SMOOTH",
"402 429 OFFCURVE",
"396 367 OFFCURVE",
"396 283 CURVE SMOOTH",
"396 134 LINE SMOOTH",
"396 61 OFFCURVE",
"396 18 OFFCURVE",
"396 0 CURVE",
"396 0 LINE",
"396 0 OFFCURVE",
"396 0 OFFCURVE",
"453 0 CURVE",
"512 0 OFFCURVE",
"512 0 OFFCURVE",
"512 0 CURVE",
"512 0 LINE",
"512 17 OFFCURVE",
"512 60 OFFCURVE",
"512 134 CURVE SMOOTH",
"512 254 LINE SMOOTH",
"512 431 OFFCURVE",
"489 511 OFFCURVE",
"365 511 CURVE SMOOTH"
);
},
{
closed = 1;
nodes = (
"128 474 LINE",
"128 54 LINE",
"128 44 LINE",
"128 54 LINE",
"128 479 LINE"
);
},
{
closed = 1;
nodes = (
"380 465 LINE",
"435 441 OFFCURVE",
"453 408 OFFCURVE",
"453 311 CURVE SMOOTH",
"453 51 LINE",
"453 41 LINE",
"453 51 LINE",
"453 311 LINE SMOOTH",
"453 408 OFFCURVE",
"435 441 OFFCURVE",
"380 465 CURVE"
);
},
{
closed = 1;
nodes = (
"291 85 LINE",
"291 75 LINE",
"291 85 LINE",
"291 361 LINE",
"291 371 LINE",
"291 361 LINE"
);
},
{
closed = 1;
nodes = (
"240 303 OFFCURVE",
"240 303 OFFCURVE",
"240 303 CURVE SMOOTH",
"240 303 OFFCURVE",
"240 303 OFFCURVE",
"240 303 CURVE SMOOTH",
"240 303 OFFCURVE",
"240 303 OFFCURVE",
"240 303 CURVE SMOOTH",
"240 303 OFFCURVE",
"240 303 OFFCURVE",
"240 303 CURVE SMOOTH"
);
},
{
closed = 1;
nodes = (
"240 163 OFFCURVE",
"240 163 OFFCURVE",
"240 163 CURVE SMOOTH",
"240 163 OFFCURVE",
"240 163 OFFCURVE",
"240 163 CURVE SMOOTH",
"240 163 OFFCURVE",
"240 163 OFFCURVE",
"240 163 CURVE SMOOTH",
"240 163 OFFCURVE",
"240 163 OFFCURVE",
"240 163 CURVE SMOOTH"
);
},
{
closed = 1;
nodes = (
"340 303 OFFCURVE",
"340 303 OFFCURVE",
"340 303 CURVE SMOOTH",
"340 303 OFFCURVE",
"340 303 OFFCURVE",
"340 303 CURVE SMOOTH",
"340 303 OFFCURVE",
"340 303 OFFCURVE",
"340 303 CURVE SMOOTH",
"340 303 OFFCURVE",
"340 303 OFFCURVE",
"340 303 CURVE SMOOTH"
);
},
{
closed = 1;
nodes = (
"340 163 OFFCURVE",
"340 163 OFFCURVE",
"340 163 CURVE SMOOTH",
"340 163 OFFCURVE",
"340 163 OFFCURVE",
"340 163 CURVE SMOOTH",
"340 163 OFFCURVE",
"340 163 OFFCURVE",
"340 163 CURVE SMOOTH",
"340 163 OFFCURVE",
"340 163 OFFCURVE",
"340 163 CURVE SMOOTH"
);
},
{
closed = 1;
nodes = (
"71 238 LINE",
"71 205 LINE",
"71 238 LINE",
"71 271 LINE"
);
},
{
closed = 1;
nodes = (
"192 238 LINE",
"192 205 LINE",
"192 238 LINE",
"192 271 LINE"
);
},
{
closed = 1;
nodes = (
"396 238 LINE",
"396 205 LINE",
"396 238 LINE",
"396 271 LINE"
);
},
{
closed = 1;
nodes = (
"512 238 LINE",
"512 205 LINE",
"512 238 LINE",
"512 271 LINE"
);
},
{
closed = 1;
nodes = (
"171 387 LINE",
"404 387 LINE",
"402 387 LINE",
"169 387 LINE"
);
},
{
closed = 1;
nodes = (
"449 197 LINE",
"449 197 LINE",
"401 197 LINE",
"401 197 LINE"
);
},
{
closed = 1;
nodes = (
"509 197 LINE",
"509 197 LINE",
"461 197 LINE",
"461 197 LINE"
);
},
{
closed = 1;
nodes = (
"186 197 LINE",
"186 197 LINE",
"138 197 LINE",
"138 197 LINE"
);
},
{
closed = 1;
nodes = (
"126 197 LINE",
"126 197 LINE",
"78 197 LINE",
"78 197 LINE"
);
}
);
width = 600;
},
{
associatedMasterId = "87BE50FD-B083-4EB3-9928-F89871FBC1E0";
background = {
paths = (
{
closed = 1;
nodes = (
"320 512 OFFCURVE",
"243 457 OFFCURVE",
"214 425 CURVE",
"207 417 LINE",
"208 428 LINE",
"209 455 OFFCURVE",
"209 482 OFFCURVE",
"210 509 CURVE",
"197 514 LINE",
"167 468 OFFCURVE",
"124 457 OFFCURVE",
"13 453 CURVE",
"13 438 LINE",
"91 433 OFFCURVE",
"92 408 OFFCURVE",
"92 340 CURVE SMOOTH",
"92 134 LINE SMOOTH",
"92 61 OFFCURVE",
"90 18 OFFCURVE",
"14 15 CURVE",
"14 0 LINE",
"59 0 OFFCURVE",
"104 0 OFFCURVE",
"149 0 CURVE",
"196 0 OFFCURVE",
"242 0 OFFCURVE",
"289 0 CURVE",
"289 15 LINE",
"207 17 OFFCURVE",
"207 60 OFFCURVE",
"207 134 CURVE SMOOTH",
"207 387 LINE",
"237 410 OFFCURVE",
"294 441 OFFCURVE",
"343 441 CURVE SMOOTH",
"405 441 OFFCURVE",
"417 390 OFFCURVE",
"417 283 CURVE SMOOTH",
"417 134 LINE SMOOTH",
"417 61 OFFCURVE",
"416 18 OFFCURVE",
"337 15 CURVE",
"337 0 LINE",
"382 0 OFFCURVE",
"426 0 OFFCURVE",
"471 0 CURVE",
"516 0 OFFCURVE",
"560 0 OFFCURVE",
"605 0 CURVE",
"605 15 LINE",
"528 17 OFFCURVE",
"527 60 OFFCURVE",
"527 134 CURVE SMOOTH",
"527 254 LINE SMOOTH",
"527 434 OFFCURVE",
"503 512 OFFCURVE",
"393 512 CURVE SMOOTH"
);
},
{
closed = 1;
nodes = (
"146 373 LINE",
"146 54 LINE",
"146 44 LINE",
"146 54 LINE",
"146 378 LINE"
);
},
{
closed = 1;
nodes = (
"398 470 LINE",
"453 445 OFFCURVE",
"471 411 OFFCURVE",
"471 311 CURVE SMOOTH",
"471 51 LINE",
"471 41 LINE",
"471 51 LINE",
"471 311 LINE SMOOTH",
"471 411 OFFCURVE",
"453 445 OFFCURVE",
"398 470 CURVE"
);
},
{
closed = 1;
nodes = (
"309 85 LINE",
"309 75 LINE",
"309 85 LINE",
"309 368 LINE",
"309 378 LINE",
"309 368 LINE"
);
},
{
closed = 1;
nodes = (
"258 303 OFFCURVE",
"258 303 OFFCURVE",
"258 303 CURVE SMOOTH",
"258 303 OFFCURVE",
"258 303 OFFCURVE",
"258 303 CURVE SMOOTH",
"258 303 OFFCURVE",
"258 303 OFFCURVE",
"258 303 CURVE SMOOTH",
"258 303 OFFCURVE",
"258 303 OFFCURVE",
"258 303 CURVE SMOOTH"
);
},
{
closed = 1;
nodes = (
"258 163 OFFCURVE",
"258 163 OFFCURVE",
"258 163 CURVE SMOOTH",
"258 163 OFFCURVE",
"258 163 OFFCURVE",
"258 163 CURVE SMOOTH",
"258 163 OFFCURVE",
"258 163 OFFCURVE",
"258 163 CURVE SMOOTH",
"258 163 OFFCURVE",
"258 163 OFFCURVE",
"258 163 CURVE SMOOTH"
);
},
{
closed = 1;
nodes = (
"358 303 OFFCURVE",
"358 303 OFFCURVE",
"358 303 CURVE SMOOTH",
"358 303 OFFCURVE",
"358 303 OFFCURVE",
"358 303 CURVE SMOOTH",
"358 303 OFFCURVE",
"358 303 OFFCURVE",
"358 303 CURVE SMOOTH",
"358 303 OFFCURVE",
"358 303 OFFCURVE",
"358 303 CURVE SMOOTH"
);
},
{
closed = 1;
nodes = (
"358 163 OFFCURVE",
"358 163 OFFCURVE",
"358 163 CURVE SMOOTH",
"358 163 OFFCURVE",
"358 163 OFFCURVE",
"358 163 CURVE SMOOTH",
"358 163 OFFCURVE",
"358 163 OFFCURVE",
"358 163 CURVE SMOOTH",
"358 163 OFFCURVE",
"358 163 OFFCURVE",
"358 163 CURVE SMOOTH"
);
}
);
};
layerId = "1F0FEC85-5B1C-4034-98E0-2CBDF2AC153E";
name = "{300}";
paths = (
{
closed = 1;
nodes = (
"303 512 OFFCURVE",
"219 474 OFFCURVE",
"126 415 CURVE",
"126 415 LINE",
"191 449 LINE",
"191 485 OFFCURVE",
"191 487 OFFCURVE",
"191 500 CURVE",
"191 500 LINE",
"151 500 OFFCURVE",
"110 500 OFFCURVE",
"69 500 CURVE",
"69 500 LINE",
"69 433 OFFCURVE",
"69 408 OFFCURVE",
"69 340 CURVE SMOOTH",
"69 134 LINE SMOOTH",
"69 61 OFFCURVE",
"69 18 OFFCURVE",
"69 0 CURVE",
"69 0 LINE",
"69 0 OFFCURVE",
"69 0 OFFCURVE",
"129 0 CURVE",
"190 0 OFFCURVE",
"190 0 OFFCURVE",
"190 0 CURVE",
"190 0 LINE",
"190 17 OFFCURVE",
"190 60 OFFCURVE",
"190 134 CURVE SMOOTH",
"190 387 LINE",
"219 406 OFFCURVE",
"275 431 OFFCURVE",
"323 431 CURVE SMOOTH",
"382 431 OFFCURVE",
"394 383 OFFCURVE",
"394 283 CURVE SMOOTH",
"394 134 LINE SMOOTH",
"394 61 OFFCURVE",
"394 18 OFFCURVE",
"394 0 CURVE",
"394 0 LINE",
"394 0 OFFCURVE",
"394 0 OFFCURVE",
"451 0 CURVE",
"510 0 OFFCURVE",
"510 0 OFFCURVE",
"510 0 CURVE",
"510 0 LINE",
"510 17 OFFCURVE",
"510 60 OFFCURVE",
"510 134 CURVE SMOOTH",
"510 254 LINE SMOOTH",
"510 434 OFFCURVE",
"483 512 OFFCURVE",
"373 512 CURVE SMOOTH"
);
},
{
closed = 1;
nodes = (
"126 410 LINE",
"126 54 LINE",
"126 44 LINE",
"126 54 LINE",
"126 415 LINE"
);
},
{
closed = 1;
nodes = (
"378 470 LINE",
"433 445 OFFCURVE",
"451 411 OFFCURVE",
"451 311 CURVE SMOOTH",
"451 51 LINE",
"451 41 LINE",
"451 51 LINE",
"451 311 LINE SMOOTH",
"451 411 OFFCURVE",
"433 445 OFFCURVE",
"378 470 CURVE"
);
},
{
closed = 1;
nodes = (
"289 85 LINE",
"289 75 LINE",
"289 85 LINE",
"289 368 LINE",
"289 378 LINE",
"289 368 LINE"
);
},
{
closed = 1;
nodes = (
"238 303 OFFCURVE",
"238 303 OFFCURVE",
"238 303 CURVE SMOOTH",
"238 303 OFFCURVE",
"238 303 OFFCURVE",
"238 303 CURVE SMOOTH",
"238 303 OFFCURVE",
"238 303 OFFCURVE",
"238 303 CURVE SMOOTH",
"238 303 OFFCURVE",
"238 303 OFFCURVE",
"238 303 CURVE SMOOTH"
);
},
{
closed = 1;
nodes = (
"238 163 OFFCURVE",
"238 163 OFFCURVE",
"238 163 CURVE SMOOTH",
"238 163 OFFCURVE",
"238 163 OFFCURVE",
"238 163 CURVE SMOOTH",
"238 163 OFFCURVE",
"238 163 OFFCURVE",
"238 163 CURVE SMOOTH",
"238 163 OFFCURVE",
"238 163 OFFCURVE",
"238 163 CURVE SMOOTH"
);
},
{
closed = 1;
nodes = (
"338 303 OFFCURVE",
"338 303 OFFCURVE",
"338 303 CURVE SMOOTH",
"338 303 OFFCURVE",
"338 303 OFFCURVE",
"338 303 CURVE SMOOTH",
"338 303 OFFCURVE",
"338 303 OFFCURVE",
"338 303 CURVE SMOOTH",
"338 303 OFFCURVE",
"338 303 OFFCURVE",
"338 303 CURVE SMOOTH"
);
},
{
closed = 1;
nodes = (
"338 163 OFFCURVE",
"338 163 OFFCURVE",
"338 163 CURVE SMOOTH",
"338 163 OFFCURVE",
"338 163 OFFCURVE",
"338 163 CURVE SMOOTH",
"338 163 OFFCURVE",
"338 163 OFFCURVE",
"338 163 CURVE SMOOTH",
"338 163 OFFCURVE",
"338 163 OFFCURVE",
"338 163 CURVE SMOOTH"
);
},
{
closed = 1;
nodes = (
"69 238 LINE",
"69 205 LINE",
"69 238 LINE",
"69 271 LINE"
);
},
{
closed = 1;
nodes = (
"190 238 LINE",
"190 205 LINE",
"190 238 LINE",
"190 271 LINE"
);
},
{
closed = 1;
nodes = (
"394 238 LINE",
"394 205 LINE",
"394 238 LINE",
"394 271 LINE"
);
},
{
closed = 1;
nodes = (
"510 238 LINE",
"510 205 LINE",
"510 238 LINE",
"510 271 LINE"
);
},
{
closed = 1;
nodes = (
"169 387 LINE",
"402 387 LINE",
"400 387 LINE",
"167 387 LINE"
);
},
{
closed = 1;
nodes = (
"440 197 LINE",
"440 197 LINE",
"392 197 LINE",
"392 197 LINE"
);
},
{
closed = 1;
nodes = (
"500 197 LINE",
"500 197 LINE",
"452 197 LINE",
"452 197 LINE"
);
},
{
closed = 1;
nodes = (
"177 197 LINE",
"177 197 LINE",
"129 197 LINE",
"129 197 LINE"
);
},
{
closed = 1;
nodes = (
"117 197 LINE",
"117 197 LINE",
"69 197 LINE",
"69 197 LINE"
);
}
);
width = 600;
},
{
associatedMasterId = "87BE50FD-B083-4EB3-9928-F89871FBC1E0";
background = {
paths = (
{
closed = 1;
nodes = (
"320 512 OFFCURVE",
"243 457 OFFCURVE",
"214 425 CURVE",
"207 417 LINE",
"208 428 LINE",
"209 455 OFFCURVE",
"209 482 OFFCURVE",
"210 509 CURVE",
"197 514 LINE",
"167 468 OFFCURVE",
"124 457 OFFCURVE",
"13 453 CURVE",
"13 438 LINE",
"91 433 OFFCURVE",
"92 408 OFFCURVE",
"92 340 CURVE SMOOTH",
"92 134 LINE SMOOTH",
"92 61 OFFCURVE",
"90 18 OFFCURVE",
"14 15 CURVE",
"14 0 LINE",
"59 0 OFFCURVE",
"104 0 OFFCURVE",
"149 0 CURVE",
"196 0 OFFCURVE",
"242 0 OFFCURVE",
"289 0 CURVE",
"289 15 LINE",
"207 17 OFFCURVE",
"207 60 OFFCURVE",
"207 134 CURVE SMOOTH",
"207 387 LINE",
"237 410 OFFCURVE",
"294 441 OFFCURVE",
"343 441 CURVE SMOOTH",
"405 441 OFFCURVE",
"417 390 OFFCURVE",
"417 283 CURVE SMOOTH",
"417 134 LINE SMOOTH",
"417 61 OFFCURVE",
"416 18 OFFCURVE",
"337 15 CURVE",
"337 0 LINE",
"382 0 OFFCURVE",
"426 0 OFFCURVE",
"471 0 CURVE",
"516 0 OFFCURVE",
"560 0 OFFCURVE",
"605 0 CURVE",
"605 15 LINE",
"528 17 OFFCURVE",
"527 60 OFFCURVE",
"527 134 CURVE SMOOTH",
"527 254 LINE SMOOTH",
"527 434 OFFCURVE",
"503 512 OFFCURVE",
"393 512 CURVE SMOOTH"
);
},
{
closed = 1;
nodes = (
"146 373 LINE",
"146 54 LINE",
"146 44 LINE",
"146 54 LINE",
"146 378 LINE"
);
},
{
closed = 1;
nodes = (
"398 470 LINE",
"453 445 OFFCURVE",
"471 411 OFFCURVE",
"471 311 CURVE SMOOTH",
"471 51 LINE",
"471 41 LINE",
"471 51 LINE",
"471 311 LINE SMOOTH",
"471 411 OFFCURVE",
"453 445 OFFCURVE",
"398 470 CURVE"
);
},
{
closed = 1;
nodes = (
"309 85 LINE",
"309 75 LINE",
"309 85 LINE",
"309 368 LINE",
"309 378 LINE",
"309 368 LINE"
);
},
{
closed = 1;
nodes = (
"258 303 OFFCURVE",
"258 303 OFFCURVE",
"258 303 CURVE SMOOTH",
"258 303 OFFCURVE",
"258 303 OFFCURVE",
"258 303 CURVE SMOOTH",
"258 303 OFFCURVE",
"258 303 OFFCURVE",
"258 303 CURVE SMOOTH",
"258 303 OFFCURVE",
"258 303 OFFCURVE",
"258 303 CURVE SMOOTH"
);
},
{
closed = 1;
nodes = (
"258 163 OFFCURVE",
"258 163 OFFCURVE",
"258 163 CURVE SMOOTH",
"258 163 OFFCURVE",
"258 163 OFFCURVE",
"258 163 CURVE SMOOTH",
"258 163 OFFCURVE",
"258 163 OFFCURVE",
"258 163 CURVE SMOOTH",
"258 163 OFFCURVE",
"258 163 OFFCURVE",
"258 163 CURVE SMOOTH"
);
},
{
closed = 1;
nodes = (
"358 303 OFFCURVE",
"358 303 OFFCURVE",
"358 303 CURVE SMOOTH",
"358 303 OFFCURVE",
"358 303 OFFCURVE",
"358 303 CURVE SMOOTH",
"358 303 OFFCURVE",
"358 303 OFFCURVE",
"358 303 CURVE SMOOTH",
"358 303 OFFCURVE",
"358 303 OFFCURVE",
"358 303 CURVE SMOOTH"
);
},
{
closed = 1;
nodes = (
"358 163 OFFCURVE",
"358 163 OFFCURVE",
"358 163 CURVE SMOOTH",
"358 163 OFFCURVE",
"358 163 OFFCURVE",
"358 163 CURVE SMOOTH",
"358 163 OFFCURVE",
"358 163 OFFCURVE",
"358 163 CURVE SMOOTH",
"358 163 OFFCURVE",
"358 163 OFFCURVE",
"358 163 CURVE SMOOTH"
);
}
);
};
layerId = "9153F5E2-A943-4398-B5D2-C427CE122A89";
name = "{400}";
paths = (
{
closed = 1;
nodes = (
"310 512 OFFCURVE",
"223 447 OFFCURVE",
"126 378 CURVE",
"126 378 LINE",
"190 422 LINE",
"191 457 OFFCURVE",
"191 482 OFFCURVE",
"192 510 CURVE",
"192 510 LINE",
"153 491 OFFCURVE",
"109 472 OFFCURVE",
"70 453 CURVE",
"70 453 LINE",
"70 433 OFFCURVE",
"70 408 OFFCURVE",
"70 340 CURVE SMOOTH",
"70 134 LINE SMOOTH",
"70 61 OFFCURVE",
"70 18 OFFCURVE",
"70 0 CURVE",
"70 0 LINE",
"70 0 OFFCURVE",
"70 0 OFFCURVE",
"129 0 CURVE",
"189 0 OFFCURVE",
"189 0 OFFCURVE",
"189 0 CURVE",
"189 0 LINE",
"189 17 OFFCURVE",
"189 60 OFFCURVE",
"189 134 CURVE SMOOTH",
"189 387 LINE",
"219 410 OFFCURVE",
"274 441 OFFCURVE",
"323 441 CURVE SMOOTH",
"385 441 OFFCURVE",
"395 390 OFFCURVE",
"395 283 CURVE SMOOTH",
"395 134 LINE SMOOTH",
"395 61 OFFCURVE",
"395 18 OFFCURVE",
"395 0 CURVE",
"395 0 LINE",
"395 0 OFFCURVE",
"395 0 OFFCURVE",
"451 0 CURVE",
"509 0 OFFCURVE",
"509 0 OFFCURVE",
"509 0 CURVE",
"509 0 LINE",
"509 17 OFFCURVE",
"509 60 OFFCURVE",
"509 134 CURVE SMOOTH",
"509 254 LINE SMOOTH",
"509 434 OFFCURVE",
"483 512 OFFCURVE",
"383 512 CURVE SMOOTH"
);
},
{
closed = 1;
nodes = (
"126 373 LINE",
"126 54 LINE",
"126 44 LINE",
"126 54 LINE",
"126 378 LINE"
);
},
{
closed = 1;
nodes = (
"378 470 LINE",
"433 445 OFFCURVE",
"451 411 OFFCURVE",
"451 311 CURVE SMOOTH",
"451 51 LINE",
"451 41 LINE",
"451 51 LINE",
"451 311 LINE SMOOTH",
"451 411 OFFCURVE",
"433 445 OFFCURVE",
"378 470 CURVE"
);
},
{
closed = 1;
nodes = (
"289 85 LINE",
"289 75 LINE",
"289 85 LINE",
"289 368 LINE",
"289 378 LINE",
"289 368 LINE"
);
},
{
closed = 1;
nodes = (
"238 303 OFFCURVE",
"238 303 OFFCURVE",
"238 303 CURVE SMOOTH",
"238 303 OFFCURVE",
"238 303 OFFCURVE",
"238 303 CURVE SMOOTH",
"238 303 OFFCURVE",
"238 303 OFFCURVE",
"238 303 CURVE SMOOTH",
"238 303 OFFCURVE",
"238 303 OFFCURVE",
"238 303 CURVE SMOOTH"
);
},
{
closed = 1;
nodes = (
"238 163 OFFCURVE",
"238 163 OFFCURVE",
"238 163 CURVE SMOOTH",
"238 163 OFFCURVE",
"238 163 OFFCURVE",
"238 163 CURVE SMOOTH",
"238 163 OFFCURVE",
"238 163 OFFCURVE",
"238 163 CURVE SMOOTH",
"238 163 OFFCURVE",
"238 163 OFFCURVE",
"238 163 CURVE SMOOTH"
);
},
{
closed = 1;
nodes = (
"338 303 OFFCURVE",
"338 303 OFFCURVE",
"338 303 CURVE SMOOTH",
"338 303 OFFCURVE",
"338 303 OFFCURVE",
"338 303 CURVE SMOOTH",
"338 303 OFFCURVE",
"338 303 OFFCURVE",
"338 303 CURVE SMOOTH",
"338 303 OFFCURVE",
"338 303 OFFCURVE",
"338 303 CURVE SMOOTH"
);
},
{
closed = 1;
nodes = (
"338 163 OFFCURVE",
"338 163 OFFCURVE",
"338 163 CURVE SMOOTH",
"338 163 OFFCURVE",
"338 163 OFFCURVE",
"338 163 CURVE SMOOTH",
"338 163 OFFCURVE",
"338 163 OFFCURVE",
"338 163 CURVE SMOOTH",
"338 163 OFFCURVE",
"338 163 OFFCURVE",
"338 163 CURVE SMOOTH"
);
},
{
closed = 1;
nodes = (
"70 238 LINE",
"70 205 LINE",
"70 238 LINE",
"70 271 LINE"
);
},
{
closed = 1;
nodes = (
"189 238 LINE",
"189 205 LINE",
"189 238 LINE",
"189 271 LINE"
);
},
{
closed = 1;
nodes = (
"395 238 LINE",
"395 205 LINE",
"395 238 LINE",
"395 271 LINE"
);
},
{
closed = 1;
nodes = (
"509 238 LINE",
"509 205 LINE",
"509 238 LINE",
"509 271 LINE"
);
},
{
closed = 1;
nodes = (
"169 387 LINE",
"402 387 LINE",
"400 387 LINE",
"167 387 LINE"
);
},
{
closed = 1;
nodes = (
"440 197 LINE",
"440 197 LINE",
"392 197 LINE",
"392 197 LINE"
);
},
{
closed = 1;
nodes = (
"500 197 LINE",
"500 197 LINE",
"452 197 LINE",
"452 197 LINE"
);
},
{
closed = 1;
nodes = (
"177 197 LINE",
"177 197 LINE",
"129 197 LINE",
"129 197 LINE"
);
},
{
closed = 1;
nodes = (
"117 197 LINE",
"117 197 LINE",
"69 197 LINE",
"69 197 LINE"
);
}
);
width = 600;
},
{
associatedMasterId = "87BE50FD-B083-4EB3-9928-F89871FBC1E0";
background = {
paths = (
{
closed = 1;
nodes = (
"320 512 OFFCURVE",
"243 457 OFFCURVE",
"214 425 CURVE",
"207 417 LINE",
"208 428 LINE",
"209 455 OFFCURVE",
"209 482 OFFCURVE",
"210 509 CURVE",
"197 514 LINE",
"167 468 OFFCURVE",
"124 457 OFFCURVE",
"13 453 CURVE",
"13 438 LINE",
"91 433 OFFCURVE",
"92 408 OFFCURVE",
"92 340 CURVE SMOOTH",
"92 134 LINE SMOOTH",
"92 61 OFFCURVE",
"90 18 OFFCURVE",
"14 15 CURVE",
"14 0 LINE",
"59 0 OFFCURVE",
"104 0 OFFCURVE",
"149 0 CURVE",
"196 0 OFFCURVE",
"242 0 OFFCURVE",
"289 0 CURVE",
"289 15 LINE",
"207 17 OFFCURVE",
"207 60 OFFCURVE",
"207 134 CURVE SMOOTH",
"207 387 LINE",
"237 410 OFFCURVE",
"294 441 OFFCURVE",
"343 441 CURVE SMOOTH",
"405 441 OFFCURVE",
"417 390 OFFCURVE",
"417 283 CURVE SMOOTH",
"417 134 LINE SMOOTH",
"417 61 OFFCURVE",
"416 18 OFFCURVE",
"337 15 CURVE",
"337 0 LINE",
"382 0 OFFCURVE",
"426 0 OFFCURVE",
"471 0 CURVE",
"516 0 OFFCURVE",
"560 0 OFFCURVE",
"605 0 CURVE",
"605 15 LINE",
"528 17 OFFCURVE",
"527 60 OFFCURVE",
"527 134 CURVE SMOOTH",
"527 254 LINE SMOOTH",
"527 434 OFFCURVE",
"503 512 OFFCURVE",
"393 512 CURVE SMOOTH"
);
},
{
closed = 1;
nodes = (
"146 373 LINE",
"146 54 LINE",
"146 44 LINE",
"146 54 LINE",
"146 378 LINE"
);
},
{
closed = 1;
nodes = (
"398 470 LINE",
"453 445 OFFCURVE",
"471 411 OFFCURVE",
"471 311 CURVE SMOOTH",
"471 51 LINE",
"471 41 LINE",
"471 51 LINE",
"471 311 LINE SMOOTH",
"471 411 OFFCURVE",
"453 445 OFFCURVE",
"398 470 CURVE"
);
},
{
closed = 1;
nodes = (
"309 85 LINE",
"309 75 LINE",
"309 85 LINE",
"309 368 LINE",
"309 378 LINE",
"309 368 LINE"
);
},
{
closed = 1;
nodes = (
"258 303 OFFCURVE",
"258 303 OFFCURVE",
"258 303 CURVE SMOOTH",
"258 303 OFFCURVE",
"258 303 OFFCURVE",
"258 303 CURVE SMOOTH",
"258 303 OFFCURVE",
"258 303 OFFCURVE",
"258 303 CURVE SMOOTH",
"258 303 OFFCURVE",
"258 303 OFFCURVE",
"258 303 CURVE SMOOTH"
);
},
{
closed = 1;
nodes = (
"258 163 OFFCURVE",
"258 163 OFFCURVE",
"258 163 CURVE SMOOTH",
"258 163 OFFCURVE",
"258 163 OFFCURVE",
"258 163 CURVE SMOOTH",
"258 163 OFFCURVE",
"258 163 OFFCURVE",
"258 163 CURVE SMOOTH",
"258 163 OFFCURVE",
"258 163 OFFCURVE",
"258 163 CURVE SMOOTH"
);
},
{
closed = 1;
nodes = (
"358 303 OFFCURVE",
"358 303 OFFCURVE",
"358 303 CURVE SMOOTH",
"358 303 OFFCURVE",
"358 303 OFFCURVE",
"358 303 CURVE SMOOTH",
"358 303 OFFCURVE",
"358 303 OFFCURVE",
"358 303 CURVE SMOOTH",
"358 303 OFFCURVE",
"358 303 OFFCURVE",
"358 303 CURVE SMOOTH"
);
},
{
closed = 1;
nodes = (
"358 163 OFFCURVE",
"358 163 OFFCURVE",
"358 163 CURVE SMOOTH",
"358 163 OFFCURVE",
"358 163 OFFCURVE",
"358 163 CURVE SMOOTH",
"358 163 OFFCURVE",
"358 163 OFFCURVE",
"358 163 CURVE SMOOTH",
"358 163 OFFCURVE",
"358 163 OFFCURVE",
"358 163 CURVE SMOOTH"
);
}
);
};
layerId = "3979CC48-DC88-454B-8F6F-63799A8D72FD";
name = "{500}";
paths = (
{
closed = 1;
nodes = (
"313 512 OFFCURVE",
"226 447 OFFCURVE",
"129 378 CURVE",
"129 378 LINE",
"191 422 LINE",
"192 457 OFFCURVE",
"192 482 OFFCURVE",
"193 510 CURVE",
"193 510 LINE",
"144 491 OFFCURVE",
"95 472 OFFCURVE",
"46 453 CURVE",
"46 453 LINE",
"64 433 OFFCURVE",
"75 408 OFFCURVE",
"75 340 CURVE SMOOTH",
"75 134 LINE SMOOTH",
"75 61 OFFCURVE",
"63 18 OFFCURVE",
"52 0 CURVE",
"47 0 LINE",
"52 0 OFFCURVE",
"87 0 OFFCURVE",
"132 0 CURVE",
"179 0 OFFCURVE",
"212 0 OFFCURVE",
"212 0 CURVE",
"212 0 LINE",
"200 17 OFFCURVE",
"190 60 OFFCURVE",
"190 134 CURVE SMOOTH",
"190 387 LINE",
"220 410 OFFCURVE",
"277 441 OFFCURVE",
"326 441 CURVE SMOOTH",
"388 441 OFFCURVE",
"400 390 OFFCURVE",
"400 283 CURVE SMOOTH",
"400 134 LINE SMOOTH",
"400 61 OFFCURVE",
"390 18 OFFCURVE",
"371 0 CURVE",
"371 0 LINE",
"396 0 OFFCURVE",
"409 0 OFFCURVE",
"454 0 CURVE",
"499 0 OFFCURVE",
"523 0 OFFCURVE",
"538 0 CURVE",
"538 0 LINE",
"521 17 OFFCURVE",
"510 60 OFFCURVE",
"510 134 CURVE SMOOTH",
"510 254 LINE SMOOTH",
"510 434 OFFCURVE",
"486 512 OFFCURVE",
"386 512 CURVE SMOOTH"
);
},
{
closed = 1;
nodes = (
"129 373 LINE",
"129 54 LINE",
"129 44 LINE",
"129 54 LINE",
"129 378 LINE"
);
},
{
closed = 1;
nodes = (
"381 470 LINE",
"436 445 OFFCURVE",
"454 411 OFFCURVE",
"454 311 CURVE SMOOTH",
"454 51 LINE",
"454 41 LINE",
"454 51 LINE",
"454 311 LINE SMOOTH",
"454 411 OFFCURVE",
"436 445 OFFCURVE",
"381 470 CURVE"
);
},
{
closed = 1;
nodes = (
"292 85 LINE",
"292 75 LINE",
"292 85 LINE",
"292 368 LINE",
"292 378 LINE",
"292 368 LINE"
);
},
{
closed = 1;
nodes = (
"241 303 OFFCURVE",
"241 303 OFFCURVE",
"241 303 CURVE SMOOTH",
"241 303 OFFCURVE",
"241 303 OFFCURVE",
"241 303 CURVE SMOOTH",
"241 303 OFFCURVE",
"241 303 OFFCURVE",
"241 303 CURVE SMOOTH",
"241 303 OFFCURVE",
"241 303 OFFCURVE",
"241 303 CURVE SMOOTH"
);
},
{
closed = 1;
nodes = (
"241 163 OFFCURVE",
"241 163 OFFCURVE",
"241 163 CURVE SMOOTH",
"241 163 OFFCURVE",
"241 163 OFFCURVE",
"241 163 CURVE SMOOTH",
"241 163 OFFCURVE",
"241 163 OFFCURVE",
"241 163 CURVE SMOOTH",
"241 163 OFFCURVE",
"241 163 OFFCURVE",
"241 163 CURVE SMOOTH"
);
},
{
closed = 1;
nodes = (
"341 303 OFFCURVE",
"341 303 OFFCURVE",
"341 303 CURVE SMOOTH",
"341 303 OFFCURVE",
"341 303 OFFCURVE",
"341 303 CURVE SMOOTH",
"341 303 OFFCURVE",
"341 303 OFFCURVE",
"341 303 CURVE SMOOTH",
"341 303 OFFCURVE",
"341 303 OFFCURVE",
"341 303 CURVE SMOOTH"
);
},
{
closed = 1;
nodes = (
"341 163 OFFCURVE",
"341 163 OFFCURVE",
"341 163 CURVE SMOOTH",
"341 163 OFFCURVE",
"341 163 OFFCURVE",
"341 163 CURVE SMOOTH",
"341 163 OFFCURVE",
"341 163 OFFCURVE",
"341 163 CURVE SMOOTH",
"341 163 OFFCURVE",
"341 163 OFFCURVE",
"341 163 CURVE SMOOTH"
);
},
{
closed = 1;
nodes = (
"75 238 LINE",
"75 205 LINE",
"75 238 LINE",
"75 271 LINE"
);
},
{
closed = 1;
nodes = (
"190 238 LINE",
"190 205 LINE",
"190 238 LINE",
"190 271 LINE"
);
},
{
closed = 1;
nodes = (
"400 238 LINE",
"400 205 LINE",
"400 238 LINE",
"400 271 LINE"
);
},
{
closed = 1;
nodes = (
"510 238 LINE",
"510 205 LINE",
"510 238 LINE",
"510 271 LINE"
);
},
{
closed = 1;
nodes = (
"172 387 LINE",
"405 387 LINE",
"403 387 LINE",
"170 387 LINE"
);
},
{
closed = 1;
nodes = (
"443 197 LINE",
"443 197 LINE",
"395 197 LINE",
"395 197 LINE"
);
},
{
closed = 1;
nodes = (
"503 197 LINE",
"503 197 LINE",
"455 197 LINE",
"455 197 LINE"
);
},
{
closed = 1;
nodes = (
"180 197 LINE",
"180 197 LINE",
"132 197 LINE",
"132 197 LINE"
);
},
{
closed = 1;
nodes = (
"120 197 LINE",
"120 197 LINE",
"72 197 LINE",
"72 197 LINE"
);
}
);
width = 600;
},
{
associatedMasterId = "87BE50FD-B083-4EB3-9928-F89871FBC1E0";
background = {
paths = (
{
closed = 1;
nodes = (
"312 512 OFFCURVE",
"235 457 OFFCURVE",
"206 425 CURVE",
"199 417 LINE",
"200 428 LINE",
"201 455 OFFCURVE",
"201 482 OFFCURVE",
"202 509 CURVE",
"189 514 LINE",
"159 468 OFFCURVE",
"116 457 OFFCURVE",
"5 453 CURVE",
"5 438 LINE",
"83 433 OFFCURVE",
"84 408 OFFCURVE",
"84 340 CURVE SMOOTH",
"84 134 LINE SMOOTH",
"84 61 OFFCURVE",
"82 18 OFFCURVE",
"6 15 CURVE",
"6 0 LINE",
"51 0 OFFCURVE",
"96 0 OFFCURVE",
"141 0 CURVE",
"188 0 OFFCURVE",
"234 0 OFFCURVE",
"281 0 CURVE",
"281 15 LINE",
"199 17 OFFCURVE",
"199 60 OFFCURVE",
"199 134 CURVE SMOOTH",
"199 387 LINE",
"229 410 OFFCURVE",
"286 441 OFFCURVE",
"335 441 CURVE SMOOTH",
"397 441 OFFCURVE",
"409 390 OFFCURVE",
"409 283 CURVE SMOOTH",
"409 134 LINE SMOOTH",
"409 61 OFFCURVE",
"408 18 OFFCURVE",
"329 15 CURVE",
"329 0 LINE",
"374 0 OFFCURVE",
"418 0 OFFCURVE",
"463 0 CURVE",
"508 0 OFFCURVE",
"552 0 OFFCURVE",
"597 0 CURVE",
"597 15 LINE",
"520 17 OFFCURVE",
"519 60 OFFCURVE",
"519 134 CURVE SMOOTH",
"519 254 LINE SMOOTH",
"519 434 OFFCURVE",
"495 512 OFFCURVE",
"385 512 CURVE SMOOTH"
);
},
{
closed = 1;
nodes = (
"138 373 LINE",
"138 54 LINE",
"138 44 LINE",
"138 54 LINE",
"138 378 LINE"
);
},
{
closed = 1;
nodes = (
"390 470 LINE",
"445 445 OFFCURVE",
"463 411 OFFCURVE",
"463 311 CURVE SMOOTH",
"463 51 LINE",
"463 41 LINE",
"463 51 LINE",
"463 311 LINE SMOOTH",
"463 411 OFFCURVE",
"445 445 OFFCURVE",
"390 470 CURVE"
);
},
{
closed = 1;
nodes = (
"301 85 LINE",
"301 75 LINE",
"301 85 LINE",
"301 368 LINE",
"301 378 LINE",
"301 368 LINE"
);
},
{
closed = 1;
nodes = (
"250 303 OFFCURVE",
"250 303 OFFCURVE",
"250 303 CURVE SMOOTH",
"250 303 OFFCURVE",
"250 303 OFFCURVE",
"250 303 CURVE SMOOTH",
"250 303 OFFCURVE",
"250 303 OFFCURVE",
"250 303 CURVE SMOOTH",
"250 303 OFFCURVE",
"250 303 OFFCURVE",
"250 303 CURVE SMOOTH"
);
},
{
closed = 1;
nodes = (
"250 163 OFFCURVE",
"250 163 OFFCURVE",
"250 163 CURVE SMOOTH",
"250 163 OFFCURVE",
"250 163 OFFCURVE",
"250 163 CURVE SMOOTH",
"250 163 OFFCURVE",
"250 163 OFFCURVE",
"250 163 CURVE SMOOTH",
"250 163 OFFCURVE",
"250 163 OFFCURVE",
"250 163 CURVE SMOOTH"
);
},
{
closed = 1;
nodes = (
"350 303 OFFCURVE",
"350 303 OFFCURVE",
"350 303 CURVE SMOOTH",
"350 303 OFFCURVE",
"350 303 OFFCURVE",
"350 303 CURVE SMOOTH",
"350 303 OFFCURVE",
"350 303 OFFCURVE",
"350 303 CURVE SMOOTH",
"350 303 OFFCURVE",
"350 303 OFFCURVE",
"350 303 CURVE SMOOTH"
);
},
{
closed = 1;
nodes = (
"350 163 OFFCURVE",
"350 163 OFFCURVE",
"350 163 CURVE SMOOTH",
"350 163 OFFCURVE",
"350 163 OFFCURVE",
"350 163 CURVE SMOOTH",
"350 163 OFFCURVE",
"350 163 OFFCURVE",
"350 163 CURVE SMOOTH",
"350 163 OFFCURVE",
"350 163 OFFCURVE",
"350 163 CURVE SMOOTH"
);
}
);
};
layerId = "33B057A7-399F-46A8-ABAA-AFB6D81B11B6";
name = "{700}";
paths = (
{
closed = 1;
nodes = (
"312 512 OFFCURVE",
"202 432 OFFCURVE",
"132 376 CURVE",
"132 377 LINE",
"193 422 LINE",
"194 460 OFFCURVE",
"196 484 OFFCURVE",
"199 510 CURVE",
"194 512 LINE",
"148 482 OFFCURVE",
"103 466 OFFCURVE",
"9 453 CURVE",
"9 447 LINE",
"71 429 OFFCURVE",
"79 408 OFFCURVE",
"79 340 CURVE SMOOTH",
"79 134 LINE SMOOTH",
"79 61 OFFCURVE",
"62 23 OFFCURVE",
"44 3 CURVE",
"42 -1 LINE",
"52 0 OFFCURVE",
"84 2 OFFCURVE",
"131 2 CURVE",
"184 2 OFFCURVE",
"221 0 OFFCURVE",
"258 -1 CURVE",
"259 6 LINE",
"199 21 OFFCURVE",
"192 60 OFFCURVE",
"192 134 CURVE SMOOTH",
"192 387 LINE",
"222 410 OFFCURVE",
"280 441 OFFCURVE",
"329 441 CURVE SMOOTH",
"391 441 OFFCURVE",
"404 390 OFFCURVE",
"404 283 CURVE SMOOTH",
"404 134 LINE SMOOTH",
"404 61 OFFCURVE",
"385 22 OFFCURVE",
"364 3 CURVE",
"366 -1 LINE",
"397 0 OFFCURVE",
"407 2 OFFCURVE",
"454 2 CURVE",
"505 2 OFFCURVE",
"536 0 OFFCURVE",
"580 -1 CURVE",
"581 6 LINE",
"520 21 OFFCURVE",
"512 60 OFFCURVE",
"512 134 CURVE SMOOTH",
"512 254 LINE SMOOTH",
"512 434 OFFCURVE",
"489 512 OFFCURVE",
"385 512 CURVE SMOOTH"
);
},
{
closed = 1;
nodes = (
"132 375 LINE",
"132 54 LINE",
"132 44 LINE",
"132 54 LINE",
"132 377 LINE"
);
},
{
closed = 1;
nodes = (
"385 470 LINE",
"438 448 OFFCURVE",
"457 411 OFFCURVE",
"457 311 CURVE SMOOTH",
"457 51 LINE",
"457 41 LINE",
"457 51 LINE",
"457 311 LINE SMOOTH",
"457 411 OFFCURVE",
"438 448 OFFCURVE",
"385 470 CURVE"
);
},
{
closed = 1;
nodes = (
"295 85 LINE",
"295 75 LINE",
"295 85 LINE",
"295 368 LINE",
"295 378 LINE",
"295 368 LINE"
);
},
{
closed = 1;
nodes = (
"244 303 OFFCURVE",
"244 303 OFFCURVE",
"244 303 CURVE SMOOTH",
"244 303 OFFCURVE",
"244 303 OFFCURVE",
"244 303 CURVE SMOOTH",
"244 303 OFFCURVE",
"244 303 OFFCURVE",
"244 303 CURVE SMOOTH",
"244 303 OFFCURVE",
"244 303 OFFCURVE",
"244 303 CURVE SMOOTH"
);
},
{
closed = 1;
nodes = (
"244 163 OFFCURVE",
"244 163 OFFCURVE",
"244 163 CURVE SMOOTH",
"244 163 OFFCURVE",
"244 163 OFFCURVE",
"244 163 CURVE SMOOTH",
"244 163 OFFCURVE",
"244 163 OFFCURVE",
"244 163 CURVE SMOOTH",
"244 163 OFFCURVE",
"244 163 OFFCURVE",
"244 163 CURVE SMOOTH"
);
},
{
closed = 1;
nodes = (
"344 303 OFFCURVE",
"344 303 OFFCURVE",
"344 303 CURVE SMOOTH",
"344 303 OFFCURVE",
"344 303 OFFCURVE",
"344 303 CURVE SMOOTH",
"344 303 OFFCURVE",
"344 303 OFFCURVE",
"344 303 CURVE SMOOTH",
"344 303 OFFCURVE",
"344 303 OFFCURVE",
"344 303 CURVE SMOOTH"
);
},
{
closed = 1;
nodes = (
"344 163 OFFCURVE",
"344 163 OFFCURVE",
"344 163 CURVE SMOOTH",
"344 163 OFFCURVE",
"344 163 OFFCURVE",
"344 163 CURVE SMOOTH",
"344 163 OFFCURVE",
"344 163 OFFCURVE",
"344 163 CURVE SMOOTH",
"344 163 OFFCURVE",
"344 163 OFFCURVE",
"344 163 CURVE SMOOTH"
);
},
{
closed = 1;
nodes = (
"79 238 LINE",
"79 205 LINE",
"79 238 LINE",
"79 271 LINE"
);
},
{
closed = 1;
nodes = (
"192 238 LINE",
"192 205 LINE",
"192 238 LINE",
"192 271 LINE"
);
},
{
closed = 1;
nodes = (
"404 238 LINE",
"404 205 LINE",
"404 238 LINE",
"404 271 LINE"
);
},
{
closed = 1;
nodes = (
"512 238 LINE",
"512 205 LINE",
"512 238 LINE",
"512 271 LINE"
);
},
{
closed = 1;
nodes = (
"183 387 LINE",
"416 387 LINE",
"414 387 LINE",
"181 387 LINE"
);
},
{
closed = 1;
nodes = (
"449 197 LINE",
"449 197 LINE",
"401 197 LINE",
"401 197 LINE"
);
},
{
closed = 1;
nodes = (
"509 197 LINE",
"509 197 LINE",
"461 197 LINE",
"461 197 LINE"
);
},
{
closed = 1;
nodes = (
"186 197 LINE",
"186 197 LINE",
"138 197 LINE",
"138 197 LINE"
);
},
{
closed = 1;
nodes = (
"126 197 LINE",
"126 197 LINE",
"78 197 LINE",
"78 197 LINE"
);
}
);
width = 601;
},
{
associatedMasterId = "87BE50FD-B083-4EB3-9928-F89871FBC1E0";
background = {
paths = (
{
closed = 1;
nodes = (
"309 512 OFFCURVE",
"232 457 OFFCURVE",
"203 425 CURVE",
"196 417 LINE",
"197 428 LINE",
"198 455 OFFCURVE",
"198 482 OFFCURVE",
"199 509 CURVE",
"186 514 LINE",
"156 468 OFFCURVE",
"113 457 OFFCURVE",
"2 453 CURVE",
"2 438 LINE",
"80 433 OFFCURVE",
"81 408 OFFCURVE",
"81 340 CURVE SMOOTH",
"81 134 LINE SMOOTH",
"81 61 OFFCURVE",
"79 18 OFFCURVE",
"3 15 CURVE",
"3 0 LINE",
"48 0 OFFCURVE",
"93 0 OFFCURVE",
"138 0 CURVE",
"185 0 OFFCURVE",
"231 0 OFFCURVE",
"278 0 CURVE",
"278 15 LINE",
"196 17 OFFCURVE",
"196 60 OFFCURVE",
"196 134 CURVE SMOOTH",
"196 387 LINE",
"226 410 OFFCURVE",
"283 441 OFFCURVE",
"332 441 CURVE SMOOTH",
"394 441 OFFCURVE",
"406 390 OFFCURVE",
"406 283 CURVE SMOOTH",
"406 134 LINE SMOOTH",
"406 61 OFFCURVE",
"405 18 OFFCURVE",
"326 15 CURVE",
"326 0 LINE",
"371 0 OFFCURVE",
"415 0 OFFCURVE",
"460 0 CURVE",
"505 0 OFFCURVE",
"549 0 OFFCURVE",
"594 0 CURVE",
"594 15 LINE",
"517 17 OFFCURVE",
"516 60 OFFCURVE",
"516 134 CURVE SMOOTH",
"516 254 LINE SMOOTH",
"516 434 OFFCURVE",
"492 512 OFFCURVE",
"382 512 CURVE SMOOTH"
);
},
{
closed = 1;
nodes = (
"135 373 LINE",
"135 54 LINE",
"135 44 LINE",
"135 54 LINE",
"135 378 LINE"
);
},
{
closed = 1;
nodes = (
"387 470 LINE",
"442 445 OFFCURVE",
"460 411 OFFCURVE",
"460 311 CURVE SMOOTH",
"460 51 LINE",
"460 41 LINE",
"460 51 LINE",
"460 311 LINE SMOOTH",
"460 411 OFFCURVE",
"442 445 OFFCURVE",
"387 470 CURVE"
);
},
{
closed = 1;
nodes = (
"298 85 LINE",
"298 75 LINE",
"298 85 LINE",
"298 368 LINE",
"298 378 LINE",
"298 368 LINE"
);
},
{
closed = 1;
nodes = (
"247 303 OFFCURVE",
"247 303 OFFCURVE",
"247 303 CURVE SMOOTH",
"247 303 OFFCURVE",
"247 303 OFFCURVE",
"247 303 CURVE SMOOTH",
"247 303 OFFCURVE",
"247 303 OFFCURVE",
"247 303 CURVE SMOOTH",
"247 303 OFFCURVE",
"247 303 OFFCURVE",
"247 303 CURVE SMOOTH"
);
},
{
closed = 1;
nodes = (
"247 163 OFFCURVE",
"247 163 OFFCURVE",
"247 163 CURVE SMOOTH",
"247 163 OFFCURVE",
"247 163 OFFCURVE",
"247 163 CURVE SMOOTH",
"247 163 OFFCURVE",
"247 163 OFFCURVE",
"247 163 CURVE SMOOTH",
"247 163 OFFCURVE",
"247 163 OFFCURVE",
"247 163 CURVE SMOOTH"
);
},
{
closed = 1;
nodes = (
"347 303 OFFCURVE",
"347 303 OFFCURVE",
"347 303 CURVE SMOOTH",
"347 303 OFFCURVE",
"347 303 OFFCURVE",
"347 303 CURVE SMOOTH",
"347 303 OFFCURVE",
"347 303 OFFCURVE",
"347 303 CURVE SMOOTH",
"347 303 OFFCURVE",
"347 303 OFFCURVE",
"347 303 CURVE SMOOTH"
);
},
{
closed = 1;
nodes = (
"347 163 OFFCURVE",
"347 163 OFFCURVE",
"347 163 CURVE SMOOTH",
"347 163 OFFCURVE",
"347 163 OFFCURVE",
"347 163 CURVE SMOOTH",
"347 163 OFFCURVE",
"347 163 OFFCURVE",
"347 163 CURVE SMOOTH",
"347 163 OFFCURVE",
"347 163 OFFCURVE",
"347 163 CURVE SMOOTH"
);
}
);
};
layerId = "20B7A65A-EF42-475E-90B0-CEBABF58DA56";
name = "{800}";
paths = (
{
closed = 1;
nodes = (
"308 512 OFFCURVE",
"197 428 OFFCURVE",
"132 376 CURVE",
"126 378 LINE",
"192 433 LINE",
"193 461 OFFCURVE",
"195 484 OFFCURVE",
"199 510 CURVE",
"193 512 LINE",
"148 480 OFFCURVE",
"101 465 OFFCURVE",
"1 453 CURVE",
"1 446 LINE",
"69 428 OFFCURVE",
"73 408 OFFCURVE",
"73 340 CURVE SMOOTH",
"73 134 LINE SMOOTH",
"73 61 OFFCURVE",
"58 24 OFFCURVE",
"38 4 CURVE",
"37 -1 LINE",
"48 0 OFFCURVE",
"80 3 OFFCURVE",
"127 3 CURVE",
"182 3 OFFCURVE",
"220 0 OFFCURVE",
"261 -1 CURVE",
"262 7 LINE",
"195 22 OFFCURVE",
"191 60 OFFCURVE",
"191 134 CURVE SMOOTH",
"191 387 LINE",
"221 410 OFFCURVE",
"277 441 OFFCURVE",
"326 441 CURVE SMOOTH",
"388 441 OFFCURVE",
"399 390 OFFCURVE",
"399 283 CURVE SMOOTH",
"399 134 LINE SMOOTH",
"399 61 OFFCURVE",
"380 23 OFFCURVE",
"359 4 CURVE",
"361 -1 LINE",
"393 0 OFFCURVE",
"403 3 OFFCURVE",
"450 3 CURVE",
"503 3 OFFCURVE",
"535 0 OFFCURVE",
"582 -1 CURVE",
"583 7 LINE",
"516 22 OFFCURVE",
"512 60 OFFCURVE",
"512 134 CURVE SMOOTH",
"512 254 LINE SMOOTH",
"512 434 OFFCURVE",
"486 512 OFFCURVE",
"381 512 CURVE SMOOTH"
);
},
{
closed = 1;
nodes = (
"135 376 LINE",
"135 54 LINE",
"132 44 LINE",
"129 54 LINE",
"129 378 LINE"
);
},
{
closed = 1;
nodes = (
"384 470 LINE",
"442 455 OFFCURVE",
"458 411 OFFCURVE",
"458 311 CURVE SMOOTH",
"458 51 LINE",
"456 41 LINE",
"453 51 LINE",
"453 311 LINE SMOOTH",
"453 411 OFFCURVE",
"437 449 OFFCURVE",
"384 470 CURVE"
);
},
{
closed = 1;
nodes = (
"292 85 LINE",
"292 75 LINE",
"292 85 LINE",
"292 348 LINE",
"292 358 LINE",
"292 348 LINE"
);
},
{
closed = 1;
nodes = (
"241 293 OFFCURVE",
"241 293 OFFCURVE",
"241 293 CURVE SMOOTH",
"241 293 OFFCURVE",
"241 293 OFFCURVE",
"241 293 CURVE SMOOTH",
"241 293 OFFCURVE",
"241 293 OFFCURVE",
"241 293 CURVE SMOOTH",
"241 293 OFFCURVE",
"241 293 OFFCURVE",
"241 293 CURVE SMOOTH"
);
},
{
closed = 1;
nodes = (
"241 163 OFFCURVE",
"241 163 OFFCURVE",
"241 163 CURVE SMOOTH",
"241 163 OFFCURVE",
"241 163 OFFCURVE",
"241 163 CURVE SMOOTH",
"241 163 OFFCURVE",
"241 163 OFFCURVE",
"241 163 CURVE SMOOTH",
"241 163 OFFCURVE",
"241 163 OFFCURVE",
"241 163 CURVE SMOOTH"
);
},
{
closed = 1;
nodes = (
"341 293 OFFCURVE",
"341 293 OFFCURVE",
"341 293 CURVE SMOOTH",
"341 293 OFFCURVE",
"341 293 OFFCURVE",
"341 293 CURVE SMOOTH",
"341 293 OFFCURVE",
"341 293 OFFCURVE",
"341 293 CURVE SMOOTH",
"341 293 OFFCURVE",
"341 293 OFFCURVE",
"341 293 CURVE SMOOTH"
);
},
{
closed = 1;
nodes = (
"341 163 OFFCURVE",
"341 163 OFFCURVE",
"341 163 CURVE SMOOTH",
"341 163 OFFCURVE",
"341 163 OFFCURVE",
"341 163 CURVE SMOOTH",
"341 163 OFFCURVE",
"341 163 OFFCURVE",
"341 163 CURVE SMOOTH",
"341 163 OFFCURVE",
"341 163 OFFCURVE",
"341 163 CURVE SMOOTH"
);
},
{
closed = 1;
nodes = (
"73 238 LINE",
"73 165 LINE",
"73 238 LINE",
"73 281 LINE"
);
},
{
closed = 1;
nodes = (
"191 238 LINE",
"191 165 LINE",
"191 238 LINE",
"191 281 LINE"
);
},
{
closed = 1;
nodes = (
"399 238 LINE",
"399 165 LINE",
"399 238 LINE",
"399 281 LINE"
);
},
{
closed = 1;
nodes = (
"512 238 LINE",
"512 165 LINE",
"512 238 LINE",
"512 281 LINE"
);
},
{
closed = 1;
nodes = (
"183 385 LINE",
"416 385 LINE",
"414 385 LINE",
"181 385 LINE"
);
},
{
closed = 1;
nodes = (
"453 197 LINE",
"453 197 LINE",
"399 197 LINE",
"399 197 LINE"
);
},
{
closed = 1;
nodes = (
"512 197 LINE",
"512 197 LINE",
"458 197 LINE",
"458 197 LINE"
);
},
{
closed = 1;
nodes = (
"191 197 LINE",
"191 197 LINE",
"135 197 LINE",
"135 197 LINE"
);
},
{
closed = 1;
nodes = (
"129 197 LINE",
"129 197 LINE",
"73 197 LINE",
"73 197 LINE"
);
}
);
width = 601;
},
{
associatedMasterId = "87BE50FD-B083-4EB3-9928-F89871FBC1E0";
background = {
paths = (
{
closed = 1;
nodes = (
"351 502 OFFCURVE",
"307 502 OFFCURVE",
"91 493 CURVE",
"148 472 LINE",
"213 478 LINE",
"213 484 OFFCURVE",
"213 451 OFFCURVE",
"213 484 CURVE",
"213 484 LINE",
"173 484 OFFCURVE",
"132 483 OFFCURVE",
"91 493 CURVE",
"91 493 LINE",
"91 417 OFFCURVE",
"91 433 OFFCURVE",
"91 360 CURVE SMOOTH",
"91 134 LINE SMOOTH",
"91 61 OFFCURVE",
"91 18 OFFCURVE",
"91 0 CURVE",
"91 0 LINE",
"91 0 OFFCURVE",
"91 0 OFFCURVE",
"151 0 CURVE",
"212 0 OFFCURVE",
"212 0 OFFCURVE",
"212 0 CURVE",
"212 0 LINE",
"212 17 OFFCURVE",
"212 60 OFFCURVE",
"212 134 CURVE SMOOTH",
"212 407 LINE",
"242 409 OFFCURVE",
"318 412 OFFCURVE",
"362 412 CURVE SMOOTH",
"402 412 OFFCURVE",
"416 400 OFFCURVE",
"416 360 CURVE SMOOTH",
"416 134 LINE SMOOTH",
"416 61 OFFCURVE",
"416 18 OFFCURVE",
"416 0 CURVE",
"416 0 LINE",
"416 0 OFFCURVE",
"416 0 OFFCURVE",
"473 0 CURVE",
"532 0 OFFCURVE",
"532 0 OFFCURVE",
"532 0 CURVE",
"532 0 LINE",
"532 17 OFFCURVE",
"532 60 OFFCURVE",
"532 134 CURVE SMOOTH",
"532 360 LINE SMOOTH",
"532 461 OFFCURVE",
"512 502 OFFCURVE",
"402 502 CURVE SMOOTH"
);
},
{
closed = 1;
nodes = (
"148 467 LINE",
"148 54 LINE",
"148 44 LINE",
"148 54 LINE",
"148 472 LINE"
);
},
{
closed = 1;
nodes = (
"400 470 LINE",
"455 445 OFFCURVE",
"473 431 OFFCURVE",
"473 331 CURVE SMOOTH",
"473 51 LINE",
"473 41 LINE",
"473 51 LINE",
"473 331 LINE SMOOTH",
"473 431 OFFCURVE",
"455 445 OFFCURVE",
"400 470 CURVE"
);
},
{
closed = 1;
nodes = (
"311 85 LINE",
"311 75 LINE",
"311 85 LINE",
"311 369 LINE",
"311 379 LINE",
"311 369 LINE"
);
},
{
closed = 1;
nodes = (
"260 323 OFFCURVE",
"260 323 OFFCURVE",
"260 323 CURVE SMOOTH",
"260 323 OFFCURVE",
"260 323 OFFCURVE",
"260 323 CURVE SMOOTH",
"260 323 OFFCURVE",
"260 323 OFFCURVE",
"260 323 CURVE SMOOTH",
"260 323 OFFCURVE",
"260 323 OFFCURVE",
"260 323 CURVE SMOOTH"
);
},
{
closed = 1;
nodes = (
"260 163 OFFCURVE",
"260 163 OFFCURVE",
"260 163 CURVE SMOOTH",
"260 163 OFFCURVE",
"260 163 OFFCURVE",
"260 163 CURVE SMOOTH",
"260 163 OFFCURVE",
"260 163 OFFCURVE",
"260 163 CURVE SMOOTH",
"260 163 OFFCURVE",
"260 163 OFFCURVE",
"260 163 CURVE SMOOTH"
);
},
{
closed = 1;
nodes = (
"360 323 OFFCURVE",
"360 323 OFFCURVE",
"360 323 CURVE SMOOTH",
"360 323 OFFCURVE",
"360 323 OFFCURVE",
"360 323 CURVE SMOOTH",
"360 323 OFFCURVE",
"360 323 OFFCURVE",
"360 323 CURVE SMOOTH",
"360 323 OFFCURVE",
"360 323 OFFCURVE",
"360 323 CURVE SMOOTH"
);
},
{
closed = 1;
nodes = (
"360 163 OFFCURVE",
"360 163 OFFCURVE",
"360 163 CURVE SMOOTH",
"360 163 OFFCURVE",
"360 163 OFFCURVE",
"360 163 CURVE SMOOTH",
"360 163 OFFCURVE",
"360 163 OFFCURVE",
"360 163 CURVE SMOOTH",
"360 163 OFFCURVE",
"360 163 OFFCURVE",
"360 163 CURVE SMOOTH"
);
},
{
closed = 1;
nodes = (
"91 238 LINE",
"91 205 LINE",
"91 238 LINE",
"91 291 LINE"
);
},
{
closed = 1;
nodes = (
"212 238 LINE",
"212 205 LINE",
"212 238 LINE",
"212 291 LINE"
);
},
{
closed = 1;
nodes = (
"416 238 LINE",
"416 205 LINE",
"416 238 LINE",
"416 291 LINE"
);
},
{
closed = 1;
nodes = (
"532 238 LINE",
"532 205 LINE",
"532 238 LINE",
"532 280 LINE"
);
},
{
closed = 1;
nodes = (
"191 387 LINE",
"424 387 LINE",
"422 387 LINE",
"189 387 LINE"
);
},
{
closed = 1;
nodes = (
"471 197 LINE",
"471 197 LINE",
"423 197 LINE",
"423 197 LINE"
);
},
{
closed = 1;
nodes = (
"531 197 LINE",
"531 197 LINE",
"483 197 LINE",
"483 197 LINE"
);
},
{
closed = 1;
nodes = (
"208 197 LINE",
"208 197 LINE",
"160 197 LINE",
"160 197 LINE"
);
},
{
closed = 1;
nodes = (
"148 197 LINE",
"148 197 LINE",
"100 197 LINE",
"100 197 LINE"
);
}
);
};
layerId = "6B468D06-CFEE-40C9-9616-F41430A6973D";
name = "{900}";
paths = (
{
closed = 1;
nodes = (
"306 512 OFFCURVE",
"168 408 OFFCURVE",
"141 373 CURVE",
"129 378 LINE",
"192 444 LINE",
"199 471 OFFCURVE",
"211 487 OFFCURVE",
"223 505 CURVE",
"210 514 LINE",
"150 468 OFFCURVE",
"110 457 OFFCURVE",
"-1 453 CURVE",
"-1 438 LINE",
"77 423 OFFCURVE",
"81 408 OFFCURVE",
"81 340 CURVE SMOOTH",
"81 134 LINE SMOOTH",
"81 61 OFFCURVE",
"56 31 OFFCURVE",
"26 8 CURVE",
"30 -3 LINE",
"47 0 OFFCURVE",
"75 7 OFFCURVE",
"125 7 CURVE",
"189 7 OFFCURVE",
"231 0 OFFCURVE",
"273 -3 CURVE",
"275 15 LINE",
"193 27 OFFCURVE",
"189 60 OFFCURVE",
"189 134 CURVE SMOOTH",
"189 387 LINE",
"219 410 OFFCURVE",
"280 441 OFFCURVE",
"329 441 CURVE SMOOTH",
"390 441 OFFCURVE",
"404 390 OFFCURVE",
"404 283 CURVE SMOOTH",
"404 134 LINE SMOOTH",
"404 61 OFFCURVE",
"373 28 OFFCURVE",
"349 8 CURVE",
"353 -3 LINE",
"392 0 OFFCURVE",
"399 7 OFFCURVE",
"449 7 CURVE",
"510 7 OFFCURVE",
"550 0 OFFCURVE",
"589 -3 CURVE",
"591 15 LINE",
"515 27 OFFCURVE",
"512 60 OFFCURVE",
"512 134 CURVE SMOOTH",
"512 254 LINE SMOOTH",
"512 433 OFFCURVE",
"491 512 OFFCURVE",
"379 512 CURVE SMOOTH"
);
},
{
closed = 1;
nodes = (
"141 373 LINE",
"141 54 LINE",
"135 47 LINE",
"129 54 LINE",
"129 378 LINE"
);
},
{
closed = 1;
nodes = (
"389 470 LINE",
"450 465 OFFCURVE",
"464 411 OFFCURVE",
"464 311 CURVE SMOOTH",
"464 51 LINE",
"458 44 LINE",
"452 51 LINE",
"452 311 LINE SMOOTH",
"452 411 OFFCURVE",
"439 453 OFFCURVE",
"389 470 CURVE"
);
},
{
closed = 1;
nodes = (
"287 107 LINE",
"295 99 LINE",
"303 107 LINE",
"303 332 LINE",
"295 340 LINE",
"287 332 LINE"
);
},
{
closed = 1;
nodes = (
"251 289 OFFCURVE",
"256 294 OFFCURVE",
"256 301 CURVE SMOOTH",
"256 308 OFFCURVE",
"251 313 OFFCURVE",
"244 313 CURVE SMOOTH",
"237 313 OFFCURVE",
"232 308 OFFCURVE",
"232 301 CURVE SMOOTH",
"232 294 OFFCURVE",
"237 289 OFFCURVE",
"244 289 CURVE SMOOTH"
);
},
{
closed = 1;
nodes = (
"251 149 OFFCURVE",
"256 154 OFFCURVE",
"256 161 CURVE SMOOTH",
"256 168 OFFCURVE",
"251 173 OFFCURVE",
"244 173 CURVE SMOOTH",
"237 173 OFFCURVE",
"232 168 OFFCURVE",
"232 161 CURVE SMOOTH",
"232 154 OFFCURVE",
"237 149 OFFCURVE",
"244 149 CURVE SMOOTH"
);
},
{
closed = 1;
nodes = (
"352 289 OFFCURVE",
"357 294 OFFCURVE",
"357 301 CURVE SMOOTH",
"357 308 OFFCURVE",
"352 313 OFFCURVE",
"345 313 CURVE SMOOTH",
"338 313 OFFCURVE",
"333 308 OFFCURVE",
"333 301 CURVE SMOOTH",
"333 294 OFFCURVE",
"338 289 OFFCURVE",
"345 289 CURVE SMOOTH"
);
},
{
closed = 1;
nodes = (
"352 149 OFFCURVE",
"357 154 OFFCURVE",
"357 161 CURVE SMOOTH",
"357 168 OFFCURVE",
"352 173 OFFCURVE",
"345 173 CURVE SMOOTH",
"338 173 OFFCURVE",
"333 168 OFFCURVE",
"333 161 CURVE SMOOTH",
"333 154 OFFCURVE",
"338 149 OFFCURVE",
"345 149 CURVE SMOOTH"
);
},
{
closed = 1;
nodes = (
"48 238 LINE",
"81 205 LINE",
"113 238 LINE",
"81 271 LINE"
);
},
{
closed = 1;
nodes = (
"156 238 LINE",
"189 205 LINE",
"221 238 LINE",
"189 271 LINE"
);
},
{
closed = 1;
nodes = (
"371 238 LINE",
"404 205 LINE",
"436 238 LINE",
"404 271 LINE"
);
},
{
closed = 1;
nodes = (
"479 238 LINE",
"512 205 LINE",
"544 238 LINE",
"512 271 LINE"
);
},
{
closed = 1;
nodes = (
"186 386 LINE",
"419 388 LINE",
"417 402 LINE",
"184 401 LINE"
);
},
{
closed = 1;
nodes = (
"452 205 LINE",
"452 189 LINE",
"404 189 LINE",
"404 205 LINE"
);
},
{
closed = 1;
nodes = (
"512 205 LINE",
"512 189 LINE",
"464 189 LINE",
"464 205 LINE"
);
},
{
closed = 1;
nodes = (
"189 205 LINE",
"189 189 LINE",
"141 189 LINE",
"141 205 LINE"
);
},
{
closed = 1;
nodes = (
"129 205 LINE",
"129 189 LINE",
"81 189 LINE",
"81 205 LINE"
);
}
);
width = 600;
},
{
layerId = "9D15E9AA-FCC6-4A1A-804C-B0422A1CAE65";
paths = (
{
closed = 1;
nodes = (
"306 512 OFFCURVE",
"168 408 OFFCURVE",
"141 373 CURVE",
"129 378 LINE",
"192 444 LINE",
"199 471 OFFCURVE",
"211 487 OFFCURVE",
"223 505 CURVE",
"210 514 LINE",
"150 468 OFFCURVE",
"110 457 OFFCURVE",
"-1 453 CURVE",
"-1 438 LINE",
"77 423 OFFCURVE",
"81 408 OFFCURVE",
"81 340 CURVE SMOOTH",
"81 134 LINE SMOOTH",
"81 61 OFFCURVE",
"56 31 OFFCURVE",
"26 8 CURVE",
"30 -3 LINE",
"47 0 OFFCURVE",
"75 7 OFFCURVE",
"125 7 CURVE",
"189 7 OFFCURVE",
"231 0 OFFCURVE",
"273 -3 CURVE",
"275 15 LINE",
"193 27 OFFCURVE",
"189 60 OFFCURVE",
"189 134 CURVE SMOOTH",
"189 387 LINE",
"219 410 OFFCURVE",
"280 441 OFFCURVE",
"329 441 CURVE SMOOTH",
"390 441 OFFCURVE",
"404 390 OFFCURVE",
"404 283 CURVE SMOOTH",
"404 134 LINE SMOOTH",
"404 61 OFFCURVE",
"373 28 OFFCURVE",
"349 8 CURVE",
"353 -3 LINE",
"392 0 OFFCURVE",
"399 7 OFFCURVE",
"449 7 CURVE",
"510 7 OFFCURVE",
"550 0 OFFCURVE",
"589 -3 CURVE",
"591 15 LINE",
"515 27 OFFCURVE",
"512 60 OFFCURVE",
"512 134 CURVE SMOOTH",
"512 254 LINE SMOOTH",
"512 433 OFFCURVE",
"491 512 OFFCURVE",
"379 512 CURVE SMOOTH"
);
},
{
closed = 1;
nodes = (
"141 373 LINE",
"141 54 LINE",
"135 47 LINE",
"129 54 LINE",
"129 378 LINE"
);
},
{
closed = 1;
nodes = (
"389 470 LINE",
"450 465 OFFCURVE",
"464 411 OFFCURVE",
"464 311 CURVE SMOOTH",
"464 51 LINE",
"458 44 LINE",
"452 51 LINE",
"452 311 LINE SMOOTH",
"452 411 OFFCURVE",
"439 453 OFFCURVE",
"389 470 CURVE"
);
},
{
closed = 1;
nodes = (
"287 107 LINE",
"295 99 LINE",
"303 107 LINE",
"303 332 LINE",
"295 340 LINE",
"287 332 LINE"
);
},
{
closed = 1;
nodes = (
"251 289 OFFCURVE",
"256 294 OFFCURVE",
"256 301 CURVE SMOOTH",
"256 308 OFFCURVE",
"251 313 OFFCURVE",
"244 313 CURVE SMOOTH",
"237 313 OFFCURVE",
"232 308 OFFCURVE",
"232 301 CURVE SMOOTH",
"232 294 OFFCURVE",
"237 289 OFFCURVE",
"244 289 CURVE SMOOTH"
);
},
{
closed = 1;
nodes = (
"251 149 OFFCURVE",
"256 154 OFFCURVE",
"256 161 CURVE SMOOTH",
"256 168 OFFCURVE",
"251 173 OFFCURVE",
"244 173 CURVE SMOOTH",
"237 173 OFFCURVE",
"232 168 OFFCURVE",
"232 161 CURVE SMOOTH",
"232 154 OFFCURVE",
"237 149 OFFCURVE",
"244 149 CURVE SMOOTH"
);
},
{
closed = 1;
nodes = (
"352 289 OFFCURVE",
"357 294 OFFCURVE",
"357 301 CURVE SMOOTH",
"357 308 OFFCURVE",
"352 313 OFFCURVE",
"345 313 CURVE SMOOTH",
"338 313 OFFCURVE",
"333 308 OFFCURVE",
"333 301 CURVE SMOOTH",
"333 294 OFFCURVE",
"338 289 OFFCURVE",
"345 289 CURVE SMOOTH"
);
},
{
closed = 1;
nodes = (
"352 149 OFFCURVE",
"357 154 OFFCURVE",
"357 161 CURVE SMOOTH",
"357 168 OFFCURVE",
"352 173 OFFCURVE",
"345 173 CURVE SMOOTH",
"338 173 OFFCURVE",
"333 168 OFFCURVE",
"333 161 CURVE SMOOTH",
"333 154 OFFCURVE",
"338 149 OFFCURVE",
"345 149 CURVE SMOOTH"
);
},
{
closed = 1;
nodes = (
"48 238 LINE",
"81 205 LINE",
"113 238 LINE",
"81 271 LINE"
);
},
{
closed = 1;
nodes = (
"156 238 LINE",
"189 205 LINE",
"221 238 LINE",
"189 271 LINE"
);
},
{
closed = 1;
nodes = (
"371 238 LINE",
"404 205 LINE",
"436 238 LINE",
"404 271 LINE"
);
},
{
closed = 1;
nodes = (
"479 238 LINE",
"512 205 LINE",
"544 238 LINE",
"512 271 LINE"
);
},
{
closed = 1;
nodes = (
"186 386 LINE",
"419 388 LINE",
"417 402 LINE",
"184 401 LINE"
);
},
{
closed = 1;
nodes = (
"452 205 LINE",
"452 189 LINE",
"404 189 LINE",
"404 205 LINE"
);
},
{
closed = 1;
nodes = (
"512 205 LINE",
"512 189 LINE",
"464 189 LINE",
"464 205 LINE"
);
},
{
closed = 1;
nodes = (
"189 205 LINE",
"189 189 LINE",
"141 189 LINE",
"141 205 LINE"
);
},
{
closed = 1;
nodes = (
"129 205 LINE",
"129 189 LINE",
"81 189 LINE",
"81 205 LINE"
);
}
);
width = 601;
}
);
unicode = F002;
},
{
glyphname = contrast;
lastChange = "2017-04-22 14:47:55 +0000";
layers = (
{
background = {
paths = (
{
closed = 1;
nodes = (
"57 100 OFFCURVE",
"160 -10 OFFCURVE",
"301 -10 CURVE SMOOTH",
"442 -10 OFFCURVE",
"544 100 OFFCURVE",
"544 252 CURVE SMOOTH",
"544 401 OFFCURVE",
"442 510 OFFCURVE",
"301 510 CURVE",
"160 510 OFFCURVE",
"57 401 OFFCURVE",
"57 252 CURVE SMOOTH"
);
},
{
closed = 1;
nodes = (
"264 164 OFFCURVE",
"237 200 OFFCURVE",
"237 250 CURVE SMOOTH",
"237 303 OFFCURVE",
"264 342 OFFCURVE",
"301 342 CURVE SMOOTH",
"338 342 OFFCURVE",
"364 303 OFFCURVE",
"364 250 CURVE SMOOTH",
"364 200 OFFCURVE",
"338 164 OFFCURVE",
"301 164 CURVE SMOOTH"
);
}
);
};
layerId = "87BE50FD-B083-4EB3-9928-F89871FBC1E0";
paths = (
{
closed = 1;
nodes = (
"57 100 OFFCURVE",
"160 -10 OFFCURVE",
"301 -10 CURVE SMOOTH",
"442 -10 OFFCURVE",
"544 100 OFFCURVE",
"544 252 CURVE SMOOTH",
"544 401 OFFCURVE",
"442 510 OFFCURVE",
"301 510 CURVE",
"160 510 OFFCURVE",
"57 401 OFFCURVE",
"57 252 CURVE SMOOTH"
);
},
{
closed = 1;
nodes = (
"261 9 OFFCURVE",
"231 110 OFFCURVE",
"230 250 CURVE SMOOTH",
"231 391 OFFCURVE",
"261 492 OFFCURVE",
"300 492 CURVE SMOOTH",
"340 492 OFFCURVE",
"371 391 OFFCURVE",
"370 250 CURVE SMOOTH",
"371 110 OFFCURVE",
"340 9 OFFCURVE",
"300 9 CURVE SMOOTH"
);
}
);
width = 600;
},
{
associatedMasterId = "87BE50FD-B083-4EB3-9928-F89871FBC1E0";
background = {
paths = (
{
closed = 1;
nodes = (
"57 100 OFFCURVE",
"160 -10 OFFCURVE",
"301 -10 CURVE SMOOTH",
"442 -10 OFFCURVE",
"544 100 OFFCURVE",
"544 252 CURVE SMOOTH",
"544 401 OFFCURVE",
"442 510 OFFCURVE",
"301 510 CURVE",
"160 510 OFFCURVE",
"57 401 OFFCURVE",
"57 252 CURVE SMOOTH"
);
},
{
closed = 1;
nodes = (
"264 164 OFFCURVE",
"237 200 OFFCURVE",
"237 250 CURVE SMOOTH",
"237 303 OFFCURVE",
"264 342 OFFCURVE",
"301 342 CURVE SMOOTH",
"338 342 OFFCURVE",
"364 303 OFFCURVE",
"364 250 CURVE SMOOTH",
"364 200 OFFCURVE",
"338 164 OFFCURVE",
"301 164 CURVE SMOOTH"
);
}
);
};
layerId = "91665EFB-A99A-43FB-973E-E26F167CAEE5";
name = "{250}";
paths = (
{
closed = 1;
nodes = (
"57 100 OFFCURVE",
"160 -10 OFFCURVE",
"301 -10 CURVE SMOOTH",
"442 -10 OFFCURVE",
"544 100 OFFCURVE",
"544 252 CURVE SMOOTH",
"544 401 OFFCURVE",
"442 510 OFFCURVE",
"301 510 CURVE",
"160 510 OFFCURVE",
"57 401 OFFCURVE",
"57 252 CURVE SMOOTH"
);
},
{
closed = 1;
nodes = (
"239 113 OFFCURVE",
"200 169 OFFCURVE",
"200 249 CURVE SMOOTH",
"200 331 OFFCURVE",
"239 391 OFFCURVE",
"300 391 CURVE SMOOTH",
"361 391 OFFCURVE",
"401 331 OFFCURVE",
"401 249 CURVE SMOOTH",
"401 169 OFFCURVE",
"361 113 OFFCURVE",
"300 113 CURVE SMOOTH"
);
}
);
width = 600;
},
{
associatedMasterId = "87BE50FD-B083-4EB3-9928-F89871FBC1E0";
background = {
paths = (
{
closed = 1;
nodes = (
"57 100 OFFCURVE",
"160 -10 OFFCURVE",
"301 -10 CURVE SMOOTH",
"442 -10 OFFCURVE",
"544 100 OFFCURVE",
"544 252 CURVE SMOOTH",
"544 401 OFFCURVE",
"442 510 OFFCURVE",
"301 510 CURVE",
"160 510 OFFCURVE",
"57 401 OFFCURVE",
"57 252 CURVE SMOOTH"
);
},
{
closed = 1;
nodes = (
"264 164 OFFCURVE",
"237 200 OFFCURVE",
"237 250 CURVE SMOOTH",
"237 303 OFFCURVE",
"264 342 OFFCURVE",
"301 342 CURVE SMOOTH",
"338 342 OFFCURVE",
"364 303 OFFCURVE",
"364 250 CURVE SMOOTH",
"364 200 OFFCURVE",
"338 164 OFFCURVE",
"301 164 CURVE SMOOTH"
);
}
);
};
layerId = "B343C26F-F3FD-40FD-8564-468815548331";
name = "{500}";
paths = (
{
closed = 1;
nodes = (
"57 100 OFFCURVE",
"160 -10 OFFCURVE",
"301 -10 CURVE SMOOTH",
"442 -10 OFFCURVE",
"544 100 OFFCURVE",
"544 252 CURVE SMOOTH",
"544 401 OFFCURVE",
"442 510 OFFCURVE",
"301 510 CURVE",
"160 510 OFFCURVE",
"57 401 OFFCURVE",
"57 252 CURVE SMOOTH"
);
},
{
closed = 1;
nodes = (
"239 10 OFFCURVE",
"200 108 OFFCURVE",
"200 249 CURVE SMOOTH",
"200 389 OFFCURVE",
"239 491 OFFCURVE",
"300 491 CURVE SMOOTH",
"361 491 OFFCURVE",
"401 389 OFFCURVE",
"401 249 CURVE SMOOTH",
"401 108 OFFCURVE",
"361 10 OFFCURVE",
"300 10 CURVE SMOOTH"
);
}
);
width = 600;
},
{
associatedMasterId = "87BE50FD-B083-4EB3-9928-F89871FBC1E0";
background = {
paths = (
{
closed = 1;
nodes = (
"57 100 OFFCURVE",
"160 -10 OFFCURVE",
"301 -10 CURVE SMOOTH",
"442 -10 OFFCURVE",
"544 100 OFFCURVE",
"544 252 CURVE SMOOTH",
"544 401 OFFCURVE",
"442 510 OFFCURVE",
"301 510 CURVE",
"160 510 OFFCURVE",
"57 401 OFFCURVE",
"57 252 CURVE SMOOTH"
);
},
{
closed = 1;
nodes = (
"264 164 OFFCURVE",
"237 200 OFFCURVE",
"237 250 CURVE SMOOTH",
"237 303 OFFCURVE",
"264 342 OFFCURVE",
"301 342 CURVE SMOOTH",
"338 342 OFFCURVE",
"364 303 OFFCURVE",
"364 250 CURVE SMOOTH",
"364 200 OFFCURVE",
"338 164 OFFCURVE",
"301 164 CURVE SMOOTH"
);
}
);
};
layerId = "6715D2F3-D9D8-4813-8981-0ED88044EFFB";
name = "{750}";
paths = (
{
closed = 1;
nodes = (
"57 100 OFFCURVE",
"160 -10 OFFCURVE",
"301 -10 CURVE SMOOTH",
"442 -10 OFFCURVE",
"544 100 OFFCURVE",
"544 252 CURVE SMOOTH",
"544 401 OFFCURVE",
"442 510 OFFCURVE",
"301 510 CURVE",
"160 510 OFFCURVE",
"57 401 OFFCURVE",
"57 252 CURVE SMOOTH"
);
},
{
closed = 1;
nodes = (
"239 113 OFFCURVE",
"200 169 OFFCURVE",
"200 249 CURVE SMOOTH",
"200 331 OFFCURVE",
"239 391 OFFCURVE",
"300 391 CURVE SMOOTH",
"361 391 OFFCURVE",
"401 331 OFFCURVE",
"401 249 CURVE SMOOTH",
"401 169 OFFCURVE",
"361 113 OFFCURVE",
"300 113 CURVE SMOOTH"
);
}
);
width = 600;
},
{
layerId = "9D15E9AA-FCC6-4A1A-804C-B0422A1CAE65";
paths = (
{
closed = 1;
nodes = (
"57 100 OFFCURVE",
"160 -10 OFFCURVE",
"301 -10 CURVE SMOOTH",
"442 -10 OFFCURVE",
"544 100 OFFCURVE",
"544 252 CURVE SMOOTH",
"544 401 OFFCURVE",
"442 510 OFFCURVE",
"301 510 CURVE",
"160 510 OFFCURVE",
"57 401 OFFCURVE",
"57 252 CURVE SMOOTH"
);
},
{
closed = 1;
nodes = (
"261 9 OFFCURVE",
"231 110 OFFCURVE",
"230 250 CURVE SMOOTH",
"231 391 OFFCURVE",
"261 492 OFFCURVE",
"300 492 CURVE SMOOTH",
"340 492 OFFCURVE",
"371 391 OFFCURVE",
"370 250 CURVE SMOOTH",
"371 110 OFFCURVE",
"340 9 OFFCURVE",
"300 9 CURVE SMOOTH"
);
}
);
width = 600;
}
);
unicode = F00A;
},
{
glyphname = curvature;
lastChange = "2017-04-22 13:29:26 +0000";
layers = (
{
background = {
paths = (
{
closed = 1;
nodes = (
"442 -65 OFFCURVE",
"604 102 OFFCURVE",
"504 256 CURVE",
"604 403 OFFCURVE",
"442 565 OFFCURVE",
"300 485 CURVE",
"159 565 OFFCURVE",
"-3 400 OFFCURVE",
"97 247 CURVE",
"-3 98 OFFCURVE",
"160 -65 OFFCURVE",
"302 15 CURVE"
);
},
{
closed = 1;
nodes = (
"504 130 OFFCURVE",
"384 -11 OFFCURVE",
"300 69 CURVE",
"218 -11 OFFCURVE",
"98 130 OFFCURVE",
"197 249 CURVE",
"96 368 OFFCURVE",
"217 499 OFFCURVE",
"301 429 CURVE",
"382 509 OFFCURVE",
"502 368 OFFCURVE",
"403 249 CURVE"
);
}
);
};
layerId = "87BE50FD-B083-4EB3-9928-F89871FBC1E0";
paths = (
{
closed = 1;
nodes = (
"57 98 OFFCURVE",
"160 -10 OFFCURVE",
"302 -10 CURVE SMOOTH",
"442 -10 OFFCURVE",
"544 102 OFFCURVE",
"544 256 CURVE SMOOTH",
"544 403 OFFCURVE",
"442 510 OFFCURVE",
"300 510 CURVE",
"159 510 OFFCURVE",
"57 400 OFFCURVE",
"57 247 CURVE SMOOTH"
);
},
{
closed = 1;
nodes = (
"218 44 OFFCURVE",
"157 130 OFFCURVE",
"157 249 CURVE SMOOTH",
"157 368 OFFCURVE",
"217 454 OFFCURVE",
"301 454 CURVE SMOOTH",
"382 454 OFFCURVE",
"443 368 OFFCURVE",
"443 249 CURVE SMOOTH",
"443 130 OFFCURVE",
"384 44 OFFCURVE",
"300 44 CURVE SMOOTH"
);
}
);
width = 600;
},
{
associatedMasterId = "87BE50FD-B083-4EB3-9928-F89871FBC1E0";
layerId = "1296258A-4933-4C58-AE97-21F307C46B11";
name = "{300}";
paths = (
{
closed = 1;
nodes = (
"67 0 OFFCURVE",
"67 0 OFFCURVE",
"302 0 CURVE SMOOTH",
"534 0 OFFCURVE",
"534 0 OFFCURVE",
"534 256 CURVE SMOOTH",
"534 500 OFFCURVE",
"534 500 OFFCURVE",
"300 500 CURVE",
"67 500 OFFCURVE",
"67 500 OFFCURVE",
"67 247 CURVE SMOOTH"
);
},
{
closed = 1;
nodes = (
"169 54 OFFCURVE",
"167 54 OFFCURVE",
"167 249 CURVE SMOOTH",
"167 444 OFFCURVE",
"165 444 OFFCURVE",
"301 444 CURVE SMOOTH",
"431 444 OFFCURVE",
"433 444 OFFCURVE",
"433 249 CURVE SMOOTH",
"433 54 OFFCURVE",
"435 54 OFFCURVE",
"300 54 CURVE SMOOTH"
);
}
);
width = 600;
},
{
associatedMasterId = "87BE50FD-B083-4EB3-9928-F89871FBC1E0";
layerId = "C77A65EF-B07F-4C80-B76A-E16D933C69CA";
name = "{400}";
paths = (
{
closed = 1;
nodes = (
"57 109 OFFCURVE",
"90 -25 OFFCURVE",
"347 0 CURVE",
"347 0 OFFCURVE",
"536 58 OFFCURVE",
"539 186 CURVE SMOOTH",
"544 397 OFFCURVE",
"545 525 OFFCURVE",
"235 490 CURVE",
"235 490 OFFCURVE",
"65 430 OFFCURVE",
"62 304 CURVE SMOOTH"
);
},
{
closed = 1;
nodes = (
"192 55 OFFCURVE",
"157 152 OFFCURVE",
"162 300 CURVE",
"162 397 OFFCURVE",
"281 459 OFFCURVE",
"281 459 CURVE SMOOTH",
"452 459 OFFCURVE",
"443 341 OFFCURVE",
"443 188 CURVE SMOOTH",
"443 90 OFFCURVE",
"324 44 OFFCURVE",
"324 44 CURVE"
);
}
);
width = 600;
},
{
associatedMasterId = "87BE50FD-B083-4EB3-9928-F89871FBC1E0";
layerId = "75D678CB-7E55-42BB-A5FD-64EBFF33BEFE";
name = "{500}";
paths = (
{
closed = 1;
nodes = (
"27 158 OFFCURVE",
"112 -50 OFFCURVE",
"392 0 CURVE SMOOTH",
"392 0 OFFCURVE",
"544 116 OFFCURVE",
"544 116 CURVE",
"554 373 OFFCURVE",
"576 609 OFFCURVE",
"170 480 CURVE",
"170 480 OFFCURVE",
"57 360 OFFCURVE",
"57 360 CURVE SMOOTH"
);
},
{
closed = 1;
nodes = (
"208 76 OFFCURVE",
"127 190 OFFCURVE",
"157 350 CURVE SMOOTH",
"157 350 OFFCURVE",
"261 474 OFFCURVE",
"261 474 CURVE SMOOTH",
"473 454 OFFCURVE",
"433 318 OFFCURVE",
"452 126 CURVE",
"452 126 OFFCURVE",
"342 54 OFFCURVE",
"342 54 CURVE SMOOTH"
);
}
);
width = 600;
},
{
associatedMasterId = "87BE50FD-B083-4EB3-9928-F89871FBC1E0";
layerId = "864C2A03-898F-4B32-BBC0-4A576B85620B";
name = "{600}";
paths = (
{
closed = 1;
nodes = (
"16 186 OFFCURVE",
"234 -32 OFFCURVE",
"294 -32 CURVE SMOOTH",
"356 -32 OFFCURVE",
"584 196 OFFCURVE",
"584 257 CURVE SMOOTH",
"584 317 OFFCURVE",
"365 536 OFFCURVE",
"308 536 CURVE SMOOTH",
"247 536 OFFCURVE",
"16 304 OFFCURVE",
"16 245 CURVE SMOOTH"
);
},
{
closed = 1;
nodes = (
"285 63 OFFCURVE",
"112 237 OFFCURVE",
"112 277 CURVE SMOOTH",
"112 314 OFFCURVE",
"236 438 OFFCURVE",
"273 438 CURVE SMOOTH",
"314 438 OFFCURVE",
"489 264 OFFCURVE",
"489 222 CURVE SMOOTH",
"489 186 OFFCURVE",
"365 63 OFFCURVE",
"329 63 CURVE SMOOTH"
);
}
);
width = 600;
},
{
associatedMasterId = "87BE50FD-B083-4EB3-9928-F89871FBC1E0";
layerId = "E091EE8F-A5FA-4B85-BCBE-7448B9315F14";
name = "{700}";
paths = (
{
closed = 1;
nodes = (
"47 143 OFFCURVE",
"203 -10 OFFCURVE",
"302 -10 CURVE SMOOTH",
"400 -10 OFFCURVE",
"554 148 OFFCURVE",
"554 256 CURVE SMOOTH",
"554 359 OFFCURVE",
"399 510 OFFCURVE",
"300 510 CURVE",
"202 510 OFFCURVE",
"47 353 OFFCURVE",
"47 247 CURVE SMOOTH"
);
},
{
closed = 1;
nodes = (
"242 44 OFFCURVE",
"157 166 OFFCURVE",
"157 249 CURVE SMOOTH",
"157 332 OFFCURVE",
"243 454 OFFCURVE",
"301 454 CURVE SMOOTH",
"358 454 OFFCURVE",
"443 332 OFFCURVE",
"443 249 CURVE SMOOTH",
"443 166 OFFCURVE",
"358 44 OFFCURVE",
"300 44 CURVE SMOOTH"
);
}
);
width = 600;
},
{
layerId = "9D15E9AA-FCC6-4A1A-804C-B0422A1CAE65";
paths = (
{
closed = 1;
nodes = (
"57 98 OFFCURVE",
"160 -10 OFFCURVE",
"302 -10 CURVE SMOOTH",
"442 -10 OFFCURVE",
"544 102 OFFCURVE",
"544 256 CURVE SMOOTH",
"544 403 OFFCURVE",
"442 510 OFFCURVE",
"300 510 CURVE",
"159 510 OFFCURVE",
"57 400 OFFCURVE",
"57 247 CURVE SMOOTH"
);
},
{
closed = 1;
nodes = (
"218 44 OFFCURVE",
"157 130 OFFCURVE",
"157 249 CURVE SMOOTH",
"157 368 OFFCURVE",
"217 454 OFFCURVE",
"301 454 CURVE SMOOTH",
"382 454 OFFCURVE",
"443 368 OFFCURVE",
"443 249 CURVE SMOOTH",
"443 130 OFFCURVE",
"384 44 OFFCURVE",
"300 44 CURVE SMOOTH"
);
}
);
width = 600;
},
{
associatedMasterId = "9D15E9AA-FCC6-4A1A-804C-B0422A1CAE65";
layerId = "62BC7E8F-098F-4BAA-971D-1AAFDEA1A9E3";
name = "{800}";
paths = (
{
closed = 1;
nodes = (
"-3 98 OFFCURVE",
"160 -65 OFFCURVE",
"302 15 CURVE",
"442 -65 OFFCURVE",
"604 102 OFFCURVE",
"504 256 CURVE",
"604 403 OFFCURVE",
"442 565 OFFCURVE",
"300 485 CURVE",
"159 565 OFFCURVE",
"-3 400 OFFCURVE",
"97 247 CURVE"
);
},
{
closed = 1;
nodes = (
"218 -11 OFFCURVE",
"98 130 OFFCURVE",
"197 249 CURVE",
"96 368 OFFCURVE",
"217 499 OFFCURVE",
"301 429 CURVE",
"382 509 OFFCURVE",
"502 368 OFFCURVE",
"403 249 CURVE",
"504 130 OFFCURVE",
"384 -11 OFFCURVE",
"300 69 CURVE"
);
}
);
width = 600;
}
);
unicode = F009;
},
{
glyphname = edging;
lastChange = "2017-04-22 13:01:04 +0000";
layers = (
{
background = {
paths = (
{
closed = 1;
nodes = (
"285 500 LINE",
"169 355 LINE",
"169 500 LINE",
"7 500 LINE",
"7 0 LINE",
"169 0 LINE",
"169 132 LINE",
"464 500 LINE"
);
},
{
closed = 1;
nodes = (
"285 500 LINE SMOOTH",
"285 500 OFFCURVE",
"285 500 OFFCURVE",
"285 500 CURVE SMOOTH",
"143 316 OFFCURVE",
"141 241 OFFCURVE",
"106 266 CURVE SMOOTH",
"73 290 OFFCURVE",
"169 350 OFFCURVE",
"169 384 CURVE SMOOTH",
"169 500 LINE SMOOTH",
"169 500 OFFCURVE",
"169 500 OFFCURVE",
"169 500 CURVE SMOOTH",
"57 500 LINE SMOOTH",
"57 500 OFFCURVE",
"57 500 OFFCURVE",
"57 500 CURVE SMOOTH",
"57 110 LINE SMOOTH",
"57 110 OFFCURVE",
"57 110 OFFCURVE",
"57 110 CURVE SMOOTH",
"169 110 LINE SMOOTH",
"169 110 OFFCURVE",
"165 155 OFFCURVE",
"167 186 CURVE SMOOTH",
"169 212 LINE SMOOTH",
"169 212 OFFCURVE",
"169 212 OFFCURVE",
"169 212 CURVE SMOOTH",
"414 500 LINE SMOOTH",
"414 500 OFFCURVE",
"414 500 OFFCURVE",
"414 500 CURVE SMOOTH"
);
}
);
};
layerId = "87BE50FD-B083-4EB3-9928-F89871FBC1E0";
paths = (
{
closed = 1;
nodes = (
"389 500 LINE SMOOTH",
"389 500 OFFCURVE",
"389 500 OFFCURVE",
"389 500 CURVE SMOOTH",
"339 438 OFFCURVE",
"290 376 OFFCURVE",
"240 314 CURVE SMOOTH",
"240 314 OFFCURVE",
"240 314 OFFCURVE",
"240 314 CURVE SMOOTH",
"240 500 LINE SMOOTH",
"240 500 OFFCURVE",
"240 500 OFFCURVE",
"240 500 CURVE SMOOTH",
"96 500 LINE SMOOTH",
"96 500 OFFCURVE",
"96 500 OFFCURVE",
"96 500 CURVE SMOOTH",
"96 0 LINE SMOOTH",
"96 0 OFFCURVE",
"96 0 OFFCURVE",
"96 0 CURVE SMOOTH",
"240 0 LINE SMOOTH",
"240 0 OFFCURVE",
"240 0 OFFCURVE",
"240 0 CURVE SMOOTH",
"240 131 LINE SMOOTH",
"240 131 OFFCURVE",
"240 131 OFFCURVE",
"240 131 CURVE SMOOTH",
"389 306 LINE SMOOTH",
"389 306 OFFCURVE",
"389 306 OFFCURVE",
"389 306 CURVE SMOOTH"
);
}
);
width = 601;
},
{
background = {
paths = (
{
closed = 1;
nodes = (
"482 500 LINE",
"445 500 LINE",
"418 500 LINE SMOOTH",
"373 500 OFFCURVE",
"396 509 OFFCURVE",
"371 477 CURVE SMOOTH",
"365 472 OFFCURVE",
"362 465 OFFCURVE",
"355 458 CURVE SMOOTH",
"327 421 OFFCURVE",
"286 385 OFFCURVE",
"230 259 CURVE SMOOTH",
"230 259 OFFCURVE",
"212 263 OFFCURVE",
"212 263 CURVE SMOOTH",
"237 438 LINE",
"240 462 LINE SMOOTH",
"248 524 OFFCURVE",
"264 500 OFFCURVE",
"201 500 CURVE SMOOTH",
"169 500 LINE",
"157 500 LINE",
"135 500 LINE SMOOTH",
"59 500 OFFCURVE",
"96 524 OFFCURVE",
"96 462 CURVE SMOOTH",
"96 444 LINE",
"96 64 LINE",
"96 38 LINE SMOOTH",
"96 -24 OFFCURVE",
"72 0 OFFCURVE",
"135 0 CURVE SMOOTH",
"155 0 LINE",
"177 0 LINE",
"201 0 LINE SMOOTH",
"277 0 OFFCURVE",
"240 -24 OFFCURVE",
"240 38 CURVE SMOOTH",
"240 65 LINE",
"240 117 LINE SMOOTH",
"240 136 OFFCURVE",
"243 150 OFFCURVE",
"257 164 CURVE SMOOTH",
"514 433 LINE",
"530 453 LINE SMOOTH",
"581 517 OFFCURVE",
"603 500 OFFCURVE",
"507 500 CURVE SMOOTH"
);
}
);
};
layerId = "9D15E9AA-FCC6-4A1A-804C-B0422A1CAE65";
paths = (
{
closed = 1;
nodes = (
"389 328 LINE",
"389 471 LINE",
"389 500 LINE SMOOTH",
"389 500 OFFCURVE",
"389 500 OFFCURVE",
"389 500 CURVE SMOOTH",
"379 488 OFFCURVE",
"370 476 OFFCURVE",
"360 464 CURVE SMOOTH",
"320 414 OFFCURVE",
"280 364 OFFCURVE",
"240 314 CURVE SMOOTH",
"240 314 OFFCURVE",
"240 314 OFFCURVE",
"240 314 CURVE SMOOTH",
"240 460 LINE",
"240 500 LINE SMOOTH",
"240 500 OFFCURVE",
"240 500 OFFCURVE",
"240 500 CURVE SMOOTH",
"216 500 LINE",
"116 500 LINE",
"96 500 LINE SMOOTH",
"96 500 OFFCURVE",
"96 500 OFFCURVE",
"96 500 CURVE SMOOTH",
"96 461 LINE",
"96 39 LINE",
"96 0 LINE SMOOTH",
"96 0 OFFCURVE",
"96 0 OFFCURVE",
"96 0 CURVE SMOOTH",
"120 0 LINE",
"211 0 LINE",
"240 0 LINE SMOOTH",
"240 0 OFFCURVE",
"240 0 OFFCURVE",
"240 0 CURVE SMOOTH",
"240 38 LINE",
"240 131 LINE SMOOTH",
"240 131 OFFCURVE",
"240 131 OFFCURVE",
"240 131 CURVE SMOOTH",
"368 281 LINE",
"389 306 LINE SMOOTH",
"389 306 OFFCURVE",
"389 306 OFFCURVE",
"389 306 CURVE SMOOTH"
);
}
);
width = 601;
},
{
associatedMasterId = "9D15E9AA-FCC6-4A1A-804C-B0422A1CAE65";
background = {
paths = (
{
closed = 1;
nodes = (
"7 0 LINE",
"169 0 LINE",
"169 387 LINE",
"169 500 LINE",
"7 500 LINE"
);
},
{
closed = 1;
nodes = (
"19 168 LINE",
"120 71 LINE",
"464 500 LINE",
"285 500 LINE"
);
},
{
closed = 1;
nodes = (
"285 500 LINE SMOOTH",
"285 500 OFFCURVE",
"285 500 OFFCURVE",
"285 500 CURVE SMOOTH",
"143 316 OFFCURVE",
"141 241 OFFCURVE",
"106 266 CURVE SMOOTH",
"73 290 OFFCURVE",
"169 350 OFFCURVE",
"169 384 CURVE SMOOTH",
"169 500 LINE SMOOTH",
"169 500 OFFCURVE",
"169 500 OFFCURVE",
"169 500 CURVE SMOOTH",
"57 500 LINE SMOOTH",
"57 500 OFFCURVE",
"57 500 OFFCURVE",
"57 500 CURVE SMOOTH",
"57 110 LINE SMOOTH",
"57 110 OFFCURVE",
"57 110 OFFCURVE",
"57 110 CURVE SMOOTH",
"169 110 LINE SMOOTH",
"169 110 OFFCURVE",
"165 155 OFFCURVE",
"167 186 CURVE SMOOTH",
"169 212 LINE SMOOTH",
"169 212 OFFCURVE",
"169 212 OFFCURVE",
"169 212 CURVE SMOOTH",
"414 500 LINE SMOOTH",
"414 500 OFFCURVE",
"414 500 OFFCURVE",
"414 500 CURVE SMOOTH"
);
}
);
};
layerId = "AE1D8926-5567-49DA-BD70-2B3F58F2E15A";
name = "{200}";
paths = (
{
closed = 1;
nodes = (
"422 451 LINE SMOOTH",
"409 493 OFFCURVE",
"376 483 OFFCURVE",
"352 453 CURVE SMOOTH",
"331 427 OFFCURVE",
"315 408 OFFCURVE",
"306 396 CURVE SMOOTH",
"272 353 OFFCURVE",
"240 379 OFFCURVE",
"240 428 CURVE SMOOTH",
"240 462 LINE SMOOTH",
"240 486 OFFCURVE",
"226 500 OFFCURVE",
"201 500 CURVE SMOOTH",
"135 500 LINE SMOOTH",
"110 500 OFFCURVE",
"96 486 OFFCURVE",
"96 462 CURVE SMOOTH",
"96 38 LINE SMOOTH",
"96 14 OFFCURVE",
"110 0 OFFCURVE",
"135 0 CURVE SMOOTH",
"201 0 LINE SMOOTH",
"226 0 OFFCURVE",
"240 14 OFFCURVE",
"240 38 CURVE SMOOTH",
"240 104 LINE SMOOTH",
"240 123 OFFCURVE",
"243 136 OFFCURVE",
"257 151 CURVE SMOOTH",
"429 350 LINE SMOOTH",
"450 374 OFFCURVE",
"439 397 OFFCURVE",
"437 403 CURVE SMOOTH"
);
}
);
width = 601;
},
{
associatedMasterId = "87BE50FD-B083-4EB3-9928-F89871FBC1E0";
background = {
paths = (
{
closed = 1;
nodes = (
"285 500 LINE",
"169 355 LINE",
"169 500 LINE",
"7 500 LINE",
"7 0 LINE",
"169 0 LINE",
"169 132 LINE",
"464 500 LINE"
);
},
{
closed = 1;
nodes = (
"358 500 LINE",
"329 500 LINE",
"308 500 LINE SMOOTH",
"273 500 OFFCURVE",
"291 507 OFFCURVE",
"271 482 CURVE SMOOTH",
"267 478 OFFCURVE",
"264 473 OFFCURVE",
"259 467 CURVE SMOOTH",
"237 438 OFFCURVE",
"205 410 OFFCURVE",
"161 312 CURVE SMOOTH",
"161 312 OFFCURVE",
"147 315 OFFCURVE",
"147 315 CURVE SMOOTH",
"167 452 LINE",
"169 470 LINE SMOOTH",
"175 519 OFFCURVE",
"188 500 OFFCURVE",
"139 500 CURVE SMOOTH",
"114 500 LINE",
"104 500 LINE",
"87 500 LINE SMOOTH",
"28 500 OFFCURVE",
"57 519 OFFCURVE",
"57 470 CURVE SMOOTH",
"57 456 LINE",
"57 160 LINE",
"57 140 LINE SMOOTH",
"57 91 OFFCURVE",
"38 110 OFFCURVE",
"87 110 CURVE SMOOTH",
"103 110 LINE",
"120 110 LINE",
"139 110 LINE SMOOTH",
"198 110 OFFCURVE",
"169 91 OFFCURVE",
"169 140 CURVE SMOOTH",
"169 161 LINE",
"169 201 LINE SMOOTH",
"169 216 OFFCURVE",
"172 227 OFFCURVE",
"182 238 CURVE SMOOTH",
"383 448 LINE",
"395 463 LINE SMOOTH",
"435 513 OFFCURVE",
"452 500 OFFCURVE",
"377 500 CURVE SMOOTH"
);
}
);
};
layerId = "82B170E6-8F2A-4546-96F3-C0960BA15893";
name = "{600}";
paths = (
{
closed = 1;
nodes = (
"389 500 LINE SMOOTH",
"389 500 OFFCURVE",
"389 500 OFFCURVE",
"389 500 CURVE SMOOTH",
"206 264 OFFCURVE",
"297 99 OFFCURVE",
"159 199 CURVE SMOOTH",
"50 279 OFFCURVE",
"240 307 OFFCURVE",
"240 351 CURVE SMOOTH",
"240 500 LINE SMOOTH",
"240 500 OFFCURVE",
"240 500 OFFCURVE",
"240 500 CURVE SMOOTH",
"96 500 LINE SMOOTH",
"96 500 OFFCURVE",
"96 500 OFFCURVE",
"96 500 CURVE SMOOTH",
"96 0 LINE SMOOTH",
"96 0 OFFCURVE",
"96 0 OFFCURVE",
"96 0 CURVE SMOOTH",
"240 0 LINE SMOOTH",
"240 0 OFFCURVE",
"234 58 OFFCURVE",
"237 97 CURVE SMOOTH",
"240 131 LINE SMOOTH",
"240 131 OFFCURVE",
"240 131 OFFCURVE",
"240 131 CURVE SMOOTH",
"484 421 LINE SMOOTH",
"484 421 OFFCURVE",
"484 421 OFFCURVE",
"484 421 CURVE SMOOTH"
);
}
);
width = 601;
},
{
associatedMasterId = "9D15E9AA-FCC6-4A1A-804C-B0422A1CAE65";
background = {
paths = (
{
closed = 1;
nodes = (
"7 0 LINE",
"169 0 LINE",
"169 387 LINE",
"169 500 LINE",
"7 500 LINE"
);
},
{
closed = 1;
nodes = (
"19 168 LINE",
"120 71 LINE",
"464 500 LINE",
"285 500 LINE"
);
},
{
closed = 1;
nodes = (
"285 500 LINE SMOOTH",
"285 500 OFFCURVE",
"285 500 OFFCURVE",
"285 500 CURVE SMOOTH",
"143 316 OFFCURVE",
"141 241 OFFCURVE",
"106 266 CURVE SMOOTH",
"73 290 OFFCURVE",
"169 350 OFFCURVE",
"169 384 CURVE SMOOTH",
"169 500 LINE SMOOTH",
"169 500 OFFCURVE",
"169 500 OFFCURVE",
"169 500 CURVE SMOOTH",
"57 500 LINE SMOOTH",
"57 500 OFFCURVE",
"57 500 OFFCURVE",
"57 500 CURVE SMOOTH",
"57 110 LINE SMOOTH",
"57 110 OFFCURVE",
"57 110 OFFCURVE",
"57 110 CURVE SMOOTH",
"169 110 LINE SMOOTH",
"169 110 OFFCURVE",
"165 155 OFFCURVE",
"167 186 CURVE SMOOTH",
"169 212 LINE SMOOTH",
"169 212 OFFCURVE",
"169 212 OFFCURVE",
"169 212 CURVE SMOOTH",
"414 500 LINE SMOOTH",
"414 500 OFFCURVE",
"414 500 OFFCURVE",
"414 500 CURVE SMOOTH"
);
}
);
};
layerId = "992F4DE6-EE43-42D6-8183-17E37D522DA6";
name = "{400}";
paths = (
{
closed = 1;
nodes = (
"446 453 LINE SMOOTH",
"416 501 OFFCURVE",
"377 477 OFFCURVE",
"340 434 CURVE SMOOTH",
"277 362 OFFCURVE",
"226 196 OFFCURVE",
"118 113 CURVE",
"137 181 OFFCURVE",
"240 293 OFFCURVE",
"240 390 CURVE SMOOTH",
"240 423 LINE SMOOTH",
"240 456 OFFCURVE",
"226 500 OFFCURVE",
"172 500 CURVE SMOOTH",
"164 500 LINE SMOOTH",
"110 500 OFFCURVE",
"96 456 OFFCURVE",
"96 423 CURVE SMOOTH",
"96 77 LINE SMOOTH",
"96 44 OFFCURVE",
"110 0 OFFCURVE",
"164 0 CURVE SMOOTH",
"172 0 LINE SMOOTH",
"226 0 OFFCURVE",
"240 44 OFFCURVE",
"240 77 CURVE SMOOTH",
"240 78 LINE SMOOTH",
"240 136 OFFCURVE",
"244 137 OFFCURVE",
"272 171 CURVE SMOOTH",
"443 372 LINE SMOOTH",
"461 394 OFFCURVE",
"461 424 OFFCURVE",
"449 447 CURVE SMOOTH"
);
}
);
width = 601;
},
{
associatedMasterId = "9D15E9AA-FCC6-4A1A-804C-B0422A1CAE65";
background = {
paths = (
{
closed = 1;
nodes = (
"7 0 LINE",
"169 0 LINE",
"169 387 LINE",
"169 500 LINE",
"7 500 LINE"
);
},
{
closed = 1;
nodes = (
"19 168 LINE",
"120 71 LINE",
"464 500 LINE",
"285 500 LINE"
);
},
{
closed = 1;
nodes = (
"285 500 LINE SMOOTH",
"285 500 OFFCURVE",
"285 500 OFFCURVE",
"285 500 CURVE SMOOTH",
"143 316 OFFCURVE",
"141 241 OFFCURVE",
"106 266 CURVE SMOOTH",
"73 290 OFFCURVE",
"169 350 OFFCURVE",
"169 384 CURVE SMOOTH",
"169 500 LINE SMOOTH",
"169 500 OFFCURVE",
"169 500 OFFCURVE",
"169 500 CURVE SMOOTH",
"57 500 LINE SMOOTH",
"57 500 OFFCURVE",
"57 500 OFFCURVE",
"57 500 CURVE SMOOTH",
"57 110 LINE SMOOTH",
"57 110 OFFCURVE",
"57 110 OFFCURVE",
"57 110 CURVE SMOOTH",
"169 110 LINE SMOOTH",
"169 110 OFFCURVE",
"165 155 OFFCURVE",
"167 186 CURVE SMOOTH",
"169 212 LINE SMOOTH",
"169 212 OFFCURVE",
"169 212 OFFCURVE",
"169 212 CURVE SMOOTH",
"414 500 LINE SMOOTH",
"414 500 OFFCURVE",
"414 500 OFFCURVE",
"414 500 CURVE SMOOTH"
);
}
);
};
layerId = "9FEE8779-88F9-40A3-A17A-10434C70C0AD";
name = "{800}";
paths = (
{
closed = 1;
nodes = (
"418 500 LINE SMOOTH",
"374 511 OFFCURVE",
"389 512 OFFCURVE",
"371 477 CURVE SMOOTH",
"353 442 OFFCURVE",
"332 383 OFFCURVE",
"264 233 CURVE SMOOTH",
"264 233 OFFCURVE",
"163 237 OFFCURVE",
"163 237 CURVE SMOOTH",
"240 462 LINE SMOOTH",
"260 522 OFFCURVE",
"264 500 OFFCURVE",
"201 500 CURVE SMOOTH",
"135 500 LINE SMOOTH",
"59 500 OFFCURVE",
"95 524 OFFCURVE",
"95 462 CURVE SMOOTH",
"96 38 LINE SMOOTH",
"96 -24 OFFCURVE",
"72 0 OFFCURVE",
"135 0 CURVE SMOOTH",
"201 0 LINE SMOOTH",
"277 0 OFFCURVE",
"240 -24 OFFCURVE",
"240 38 CURVE SMOOTH",
"240 104 LINE SMOOTH",
"240 123 OFFCURVE",
"243 136 OFFCURVE",
"257 151 CURVE SMOOTH",
"474 403 LINE SMOOTH",
"538 478 OFFCURVE",
"547 469 OFFCURVE",
"484 484 CURVE SMOOTH"
);
}
);
width = 601;
},
{
associatedMasterId = "9D15E9AA-FCC6-4A1A-804C-B0422A1CAE65";
background = {
paths = (
{
closed = 1;
nodes = (
"7 0 LINE",
"169 0 LINE",
"169 387 LINE",
"169 500 LINE",
"7 500 LINE"
);
},
{
closed = 1;
nodes = (
"19 168 LINE",
"120 71 LINE",
"464 500 LINE",
"285 500 LINE"
);
},
{
closed = 1;
nodes = (
"285 500 LINE SMOOTH",
"285 500 OFFCURVE",
"285 500 OFFCURVE",
"285 500 CURVE SMOOTH",
"143 316 OFFCURVE",
"141 241 OFFCURVE",
"106 266 CURVE SMOOTH",
"73 290 OFFCURVE",
"169 350 OFFCURVE",
"169 384 CURVE SMOOTH",
"169 500 LINE SMOOTH",
"169 500 OFFCURVE",
"169 500 OFFCURVE",
"169 500 CURVE SMOOTH",
"57 500 LINE SMOOTH",
"57 500 OFFCURVE",
"57 500 OFFCURVE",
"57 500 CURVE SMOOTH",
"57 110 LINE SMOOTH",
"57 110 OFFCURVE",
"57 110 OFFCURVE",
"57 110 CURVE SMOOTH",
"169 110 LINE SMOOTH",
"169 110 OFFCURVE",
"165 155 OFFCURVE",
"167 186 CURVE SMOOTH",
"169 212 LINE SMOOTH",
"169 212 OFFCURVE",
"169 212 OFFCURVE",
"169 212 CURVE SMOOTH",
"414 500 LINE SMOOTH",
"414 500 OFFCURVE",
"414 500 OFFCURVE",
"414 500 CURVE SMOOTH"
);
}
);
};
layerId = "DA5BB255-EDFF-4C7B-B4DA-961583FB3501";
name = "{900}";
paths = (
{
closed = 1;
nodes = (
"448 486 LINE",
"431 486 LINE",
"408 494 LINE SMOOTH",
"300 532 OFFCURVE",
"343 525 OFFCURVE",
"351 466 CURVE SMOOTH",
"352 461 OFFCURVE",
"347 452 OFFCURVE",
"343 445 CURVE SMOOTH",
"323 410 OFFCURVE",
"300 360 OFFCURVE",
"242 233 CURVE SMOOTH",
"242 233 OFFCURVE",
"173 237 OFFCURVE",
"173 237 CURVE SMOOTH",
"231 423 LINE",
"240 448 LINE SMOOTH",
"269 529 OFFCURVE",
"322 540 OFFCURVE",
"201 494 CURVE SMOOTH",
"180 486 LINE",
"160 486 LINE",
"135 494 LINE SMOOTH",
"1 537 OFFCURVE",
"65 532 OFFCURVE",
"89 448 CURVE SMOOTH",
"96 423 LINE",
"96 75 LINE",
"89 50 LINE SMOOTH",
"66 -32 OFFCURVE",
"10 -32 OFFCURVE",
"135 5 CURVE SMOOTH",
"155 11 LINE",
"176 11 LINE",
"201 6 LINE SMOOTH",
"335 -21 OFFCURVE",
"291 -30 OFFCURVE",
"253 50 CURVE SMOOTH",
"240 77 LINE",
"240 77 LINE SMOOTH",
"240 134 OFFCURVE",
"244 136 OFFCURVE",
"257 151 CURVE SMOOTH",
"480 422 LINE",
"499 439 LINE SMOOTH",
"588 518 OFFCURVE",
"609 535 OFFCURVE",
"471 493 CURVE SMOOTH"
);
}
);
width = 601;
},
{
associatedMasterId = "9D15E9AA-FCC6-4A1A-804C-B0422A1CAE65";
background = {
paths = (
{
closed = 1;
nodes = (
"469 500 LINE",
"445 500 LINE",
"418 500 LINE SMOOTH",
"373 500 OFFCURVE",
"389 515 OFFCURVE",
"371 477 CURVE SMOOTH",
"368 472 OFFCURVE",
"364 463 OFFCURVE",
"355 444 CURVE SMOOTH",
"342 417 OFFCURVE",
"312 359 OFFCURVE",
"268 233 CURVE SMOOTH",
"268 233 OFFCURVE",
"160 237 OFFCURVE",
"160 237 CURVE SMOOTH",
"231 438 LINE",
"240 462 LINE SMOOTH",
"262 519 OFFCURVE",
"264 500 OFFCURVE",
"201 500 CURVE SMOOTH",
"169 500 LINE",
"157 500 LINE",
"135 500 LINE SMOOTH",
"59 500 OFFCURVE",
"96 524 OFFCURVE",
"96 462 CURVE SMOOTH",
"96 444 LINE",
"96 64 LINE",
"96 38 LINE SMOOTH",
"96 -24 OFFCURVE",
"72 0 OFFCURVE",
"135 0 CURVE SMOOTH",
"155 0 LINE",
"177 0 LINE",
"201 0 LINE SMOOTH",
"277 0 OFFCURVE",
"240 -24 OFFCURVE",
"240 38 CURVE SMOOTH",
"240 65 LINE",
"240 91 LINE SMOOTH",
"240 110 OFFCURVE",
"244 137 OFFCURVE",
"257 151 CURVE SMOOTH",
"501 433 LINE",
"517 453 LINE SMOOTH",
"568 517 OFFCURVE",
"590 500 OFFCURVE",
"494 500 CURVE SMOOTH"
);
}
);
};
layerId = "C3EE3DDC-B910-4A74-8762-731A09A5C61A";
name = "{801}";
paths = (
{
closed = 1;
nodes = (
"467 488 LINE",
"433 496 LINE",
"418 500 LINE SMOOTH",
"374 511 OFFCURVE",
"389 512 OFFCURVE",
"371 477 CURVE SMOOTH",
"367 469 OFFCURVE",
"362 459 OFFCURVE",
"357 447 CURVE SMOOTH",
"341 409 OFFCURVE",
"316 348 OFFCURVE",
"264 233 CURVE SMOOTH",
"264 233 OFFCURVE",
"163 237 OFFCURVE",
"163 237 CURVE SMOOTH",
"234 444 LINE",
"240 462 LINE SMOOTH",
"260 522 OFFCURVE",
"264 500 OFFCURVE",
"201 500 CURVE SMOOTH",
"182 500 LINE",
"152 500 LINE",
"135 500 LINE SMOOTH",
"59 500 OFFCURVE",
"95 524 OFFCURVE",
"95 462 CURVE SMOOTH",
"95 446 LINE",
"96 55 LINE",
"96 38 LINE SMOOTH",
"96 -24 OFFCURVE",
"72 0 OFFCURVE",
"135 0 CURVE SMOOTH",
"153 0 LINE",
"184 0 LINE",
"201 0 LINE SMOOTH",
"277 0 OFFCURVE",
"240 -24 OFFCURVE",
"240 38 CURVE SMOOTH",
"240 72 LINE",
"240 104 LINE SMOOTH",
"240 123 OFFCURVE",
"243 136 OFFCURVE",
"257 151 CURVE SMOOTH",
"464 392 LINE",
"474 403 LINE SMOOTH",
"538 478 OFFCURVE",
"547 469 OFFCURVE",
"484 484 CURVE SMOOTH"
);
}
);
width = 601;
},
{
associatedMasterId = "9D15E9AA-FCC6-4A1A-804C-B0422A1CAE65";
background = {
paths = (
{
closed = 1;
nodes = (
"285 500 LINE SMOOTH",
"285 500 OFFCURVE",
"285 500 OFFCURVE",
"285 500 CURVE SMOOTH",
"246 452 OFFCURVE",
"208 403 OFFCURVE",
"169 355 CURVE SMOOTH",
"169 355 OFFCURVE",
"169 355 OFFCURVE",
"169 355 CURVE SMOOTH",
"169 500 LINE SMOOTH",
"169 500 OFFCURVE",
"169 500 OFFCURVE",
"169 500 CURVE SMOOTH",
"7 500 LINE SMOOTH",
"7 500 OFFCURVE",
"7 500 OFFCURVE",
"7 500 CURVE SMOOTH",
"7 0 LINE SMOOTH",
"7 0 OFFCURVE",
"7 0 OFFCURVE",
"7 0 CURVE SMOOTH",
"169 0 LINE SMOOTH",
"169 0 OFFCURVE",
"169 0 OFFCURVE",
"169 0 CURVE SMOOTH",
"169 132 LINE SMOOTH",
"169 132 OFFCURVE",
"169 132 OFFCURVE",
"169 132 CURVE SMOOTH",
"464 500 LINE SMOOTH",
"464 500 OFFCURVE",
"464 500 OFFCURVE",
"464 500 CURVE SMOOTH"
);
}
);
};
layerId = "AA658A85-DF43-4896-A4A3-8786F4176E45";
name = "{960}";
paths = (
{
closed = 1;
nodes = (
"562 500 LINE",
"389 500 LINE",
"389 500 LINE SMOOTH",
"389 500 OFFCURVE",
"390 500 OFFCURVE",
"387 500 CURVE SMOOTH",
"388 500 OFFCURVE",
"389 500 OFFCURVE",
"390 500 CURVE SMOOTH",
"354 455 OFFCURVE",
"302 411 OFFCURVE",
"230 259 CURVE SMOOTH",
"230 259 OFFCURVE",
"212 263 OFFCURVE",
"212 263 CURVE SMOOTH",
"237 438 LINE",
"240 462 LINE SMOOTH",
"248 524 OFFCURVE",
"264 500 OFFCURVE",
"201 500 CURVE SMOOTH",
"169 500 LINE",
"157 500 LINE",
"135 500 LINE SMOOTH",
"59 500 OFFCURVE",
"96 524 OFFCURVE",
"96 462 CURVE SMOOTH",
"96 444 LINE",
"96 64 LINE",
"96 38 LINE SMOOTH",
"96 -24 OFFCURVE",
"72 0 OFFCURVE",
"135 0 CURVE SMOOTH",
"155 0 LINE",
"177 0 LINE",
"201 0 LINE SMOOTH",
"277 0 OFFCURVE",
"240 -24 OFFCURVE",
"240 38 CURVE SMOOTH",
"240 65 LINE",
"240 117 LINE SMOOTH",
"240 136 OFFCURVE",
"243 149 OFFCURVE",
"257 164 CURVE SMOOTH",
"562 500 LINE",
"562 500 LINE SMOOTH",
"562 500 OFFCURVE",
"563 500 OFFCURVE",
"562 500 CURVE SMOOTH"
);
}
);
width = 601;
},
{
associatedMasterId = "9D15E9AA-FCC6-4A1A-804C-B0422A1CAE65";
background = {
paths = (
{
closed = 1;
nodes = (
"285 500 LINE SMOOTH",
"285 500 OFFCURVE",
"285 500 OFFCURVE",
"285 500 CURVE SMOOTH",
"246 452 OFFCURVE",
"208 403 OFFCURVE",
"169 355 CURVE SMOOTH",
"169 355 OFFCURVE",
"169 355 OFFCURVE",
"169 355 CURVE SMOOTH",
"169 500 LINE SMOOTH",
"169 500 OFFCURVE",
"169 500 OFFCURVE",
"169 500 CURVE SMOOTH",
"7 500 LINE SMOOTH",
"7 500 OFFCURVE",
"7 500 OFFCURVE",
"7 500 CURVE SMOOTH",
"7 0 LINE SMOOTH",
"7 0 OFFCURVE",
"7 0 OFFCURVE",
"7 0 CURVE SMOOTH",
"169 0 LINE SMOOTH",
"169 0 OFFCURVE",
"169 0 OFFCURVE",
"169 0 CURVE SMOOTH",
"169 132 LINE SMOOTH",
"169 132 OFFCURVE",
"169 132 OFFCURVE",
"169 132 CURVE SMOOTH",
"464 500 LINE SMOOTH",
"464 500 OFFCURVE",
"464 500 OFFCURVE",
"464 500 CURVE SMOOTH"
);
}
);
};
layerId = "64468A21-2CE8-4DCF-8827-F9FB03D6BE6B";
name = "{980}";
paths = (
{
closed = 1;
nodes = (
"471 403 LINE",
"389 500 LINE",
"389 500 LINE SMOOTH",
"389 500 OFFCURVE",
"389 500 OFFCURVE",
"389 500 CURVE SMOOTH",
"389 500 OFFCURVE",
"389 500 OFFCURVE",
"389 500 CURVE SMOOTH",
"339 438 OFFCURVE",
"290 376 OFFCURVE",
"240 314 CURVE SMOOTH",
"240 314 OFFCURVE",
"240 314 OFFCURVE",
"240 314 CURVE SMOOTH",
"240 460 LINE",
"240 500 LINE SMOOTH",
"240 500 OFFCURVE",
"240 500 OFFCURVE",
"240 500 CURVE SMOOTH",
"216 500 LINE",
"116 500 LINE",
"96 500 LINE SMOOTH",
"96 500 OFFCURVE",
"96 500 OFFCURVE",
"96 500 CURVE SMOOTH",
"96 461 LINE",
"96 39 LINE",
"96 0 LINE SMOOTH",
"96 0 OFFCURVE",
"96 0 OFFCURVE",
"96 0 CURVE SMOOTH",
"120 0 LINE",
"211 0 LINE",
"240 0 LINE SMOOTH",
"240 0 OFFCURVE",
"240 0 OFFCURVE",
"240 0 CURVE SMOOTH",
"240 38 LINE",
"240 131 LINE SMOOTH",
"240 131 OFFCURVE",
"240 131 OFFCURVE",
"240 131 CURVE SMOOTH",
"471 403 LINE",
"471 403 LINE SMOOTH",
"471 403 OFFCURVE",
"471 403 OFFCURVE",
"471 403 CURVE SMOOTH"
);
}
);
width = 601;
}
);
unicode = F00C;
},
{
glyphname = free_forms;
lastChange = "2017-04-22 13:21:21 +0000";
layers = (
{
background = {
paths = (
{
closed = 1;
nodes = (
"214 200 OFFCURVE",
"214 122 OFFCURVE",
"264 47 CURVE",
"264 47 OFFCURVE",
"65 194 OFFCURVE",
"65 194 CURVE",
"65 193 OFFCURVE",
"65 0 OFFCURVE",
"65 0 CURVE",
"156 0 OFFCURVE",
"213 0 OFFCURVE",
"299 0 CURVE SMOOTH",
"385 0 OFFCURVE",
"445 0 OFFCURVE",
"536 0 CURVE",
"536 0 OFFCURVE",
"536 193 OFFCURVE",
"536 194 CURVE",
"536 194 OFFCURVE",
"337 47 OFFCURVE",
"337 47 CURVE",
"387 122 OFFCURVE",
"387 200 OFFCURVE",
"387 500 CURVE",
"214 500 LINE"
);
}
);
};
layerId = "87BE50FD-B083-4EB3-9928-F89871FBC1E0";
paths = (
{
closed = 1;
nodes = (
"214 200 OFFCURVE",
"214 122 OFFCURVE",
"214 47 CURVE",
"214 47 OFFCURVE",
"65 34 OFFCURVE",
"65 34 CURVE",
"54 20 OFFCURVE",
"61 7 OFFCURVE",
"65 0 CURVE",
"156 0 OFFCURVE",
"213 0 OFFCURVE",
"299 0 CURVE SMOOTH",
"385 0 OFFCURVE",
"445 0 OFFCURVE",
"536 0 CURVE",
"540 7 OFFCURVE",
"547 20 OFFCURVE",
"536 34 CURVE",
"536 34 OFFCURVE",
"387 47 OFFCURVE",
"387 47 CURVE",
"387 122 OFFCURVE",
"387 200 OFFCURVE",
"387 270 CURVE",
"214 270 LINE"
);
},
{
closed = 1;
nodes = (
"270 312 OFFCURVE",
"330 313 OFFCURVE",
"368 350 CURVE SMOOTH",
"405 386 OFFCURVE",
"404 446 OFFCURVE",
"368 483 CURVE SMOOTH",
"331 521 OFFCURVE",
"271 520 OFFCURVE",
"234 484 CURVE SMOOTH",
"196 447 OFFCURVE",
"197 387 OFFCURVE",
"234 349 CURVE SMOOTH"
);
}
);
width = 600;
},
{
associatedMasterId = "87BE50FD-B083-4EB3-9928-F89871FBC1E0";
layerId = "02031DE5-27EF-483D-A9E7-23EA43122509";
name = "{100}";
paths = (
{
closed = 1;
nodes = (
"214 247 OFFCURVE",
"214 222 OFFCURVE",
"214 147 CURVE",
"214 147 OFFCURVE",
"65 24 OFFCURVE",
"65 24 CURVE",
"62 20 OFFCURVE",
"62 6 OFFCURVE",
"65 0 CURVE",
"156 0 OFFCURVE",
"213 0 OFFCURVE",
"299 0 CURVE SMOOTH",
"385 0 OFFCURVE",
"445 0 OFFCURVE",
"536 0 CURVE",
"539 6 OFFCURVE",
"539 20 OFFCURVE",
"536 24 CURVE",
"536 24 OFFCURVE",
"387 147 OFFCURVE",
"387 147 CURVE",
"387 222 OFFCURVE",
"387 247 OFFCURVE",
"387 270 CURVE",
"214 270 LINE"
);
},
{
closed = 1;
nodes = (
"270 312 OFFCURVE",
"330 313 OFFCURVE",
"368 350 CURVE SMOOTH",
"405 386 OFFCURVE",
"404 446 OFFCURVE",
"368 483 CURVE SMOOTH",
"331 521 OFFCURVE",
"271 520 OFFCURVE",
"234 484 CURVE SMOOTH",
"196 447 OFFCURVE",
"197 387 OFFCURVE",
"234 349 CURVE SMOOTH"
);
}
);
width = 600;
},
{
associatedMasterId = "87BE50FD-B083-4EB3-9928-F89871FBC1E0";
background = {
paths = (
{
closed = 1;
nodes = (
"214 477 OFFCURVE",
"214 222 OFFCURVE",
"214 147 CURVE",
"214 147 OFFCURVE",
"65 24 OFFCURVE",
"65 24 CURVE",
"54 10 OFFCURVE",
"61 7 OFFCURVE",
"65 0 CURVE",
"156 0 OFFCURVE",
"213 0 OFFCURVE",
"299 0 CURVE SMOOTH",
"385 0 OFFCURVE",
"445 0 OFFCURVE",
"536 0 CURVE",
"540 7 OFFCURVE",
"547 10 OFFCURVE",
"536 24 CURVE",
"536 24 OFFCURVE",
"387 147 OFFCURVE",
"387 147 CURVE",
"387 222 OFFCURVE",
"387 477 OFFCURVE",
"387 500 CURVE",
"214 500 LINE"
);
}
);
};
layerId = "361085D4-CBA1-4EDF-B249-9E2319B1319B";
name = "{200}";
paths = (
{
closed = 1;
nodes = (
"214 247 OFFCURVE",
"214 222 OFFCURVE",
"214 147 CURVE",
"214 147 OFFCURVE",
"156 115 OFFCURVE",
"156 115 CURVE",
"106 87 OFFCURVE",
"99 7 OFFCURVE",
"192 0 CURVE",
"220 0 OFFCURVE",
"213 0 OFFCURVE",
"299 0 CURVE SMOOTH",
"385 0 OFFCURVE",
"445 0 OFFCURVE",
"536 0 CURVE",
"540 7 OFFCURVE",
"547 10 OFFCURVE",
"536 24 CURVE",
"536 24 OFFCURVE",
"387 97 OFFCURVE",
"387 97 CURVE",
"387 222 OFFCURVE",
"387 247 OFFCURVE",
"387 270 CURVE",
"214 270 LINE"
);
},
{
closed = 1;
nodes = (
"259 318 OFFCURVE",
"343 319 OFFCURVE",
"370 348 CURVE SMOOTH",
"399 375 OFFCURVE",
"399 458 OFFCURVE",
"370 485 CURVE SMOOTH",
"343 514 OFFCURVE",
"259 515 OFFCURVE",
"232 486 CURVE SMOOTH",
"203 459 OFFCURVE",
"203 374 OFFCURVE",
"232 347 CURVE SMOOTH"
);
}
);
width = 600;
},
{
background = {
paths = (
{
closed = 1;
nodes = (
"214 200 OFFCURVE",
"214 122 OFFCURVE",
"264 47 CURVE",
"264 47 OFFCURVE",
"65 194 OFFCURVE",
"65 194 CURVE",
"65 193 OFFCURVE",
"65 0 OFFCURVE",
"65 0 CURVE",
"156 0 OFFCURVE",
"213 0 OFFCURVE",
"299 0 CURVE SMOOTH",
"385 0 OFFCURVE",
"445 0 OFFCURVE",
"536 0 CURVE",
"536 0 OFFCURVE",
"536 193 OFFCURVE",
"536 194 CURVE",
"536 194 OFFCURVE",
"337 47 OFFCURVE",
"337 47 CURVE",
"387 122 OFFCURVE",
"387 200 OFFCURVE",
"387 500 CURVE",
"214 500 LINE"
);
}
);
};
layerId = "9D15E9AA-FCC6-4A1A-804C-B0422A1CAE65";
paths = (
{
closed = 1;
nodes = (
"220 206 OFFCURVE",
"220 125 OFFCURVE",
"220 47 CURVE",
"220 47 OFFCURVE",
"65 34 OFFCURVE",
"65 34 CURVE",
"54 20 OFFCURVE",
"61 7 OFFCURVE",
"65 0 CURVE",
"156 0 OFFCURVE",
"213 0 OFFCURVE",
"299 0 CURVE SMOOTH",
"385 0 OFFCURVE",
"445 0 OFFCURVE",
"536 0 CURVE",
"540 7 OFFCURVE",
"547 20 OFFCURVE",
"536 34 CURVE",
"536 34 OFFCURVE",
"381 47 OFFCURVE",
"381 47 CURVE",
"381 125 OFFCURVE",
"381 206 OFFCURVE",
"381 270 CURVE",
"220 270 LINE"
);
},
{
closed = 1;
nodes = (
"270 312 OFFCURVE",
"330 313 OFFCURVE",
"368 350 CURVE SMOOTH",
"405 386 OFFCURVE",
"404 446 OFFCURVE",
"368 483 CURVE SMOOTH",
"331 521 OFFCURVE",
"271 520 OFFCURVE",
"234 484 CURVE SMOOTH",
"196 447 OFFCURVE",
"197 387 OFFCURVE",
"234 349 CURVE SMOOTH"
);
}
);
width = 600;
},
{
associatedMasterId = "9D15E9AA-FCC6-4A1A-804C-B0422A1CAE65";
layerId = "9CF0800A-7B8E-4B45-A067-26E6120E1612";
name = "{300}";
paths = (
{
closed = 1;
nodes = (
"222 200 OFFCURVE",
"224 122 OFFCURVE",
"210 78 CURVE",
"204 47 OFFCURVE",
"87 34 OFFCURVE",
"65 34 CURVE",
"54 20 OFFCURVE",
"51 7 OFFCURVE",
"65 -7 CURVE",
"156 -1 OFFCURVE",
"213 7 OFFCURVE",
"299 7 CURVE SMOOTH",
"385 7 OFFCURVE",
"445 -1 OFFCURVE",
"536 -7 CURVE",
"550 7 OFFCURVE",
"547 20 OFFCURVE",
"536 34 CURVE",
"514 34 OFFCURVE",
"396 47 OFFCURVE",
"391 78 CURVE",
"377 122 OFFCURVE",
"379 200 OFFCURVE",
"379 270 CURVE",
"222 270 LINE"
);
},
{
closed = 1;
nodes = (
"217 337 OFFCURVE",
"385 338 OFFCURVE",
"385 338 CURVE SMOOTH",
"385 338 OFFCURVE",
"385 500 OFFCURVE",
"385 500 CURVE SMOOTH",
"385 500 OFFCURVE",
"217 501 OFFCURVE",
"217 501 CURVE SMOOTH",
"217 501 OFFCURVE",
"217 337 OFFCURVE",
"217 337 CURVE SMOOTH"
);
}
);
width = 600;
},
{
associatedMasterId = "9D15E9AA-FCC6-4A1A-804C-B0422A1CAE65";
layerId = "4DCC71ED-9025-4E19-B81C-64A9ECFEC81A";
name = "{340}";
paths = (
{
closed = 1;
nodes = (
"220 270 OFFCURVE",
"220 270 OFFCURVE",
"220 270 CURVE",
"213 126 OFFCURVE",
"216 139 OFFCURVE",
"65 34 CURVE",
"54 20 OFFCURVE",
"51 7 OFFCURVE",
"65 -7 CURVE",
"156 -1 OFFCURVE",
"213 7 OFFCURVE",
"299 7 CURVE SMOOTH",
"385 7 OFFCURVE",
"445 -1 OFFCURVE",
"536 -7 CURVE",
"550 7 OFFCURVE",
"547 20 OFFCURVE",
"536 34 CURVE",
"385 139 OFFCURVE",
"387 126 OFFCURVE",
"381 270 CURVE",
"381 270 OFFCURVE",
"381 270 OFFCURVE",
"381 270 CURVE",
"220 270 LINE"
);
},
{
closed = 1;
nodes = (
"203 331 OFFCURVE",
"397 332 OFFCURVE",
"397 332 CURVE SMOOTH",
"397 332 OFFCURVE",
"327 501 OFFCURVE",
"327 501 CURVE SMOOTH",
"327 501 OFFCURVE",
"273 501 OFFCURVE",
"273 501 CURVE SMOOTH",
"273 501 OFFCURVE",
"203 331 OFFCURVE",
"203 331 CURVE SMOOTH"
);
}
);
width = 600;
},
{
associatedMasterId = "9D15E9AA-FCC6-4A1A-804C-B0422A1CAE65";
layerId = "B2D22051-614D-426F-B98E-FDC7C05FB60E";
name = "{400}";
paths = (
{
closed = 1;
nodes = (
"214 270 OFFCURVE",
"214 270 OFFCURVE",
"214 270 CURVE",
"277 169 OFFCURVE",
"259 93 OFFCURVE",
"65 34 CURVE",
"54 20 OFFCURVE",
"51 7 OFFCURVE",
"65 -7 CURVE",
"156 -1 OFFCURVE",
"213 7 OFFCURVE",
"299 7 CURVE SMOOTH",
"385 7 OFFCURVE",
"445 -1 OFFCURVE",
"536 -7 CURVE",
"550 7 OFFCURVE",
"547 20 OFFCURVE",
"536 34 CURVE",
"341 93 OFFCURVE",
"323 169 OFFCURVE",
"387 270 CURVE",
"387 270 OFFCURVE",
"387 270 OFFCURVE",
"387 270 CURVE",
"214 270 LINE"
);
},
{
closed = 1;
nodes = (
"193 331 OFFCURVE",
"407 332 OFFCURVE",
"407 332 CURVE SMOOTH",
"407 332 OFFCURVE",
"300 500 OFFCURVE",
"300 500 CURVE SMOOTH",
"300 500 OFFCURVE",
"300 500 OFFCURVE",
"300 500 CURVE SMOOTH",
"300 500 OFFCURVE",
"193 331 OFFCURVE",
"193 331 CURVE SMOOTH"
);
}
);
width = 600;
},
{
associatedMasterId = "9D15E9AA-FCC6-4A1A-804C-B0422A1CAE65";
background = {
paths = (
{
closed = 1;
nodes = (
"214 200 OFFCURVE",
"214 122 OFFCURVE",
"264 47 CURVE",
"264 47 OFFCURVE",
"65 194 OFFCURVE",
"65 194 CURVE",
"65 193 OFFCURVE",
"65 0 OFFCURVE",
"65 0 CURVE",
"156 0 OFFCURVE",
"213 0 OFFCURVE",
"299 0 CURVE SMOOTH",
"385 0 OFFCURVE",
"445 0 OFFCURVE",
"536 0 CURVE",
"536 0 OFFCURVE",
"536 193 OFFCURVE",
"536 194 CURVE",
"536 194 OFFCURVE",
"337 47 OFFCURVE",
"337 47 CURVE",
"387 122 OFFCURVE",
"387 200 OFFCURVE",
"387 500 CURVE",
"214 500 LINE"
);
}
);
};
layerId = "A8AF448A-7AA4-4120-8745-67AD9C12A6C6";
name = "{500}";
paths = (
{
closed = 1;
nodes = (
"214 200 OFFCURVE",
"214 122 OFFCURVE",
"264 47 CURVE",
"264 47 OFFCURVE",
"65 194 OFFCURVE",
"65 194 CURVE",
"65 193 OFFCURVE",
"65 0 OFFCURVE",
"65 0 CURVE",
"156 0 OFFCURVE",
"213 0 OFFCURVE",
"299 0 CURVE SMOOTH",
"385 0 OFFCURVE",
"445 0 OFFCURVE",
"536 0 CURVE",
"536 0 OFFCURVE",
"536 193 OFFCURVE",
"536 194 CURVE",
"536 194 OFFCURVE",
"337 47 OFFCURVE",
"337 47 CURVE",
"387 122 OFFCURVE",
"387 200 OFFCURVE",
"387 270 CURVE",
"214 270 LINE"
);
},
{
closed = 1;
nodes = (
"214 340 OFFCURVE",
"388 341 OFFCURVE",
"388 341 CURVE SMOOTH",
"388 397 OFFCURVE",
"352 473 OFFCURVE",
"334 492 CURVE SMOOTH",
"316 511 OFFCURVE",
"286 510 OFFCURVE",
"267 492 CURVE SMOOTH",
"248 474 OFFCURVE",
"214 397 OFFCURVE",
"214 340 CURVE SMOOTH"
);
}
);
width = 600;
},
{
associatedMasterId = "9D15E9AA-FCC6-4A1A-804C-B0422A1CAE65";
layerId = "3CF5CEBF-0223-4A5C-9007-D0C27C235C56";
name = "{600}";
paths = (
{
closed = 1;
nodes = (
"214 200 OFFCURVE",
"214 122 OFFCURVE",
"214 77 CURVE",
"214 77 OFFCURVE",
"65 77 OFFCURVE",
"65 77 CURVE",
"65 20 OFFCURVE",
"65 7 OFFCURVE",
"65 0 CURVE",
"156 0 OFFCURVE",
"213 0 OFFCURVE",
"299 0 CURVE SMOOTH",
"385 0 OFFCURVE",
"445 0 OFFCURVE",
"536 0 CURVE",
"536 7 OFFCURVE",
"536 20 OFFCURVE",
"536 77 CURVE",
"536 77 OFFCURVE",
"387 77 OFFCURVE",
"387 77 CURVE",
"387 122 OFFCURVE",
"387 200 OFFCURVE",
"387 270 CURVE",
"214 270 LINE"
);
},
{
closed = 1;
nodes = (
"270 312 OFFCURVE",
"330 313 OFFCURVE",
"368 350 CURVE SMOOTH",
"405 386 OFFCURVE",
"404 446 OFFCURVE",
"368 483 CURVE SMOOTH",
"331 521 OFFCURVE",
"271 520 OFFCURVE",
"234 484 CURVE SMOOTH",
"196 447 OFFCURVE",
"197 387 OFFCURVE",
"234 349 CURVE SMOOTH"
);
}
);
width = 600;
},
{
associatedMasterId = "9D15E9AA-FCC6-4A1A-804C-B0422A1CAE65";
layerId = "FCA3961F-C0DD-4CDE-B642-42CD8BD9C9AD";
name = "{800}";
paths = (
{
closed = 1;
nodes = (
"214 200 OFFCURVE",
"214 122 OFFCURVE",
"214 77 CURVE",
"214 77 OFFCURVE",
"65 77 OFFCURVE",
"65 77 CURVE",
"105 47 OFFCURVE",
"105 30 OFFCURVE",
"65 0 CURVE",
"262 0 OFFCURVE",
"259 101 OFFCURVE",
"259 161 CURVE",
"303 101 OFFCURVE",
"350 0 OFFCURVE",
"536 0 CURVE",
"496 30 OFFCURVE",
"496 47 OFFCURVE",
"536 77 CURVE",
"536 77 OFFCURVE",
"387 77 OFFCURVE",
"387 77 CURVE",
"387 122 OFFCURVE",
"387 200 OFFCURVE",
"387 270 CURVE",
"214 270 LINE"
);
},
{
closed = 1;
nodes = (
"275 367 OFFCURVE",
"324 367 OFFCURVE",
"395 323 CURVE",
"344 387 OFFCURVE",
"344 437 OFFCURVE",
"395 510 CURVE",
"324 457 OFFCURVE",
"275 457 OFFCURVE",
"207 511 CURVE",
"255 437 OFFCURVE",
"255 387 OFFCURVE",
"207 322 CURVE"
);
}
);
width = 600;
}
);
unicode = F00D;
},
{
glyphname = height;
lastChange = "2017-04-22 17:10:12 +0000";
layers = (
{
background = {
paths = (
{
closed = 1;
nodes = (
"465 -53 LINE SMOOTH",
"479 -53 OFFCURVE",
"489 -43 OFFCURVE",
"489 -29 CURVE SMOOTH",
"489 -28 LINE SMOOTH",
"489 -14 OFFCURVE",
"479 -4 OFFCURVE",
"465 -4 CURVE SMOOTH",
"441 -4 LINE",
"440 364 LINE",
"465 364 LINE SMOOTH",
"479 364 OFFCURVE",
"489 372 OFFCURVE",
"489 384 CURVE SMOOTH",
"489 396 OFFCURVE",
"479 403 OFFCURVE",
"465 403 CURVE SMOOTH",
"441 403 LINE",
"441 439 LINE SMOOTH",
"441 453 OFFCURVE",
"431 463 OFFCURVE",
"417 463 CURVE SMOOTH",
"416 463 LINE SMOOTH",
"402 463 OFFCURVE",
"392 453 OFFCURVE",
"392 439 CURVE SMOOTH",
"392 378 LINE SMOOTH",
"392 364 OFFCURVE",
"402 354 OFFCURVE",
"416 354 CURVE SMOOTH",
"424 354 LINE",
"424 323 LINE",
"415 323 LINE SMOOTH",
"400 323 OFFCURVE",
"391 314 OFFCURVE",
"391 299 CURVE SMOOTH",
"392 -29 LINE SMOOTH",
"392 -44 OFFCURVE",
"401 -53 OFFCURVE",
"416 -53 CURVE SMOOTH"
);
},
{
closed = 1;
nodes = (
"104 -53 LINE SMOOTH",
"118 -53 OFFCURVE",
"128 -43 OFFCURVE",
"128 -29 CURVE SMOOTH",
"128 -28 LINE SMOOTH",
"128 -14 OFFCURVE",
"118 -4 OFFCURVE",
"104 -4 CURVE SMOOTH",
"80 -4 LINE",
"80 299 LINE SMOOTH",
"80 313 OFFCURVE",
"70 323 OFFCURVE",
"56 323 CURVE SMOOTH",
"55 323 LINE SMOOTH",
"41 323 OFFCURVE",
"31 313 OFFCURVE",
"31 299 CURVE SMOOTH",
"31 -29 LINE SMOOTH",
"31 -43 OFFCURVE",
"41 -53 OFFCURVE",
"55 -53 CURVE SMOOTH"
);
},
{
closed = 1;
nodes = (
"285 -53 LINE SMOOTH",
"299 -53 OFFCURVE",
"309 -43 OFFCURVE",
"309 -29 CURVE SMOOTH",
"309 -28 LINE SMOOTH",
"309 -14 OFFCURVE",
"299 -4 OFFCURVE",
"285 -4 CURVE SMOOTH",
"260 -4 LINE",
"260 299 LINE SMOOTH",
"260 313 OFFCURVE",
"250 323 OFFCURVE",
"236 323 CURVE SMOOTH",
"235 323 LINE SMOOTH",
"221 323 OFFCURVE",
"211 313 OFFCURVE",
"211 299 CURVE SMOOTH",
"211 -29 LINE SMOOTH",
"211 -43 OFFCURVE",
"221 -53 OFFCURVE",
"235 -53 CURVE SMOOTH"
);
},
{
closed = 1;
nodes = (
"441 496 LINE",
"423 478 LINE",
"423 385 LINE",
"504 385 LINE",
"526 407 LINE",
"445 407 LINE",
"445 497 LINE"
);
},
{
closed = 1;
nodes = (
"62 338 LINE",
"62 -22 LINE",
"143 -22 LINE",
"165 0 LINE",
"84 0 LINE",
"84 360 LINE"
);
},
{
closed = 1;
nodes = (
"242 338 LINE",
"242 -22 LINE",
"324 -22 LINE",
"346 0 LINE",
"264 0 LINE",
"264 360 LINE"
);
},
{
closed = 1;
nodes = (
"422 338 LINE",
"423 -22 LINE",
"504 -22 LINE",
"526 0 LINE",
"445 0 LINE",
"444 360 LINE"
);
}
);
};
layerId = "87BE50FD-B083-4EB3-9928-F89871FBC1E0";
paths = (
{
closed = 1;
nodes = (
"154 0 LINE",
"154 360 LINE",
"79 360 LINE",
"79 0 LINE"
);
},
{
closed = 1;
nodes = (
"338 0 LINE",
"338 360 LINE",
"263 360 LINE",
"263 0 LINE"
);
},
{
closed = 1;
nodes = (
"521 0 LINE",
"520 360 LINE",
"445 360 LINE",
"446 0 LINE"
);
},
{
closed = 1;
nodes = (
"521 413 LINE",
"521 493 LINE",
"446 493 LINE",
"446 413 LINE"
);
}
);
width = 601;
},
{
background = {
paths = (
{
closed = 1;
nodes = (
"165 0 LINE",
"165 360 LINE",
"84 360 LINE",
"84 0 LINE"
);
},
{
closed = 1;
nodes = (
"346 0 LINE",
"346 360 LINE",
"264 360 LINE",
"264 0 LINE"
);
},
{
closed = 1;
nodes = (
"526 0 LINE",
"526 360 LINE",
"445 360 LINE",
"445 0 LINE"
);
},
{
closed = 1;
nodes = (
"526 407 LINE",
"526 500 LINE",
"445 500 LINE",
"445 407 LINE"
);
}
);
};
layerId = "9D15E9AA-FCC6-4A1A-804C-B0422A1CAE65";
paths = (
{
closed = 1;
nodes = (
"154 0 LINE",
"154 360 LINE",
"79 360 LINE",
"79 0 LINE"
);
},
{
closed = 1;
nodes = (
"338 0 LINE",
"338 360 LINE",
"263 360 LINE",
"263 0 LINE"
);
},
{
closed = 1;
nodes = (
"521 0 LINE",
"520 360 LINE",
"445 360 LINE",
"446 0 LINE"
);
},
{
closed = 1;
nodes = (
"521 413 LINE",
"521 493 LINE",
"446 493 LINE",
"446 413 LINE"
);
}
);
width = 601;
},
{
associatedMasterId = "87BE50FD-B083-4EB3-9928-F89871FBC1E0";
layerId = "59367915-885B-40A2-8421-63A201169D17";
name = "{800}";
paths = (
{
closed = 1;
nodes = (
"155 0 LINE",
"155 570 LINE",
"80 570 LINE",
"80 0 LINE"
);
},
{
closed = 1;
nodes = (
"338 0 LINE",
"338 360 LINE",
"263 360 LINE",
"263 0 LINE"
);
},
{
closed = 1;
nodes = (
"521 0 LINE",
"521 360 LINE",
"446 360 LINE",
"446 0 LINE"
);
},
{
closed = 1;
nodes = (
"521 459 LINE",
"521 539 LINE",
"446 539 LINE",
"446 459 LINE"
);
}
);
width = 601;
}
);
unicode = F007;
},
{
glyphname = inclination;
lastChange = "2017-04-22 13:01:04 +0000";
layers = (
{
layerId = "87BE50FD-B083-4EB3-9928-F89871FBC1E0";
paths = (
{
closed = 1;
nodes = (
"105 0 LINE",
"195 0 LINE",
"195 500 LINE",
"105 500 LINE"
);
},
{
closed = 1;
nodes = (
"405 0 LINE",
"495 0 LINE",
"495 500 LINE",
"405 500 LINE"
);
},
{
closed = 1;
nodes = (
"154 229 LINE",
"446 229 LINE",
"446 258 LINE",
"154 258 LINE"
);
}
);
width = 601;
},
{
layerId = "9D15E9AA-FCC6-4A1A-804C-B0422A1CAE65";
paths = (
{
closed = 1;
nodes = (
"105 0 LINE",
"195 0 LINE",
"195 500 LINE",
"105 500 LINE"
);
},
{
closed = 1;
nodes = (
"405 0 LINE",
"495 0 LINE",
"495 500 LINE",
"405 500 LINE"
);
},
{
closed = 1;
nodes = (
"154 229 LINE",
"446 229 LINE",
"446 258 LINE",
"154 258 LINE"
);
}
);
width = 601;
},
{
associatedMasterId = "87BE50FD-B083-4EB3-9928-F89871FBC1E0";
background = {
paths = (
{
closed = 1;
nodes = (
"52 0 LINE",
"142 0 LINE",
"276 500 LINE",
"186 500 LINE"
);
},
{
closed = 1;
nodes = (
"335 25 LINE",
"419 3 LINE",
"543 470 LINE",
"459 492 LINE"
);
}
);
};
layerId = "0F5F871E-C634-45D0-85E1-D9075B73D0CA";
name = "{500}";
paths = (
{
closed = 1;
nodes = (
"52 0 LINE",
"142 0 LINE",
"276 500 LINE",
"186 500 LINE"
);
},
{
closed = 1;
nodes = (
"341 20 LINE",
"428 -3 LINE",
"557 480 LINE",
"470 503 LINE"
);
},
{
closed = 1;
nodes = (
"154 229 LINE",
"446 229 LINE",
"446 258 LINE",
"154 258 LINE"
);
}
);
width = 601;
},
{
associatedMasterId = "87BE50FD-B083-4EB3-9928-F89871FBC1E0";
layerId = "AC66CC14-9EFF-473A-995B-7EB1D21C5370";
name = "{700}";
paths = (
{
closed = 1;
nodes = (
"-1 0 LINE",
"89 0 LINE",
"378 500 LINE",
"288 500 LINE"
);
},
{
closed = 1;
nodes = (
"285 56 LINE",
"362 11 LINE",
"612 444 LINE",
"535 489 LINE"
);
},
{
closed = 1;
nodes = (
"154 229 LINE",
"446 229 LINE",
"446 258 LINE",
"154 258 LINE"
);
}
);
width = 601;
},
{
associatedMasterId = "87BE50FD-B083-4EB3-9928-F89871FBC1E0";
layerId = "F34BB90D-542F-425A-A5F4-D166E978FC3F";
name = "{800}";
paths = (
{
closed = 1;
nodes = (
"52 -10 LINE",
"142 -10 LINE",
"276 490 LINE",
"186 490 LINE"
);
},
{
closed = 1;
nodes = (
"341 30 LINE",
"428 7 LINE",
"557 490 LINE",
"470 513 LINE"
);
},
{
closed = 1;
nodes = (
"154 219 LINE",
"446 239 LINE",
"446 268 LINE",
"154 248 LINE"
);
}
);
width = 601;
},
{
associatedMasterId = "87BE50FD-B083-4EB3-9928-F89871FBC1E0";
layerId = "5198CD83-7534-48BC-853B-F1A7C4D7F968";
name = "{900} ";
paths = (
{
closed = 1;
nodes = (
"105 -52 LINE",
"195 -28 LINE",
"195 472 LINE",
"105 448 LINE"
);
},
{
closed = 1;
nodes = (
"405 28 LINE",
"495 52 LINE",
"495 552 LINE",
"405 528 LINE"
);
},
{
closed = 1;
nodes = (
"154 190 LINE",
"446 268 LINE",
"446 297 LINE",
"154 219 LINE"
);
}
);
width = 601;
}
);
unicode = F008;
},
{
glyphname = modulation;
lastChange = "2017-04-22 14:26:08 +0000";
layers = (
{
background = {
paths = (
{
closed = 1;
nodes = (
"57 69 OFFCURVE",
"160 -10 OFFCURVE",
"301 -10 CURVE SMOOTH",
"471 -10 OFFCURVE",
"544 69 OFFCURVE",
"544 252 CURVE SMOOTH",
"544 433 OFFCURVE",
"441 510 OFFCURVE",
"301 510 CURVE",
"130 510 OFFCURVE",
"57 433 OFFCURVE",
"57 252 CURVE SMOOTH"
);
},
{
closed = 1;
nodes = (
"354 30 OFFCURVE",
"268 197 OFFCURVE",
"98 197 CURVE",
"179 267 OFFCURVE",
"235 410 OFFCURVE",
"170 452 CURVE",
"384 473 OFFCURVE",
"301 284 OFFCURVE",
"488 255 CURVE",
"384 202 OFFCURVE",
"396 130 OFFCURVE",
"428 44 CURVE"
);
}
);
};
layerId = "87BE50FD-B083-4EB3-9928-F89871FBC1E0";
paths = (
{
closed = 1;
nodes = (
"57 100 OFFCURVE",
"160 -10 OFFCURVE",
"301 -10 CURVE SMOOTH",
"442 -10 OFFCURVE",
"544 100 OFFCURVE",
"544 252 CURVE SMOOTH",
"544 401 OFFCURVE",
"442 510 OFFCURVE",
"301 510 CURVE",
"160 510 OFFCURVE",
"57 401 OFFCURVE",
"57 252 CURVE SMOOTH"
);
},
{
closed = 1;
nodes = (
"216 11 OFFCURVE",
"155 110 OFFCURVE",
"155 247 CURVE SMOOTH",
"155 388 OFFCURVE",
"216 489 OFFCURVE",
"299 489 CURVE SMOOTH",
"382 489 OFFCURVE",
"442 388 OFFCURVE",
"442 247 CURVE SMOOTH",
"442 110 OFFCURVE",
"382 11 OFFCURVE",
"299 11 CURVE SMOOTH"
);
}
);
width = 600;
},
{
background = {
paths = (
{
closed = 1;
nodes = (
"57 69 OFFCURVE",
"160 -10 OFFCURVE",
"301 -10 CURVE SMOOTH",
"471 -10 OFFCURVE",
"544 69 OFFCURVE",
"544 252 CURVE SMOOTH",
"544 433 OFFCURVE",
"441 510 OFFCURVE",
"301 510 CURVE",
"130 510 OFFCURVE",
"57 433 OFFCURVE",
"57 252 CURVE SMOOTH"
);
},
{
closed = 1;
nodes = (
"354 30 OFFCURVE",
"268 197 OFFCURVE",
"98 197 CURVE",
"179 267 OFFCURVE",
"235 410 OFFCURVE",
"170 452 CURVE",
"384 473 OFFCURVE",
"301 284 OFFCURVE",
"488 255 CURVE",
"384 202 OFFCURVE",
"396 130 OFFCURVE",
"428 44 CURVE"
);
}
);
};
layerId = "9D15E9AA-FCC6-4A1A-804C-B0422A1CAE65";
paths = (
{
closed = 1;
nodes = (
"57 100 OFFCURVE",
"160 -10 OFFCURVE",
"301 -10 CURVE SMOOTH",
"442 -10 OFFCURVE",
"544 100 OFFCURVE",
"544 252 CURVE SMOOTH",
"544 401 OFFCURVE",
"442 510 OFFCURVE",
"301 510 CURVE",
"160 510 OFFCURVE",
"57 401 OFFCURVE",
"57 252 CURVE SMOOTH"
);
},
{
closed = 1;
nodes = (
"216 14 OFFCURVE",
"155 113 OFFCURVE",
"155 250 CURVE SMOOTH",
"155 391 OFFCURVE",
"216 492 OFFCURVE",
"299 492 CURVE SMOOTH",
"382 492 OFFCURVE",
"442 391 OFFCURVE",
"442 250 CURVE SMOOTH",
"442 113 OFFCURVE",
"382 14 OFFCURVE",
"299 14 CURVE SMOOTH"
);
}
);
width = 600;
},
{
associatedMasterId = "9D15E9AA-FCC6-4A1A-804C-B0422A1CAE65";
layerId = "C75C17C1-2F00-4AD8-9090-45AA08BEAD72";
name = "{100}";
paths = (
{
closed = 1;
nodes = (
"57 100 OFFCURVE",
"160 -10 OFFCURVE",
"301 -10 CURVE SMOOTH",
"442 -10 OFFCURVE",
"544 100 OFFCURVE",
"544 252 CURVE SMOOTH",
"544 401 OFFCURVE",
"442 510 OFFCURVE",
"301 510 CURVE",
"160 510 OFFCURVE",
"57 401 OFFCURVE",
"57 252 CURVE SMOOTH"
);
},
{
closed = 1;
nodes = (
"305 -3 OFFCURVE",
"214 69 OFFCURVE",
"167 197 CURVE SMOOTH",
"118 330 OFFCURVE",
"141 446 OFFCURVE",
"219 474 CURVE SMOOTH",
"297 502 OFFCURVE",
"388 428 OFFCURVE",
"436 296 CURVE SMOOTH",
"483 167 OFFCURVE",
"461 53 OFFCURVE",
"383 25 CURVE SMOOTH"
);
}
);
width = 600;
},
{
associatedMasterId = "9D15E9AA-FCC6-4A1A-804C-B0422A1CAE65";
layerId = "BDA2ADD8-3D3E-4918-A368-425E18CA3D6F";
name = "{200}";
paths = (
{
closed = 1;
nodes = (
"57 100 OFFCURVE",
"160 -10 OFFCURVE",
"301 -10 CURVE SMOOTH",
"452 -10 OFFCURVE",
"544 90 OFFCURVE",
"544 252 CURVE SMOOTH",
"544 401 OFFCURVE",
"442 510 OFFCURVE",
"301 510 CURVE",
"150 510 OFFCURVE",
"57 411 OFFCURVE",
"57 252 CURVE SMOOTH"
);
},
{
closed = 1;
nodes = (
"390 13 OFFCURVE",
"279 51 OFFCURVE",
"191 156 CURVE SMOOTH",
"100 264 OFFCURVE",
"82 380 OFFCURVE",
"145 433 CURVE SMOOTH",
"209 487 OFFCURVE",
"320 448 OFFCURVE",
"410 340 CURVE SMOOTH",
"498 235 OFFCURVE",
"516 121 OFFCURVE",
"453 67 CURVE SMOOTH"
);
}
);
width = 600;
},
{
associatedMasterId = "9D15E9AA-FCC6-4A1A-804C-B0422A1CAE65";
layerId = "0DA96438-5CD0-4493-B354-390B3CF4BD65";
name = "{300}";
paths = (
{
closed = 1;
nodes = (
"57 100 OFFCURVE",
"160 -10 OFFCURVE",
"301 -10 CURVE SMOOTH",
"442 -10 OFFCURVE",
"544 100 OFFCURVE",
"544 252 CURVE SMOOTH",
"544 401 OFFCURVE",
"442 510 OFFCURVE",
"301 510 CURVE",
"160 510 OFFCURVE",
"57 401 OFFCURVE",
"57 252 CURVE SMOOTH"
);
},
{
closed = 1;
nodes = (
"354 30 OFFCURVE",
"258 75 OFFCURVE",
"199 149 CURVE SMOOTH",
"112 259 OFFCURVE",
"124 363 OFFCURVE",
"170 452 CURVE",
"229 463 OFFCURVE",
"325 451 OFFCURVE",
"402 352 CURVE SMOOTH",
"495 232 OFFCURVE",
"476 130 OFFCURVE",
"428 44 CURVE"
);
}
);
width = 600;
},
{
associatedMasterId = "9D15E9AA-FCC6-4A1A-804C-B0422A1CAE65";
layerId = "E97A2F8F-EF11-4BDA-A839-1CF723974799";
name = "{500}";
paths = (
{
closed = 1;
nodes = (
"57 69 OFFCURVE",
"160 -10 OFFCURVE",
"301 -10 CURVE SMOOTH",
"471 -10 OFFCURVE",
"544 69 OFFCURVE",
"544 252 CURVE SMOOTH",
"544 433 OFFCURVE",
"441 510 OFFCURVE",
"301 510 CURVE",
"130 510 OFFCURVE",
"57 433 OFFCURVE",
"57 252 CURVE SMOOTH"
);
},
{
closed = 1;
nodes = (
"284 30 OFFCURVE",
"268 177 OFFCURVE",
"88 197 CURVE",
"159 267 OFFCURVE",
"235 410 OFFCURVE",
"170 452 CURVE",
"374 493 OFFCURVE",
"331 314 OFFCURVE",
"508 255 CURVE",
"404 202 OFFCURVE",
"396 130 OFFCURVE",
"428 44 CURVE"
);
}
);
width = 600;
},
{
associatedMasterId = "9D15E9AA-FCC6-4A1A-804C-B0422A1CAE65";
layerId = "27DF93FA-CA46-4E17-9B20-5B39D6836351";
name = "{600}";
paths = (
{
closed = 1;
nodes = (
"77 100 OFFCURVE",
"162 -80 OFFCURVE",
"433 10 CURVE",
"487 95 OFFCURVE",
"524 170 OFFCURVE",
"564 262 CURVE",
"524 401 OFFCURVE",
"442 590 OFFCURVE",
"141 490 CURVE",
"105 406 OFFCURVE",
"77 331 OFFCURVE",
"37 252 CURVE"
);
},
{
closed = 1;
nodes = (
"216 14 OFFCURVE",
"155 113 OFFCURVE",
"155 250 CURVE SMOOTH",
"155 391 OFFCURVE",
"216 492 OFFCURVE",
"299 492 CURVE SMOOTH",
"382 492 OFFCURVE",
"442 391 OFFCURVE",
"442 250 CURVE SMOOTH",
"442 113 OFFCURVE",
"382 14 OFFCURVE",
"299 14 CURVE SMOOTH"
);
}
);
width = 600;
},
{
associatedMasterId = "9D15E9AA-FCC6-4A1A-804C-B0422A1CAE65";
layerId = "DAF2F296-5FA1-4A27-A703-7EB4EF723646";
name = "{650}";
paths = (
{
closed = 1;
nodes = (
"57 100 OFFCURVE",
"160 -10 OFFCURVE",
"301 -10 CURVE SMOOTH",
"442 -10 OFFCURVE",
"544 100 OFFCURVE",
"544 252 CURVE SMOOTH",
"544 401 OFFCURVE",
"442 510 OFFCURVE",
"301 510 CURVE",
"160 510 OFFCURVE",
"57 401 OFFCURVE",
"57 252 CURVE SMOOTH"
);
},
{
closed = 1;
nodes = (
"216 14 OFFCURVE",
"155 113 OFFCURVE",
"155 250 CURVE SMOOTH",
"155 391 OFFCURVE",
"216 492 OFFCURVE",
"299 492 CURVE SMOOTH",
"382 492 OFFCURVE",
"442 391 OFFCURVE",
"442 250 CURVE SMOOTH",
"442 113 OFFCURVE",
"382 14 OFFCURVE",
"299 14 CURVE SMOOTH"
);
}
);
width = 600;
},
{
associatedMasterId = "9D15E9AA-FCC6-4A1A-804C-B0422A1CAE65";
layerId = "C2FCEB06-1172-4337-9460-65E207C1CC0C";
name = "{700}";
paths = (
{
closed = 1;
nodes = (
"-6 137 OFFCURVE",
"217 84 OFFCURVE",
"145 54 CURVE",
"360 -100 OFFCURVE",
"607 35 OFFCURVE",
"528 238 CURVE",
"607 365 OFFCURVE",
"385 418 OFFCURVE",
"477 448 CURVE",
"266 600 OFFCURVE",
"-6 467 OFFCURVE",
"73 252 CURVE"
);
},
{
closed = 1;
nodes = (
"135 74 OFFCURVE",
"104 172 OFFCURVE",
"147 287 CURVE SMOOTH",
"195 406 OFFCURVE",
"291 475 OFFCURVE",
"377 453 CURVE SMOOTH",
"463 433 OFFCURVE",
"492 333 OFFCURVE",
"448 215 CURVE SMOOTH",
"402 99 OFFCURVE",
"309 31 OFFCURVE",
"221 52 CURVE"
);
}
);
width = 600;
},
{
associatedMasterId = "9D15E9AA-FCC6-4A1A-804C-B0422A1CAE65";
background = {
paths = (
{
closed = 1;
nodes = (
"52 100 OFFCURVE",
"217 -7 OFFCURVE",
"320 -7 CURVE SMOOTH",
"438 -7 OFFCURVE",
"556 178 OFFCURVE",
"556 314 CURVE SMOOTH",
"556 399 OFFCURVE",
"406 507 OFFCURVE",
"299 507 CURVE SMOOTH",
"176 507 OFFCURVE",
"52 315 OFFCURVE",
"52 175 CURVE SMOOTH"
);
},
{
closed = 1;
nodes = (
"205 78 OFFCURVE",
"142 131 OFFCURVE",
"142 206 CURVE SMOOTH",
"142 318 OFFCURVE",
"235 428 OFFCURVE",
"315 428 CURVE SMOOTH",
"399 428 OFFCURVE",
"459 373 OFFCURVE",
"459 299 CURVE SMOOTH",
"459 190 OFFCURVE",
"364 78 OFFCURVE",
"287 78 CURVE SMOOTH"
);
}
);
};
layerId = "AB0C3350-AFAB-4400-8FE6-E5D91A7EA7B3";
name = "{800}";
paths = (
{
closed = 1;
nodes = (
"-6 137 OFFCURVE",
"297 44 OFFCURVE",
"275 -16 CURVE",
"390 -20 OFFCURVE",
"557 55 OFFCURVE",
"528 258 CURVE",
"607 385 OFFCURVE",
"355 428 OFFCURVE",
"367 508 CURVE",
"256 540 OFFCURVE",
"44 467 OFFCURVE",
"73 252 CURVE"
);
},
{
closed = 1;
nodes = (
"205 78 OFFCURVE",
"142 131 OFFCURVE",
"142 206 CURVE SMOOTH",
"142 318 OFFCURVE",
"235 428 OFFCURVE",
"315 428 CURVE SMOOTH",
"399 428 OFFCURVE",
"459 373 OFFCURVE",
"459 299 CURVE SMOOTH",
"459 190 OFFCURVE",
"364 78 OFFCURVE",
"287 78 CURVE SMOOTH"
);
}
);
width = 600;
},
{
associatedMasterId = "9D15E9AA-FCC6-4A1A-804C-B0422A1CAE65";
background = {
paths = (
{
closed = 1;
nodes = (
"187 -48 OFFCURVE",
"365 -50 OFFCURVE",
"416 27 CURVE SMOOTH",
"559 173 OFFCURVE",
"547 215 OFFCURVE",
"522 390 CURVE",
"424 548 OFFCURVE",
"242 550 OFFCURVE",
"190 467 CURVE SMOOTH",
"48 320 OFFCURVE",
"57 282 OFFCURVE",
"87 112 CURVE SMOOTH"
);
},
{
closed = 1;
nodes = (
"86 202 OFFCURVE",
"120 303 OFFCURVE",
"213 374 CURVE SMOOTH",
"312 445 OFFCURVE",
"416 445 OFFCURVE",
"465 375 CURVE SMOOTH",
"515 305 OFFCURVE",
"483 203 OFFCURVE",
"386 132 CURVE SMOOTH",
"291 61 OFFCURVE",
"187 61 OFFCURVE",
"135 132 CURVE"
);
}
);
};
layerId = "EEB09B3D-40D5-4C83-B5CE-F8F05A38C421";
name = "{850}";
paths = (
{
closed = 1;
nodes = (
"68 95 OFFCURVE",
"153 -10 OFFCURVE",
"315 -10 CURVE SMOOTH",
"430 -10 OFFCURVE",
"554 127 OFFCURVE",
"554 247 CURVE SMOOTH",
"554 384 OFFCURVE",
"458 514 OFFCURVE",
"307 514 CURVE SMOOTH",
"187 514 OFFCURVE",
"68 379 OFFCURVE",
"68 253 CURVE SMOOTH"
);
},
{
closed = 1;
nodes = (
"220 69 OFFCURVE",
"130 162 OFFCURVE",
"129 292 CURVE SMOOTH",
"129 375 OFFCURVE",
"192 436 OFFCURVE",
"259 436 CURVE SMOOTH",
"381 436 OFFCURVE",
"468 340 OFFCURVE",
"468 212 CURVE SMOOTH",
"468 129 OFFCURVE",
"409 69 OFFCURVE",
"339 69 CURVE SMOOTH"
);
}
);
width = 600;
},
{
associatedMasterId = "9D15E9AA-FCC6-4A1A-804C-B0422A1CAE65";
layerId = "24B88BD0-C2D6-4FD0-B6C1-8DC4813859FC";
name = "{950}";
paths = (
{
closed = 1;
nodes = (
"66 97 OFFCURVE",
"167 -14 OFFCURVE",
"301 -14 CURVE SMOOTH",
"439 -14 OFFCURVE",
"536 97 OFFCURVE",
"536 250 CURVE",
"536 402 OFFCURVE",
"439 514 OFFCURVE",
"301 514 CURVE SMOOTH",
"167 514 OFFCURVE",
"65 402 OFFCURVE",
"65 250 CURVE SMOOTH"
);
},
{
closed = 1;
nodes = (
"180 89 OFFCURVE",
"90 157 OFFCURVE",
"89 252 CURVE SMOOTH",
"89 346 OFFCURVE",
"180 416 OFFCURVE",
"299 416 CURVE SMOOTH",
"423 416 OFFCURVE",
"508 346 OFFCURVE",
"508 252 CURVE SMOOTH",
"508 157 OFFCURVE",
"423 89 OFFCURVE",
"299 89 CURVE SMOOTH"
);
}
);
width = 600;
}
);
unicode = F00B;
},
